<svg xmlns="http://www.w3.org/2000/svg" viewBox="0 0 298.79 101.11"><defs><style>.cls-1{fill:#fff;}.cls-2{fill:none;stroke:#0015fb;stroke-miterlimit:10;stroke-width:3px;}.cls-3{fill:#0015fb;}</style></defs><title>SVG</title><g id="Layer_2" data-name="Layer 2"><g id="Layer_1-2" data-name="Layer 1"><path class="cls-1" d="M141,48.77h-5.83v-7.9H114.63v7.9h-5.84V32.68A17,17,0,0,1,110,26.19a15.11,15.11,0,0,1,3.36-5.09,15.54,15.54,0,0,1,5.1-3.33,17,17,0,0,1,6.42-1.19H138a3,3,0,0,1,1.15.23,2.92,2.92,0,0,1,1.57,1.57,2.94,2.94,0,0,1,.22,1.15ZM114.63,35h20.52V22.42H124.89c-.18,0-.56,0-1.13.08a11.08,11.08,0,0,0-2,.39,11.88,11.88,0,0,0-2.39,1,8.46,8.46,0,0,0-2.32,1.79,9.39,9.39,0,0,0-1.74,2.87,11.36,11.36,0,0,0-.68,4.16Z"/><path class="cls-1" d="M179.3,45.83a3,3,0,0,1-.22,1.17,2.73,2.73,0,0,1-.63.93,3.14,3.14,0,0,1-.94.62,3,3,0,0,1-1.15.22H163.21a18.2,18.2,0,0,1-3.78-.4,16.39,16.39,0,0,1-3.69-1.25A15.47,15.47,0,0,1,152.39,45a13.84,13.84,0,0,1-2.75-3.09,15,15,0,0,1-1.86-4.08,18.58,18.58,0,0,1-.67-5.13V16.58H153v16.1a11.3,11.3,0,0,0,.68,4.17,9.46,9.46,0,0,0,1.74,2.86,8.57,8.57,0,0,0,2.31,1.79,12.37,12.37,0,0,0,2.39,1,11.42,11.42,0,0,0,2,.39c.58,0,1,.08,1.14.08h10.25V16.58h5.84Z"/><path class="cls-1" d="M215.17,22.42H202.31V48.77h-5.84V22.42H183.59V16.58h31.58Z"/><path class="cls-1" d="M252.79,35.75a14,14,0,0,1-1,5.41,12.51,12.51,0,0,1-7.06,7.06,14,14,0,0,1-5.35,1h-7.9a14.14,14.14,0,0,1-5.37-1,12.61,12.61,0,0,1-4.26-2.79A12.93,12.93,0,0,1,219,41.16a14,14,0,0,1-1-5.41V29.6a14,14,0,0,1,1-5.39,12.72,12.72,0,0,1,2.82-4.27,12.91,12.91,0,0,1,4.26-2.79,14,14,0,0,1,5.37-1h7.9a13.78,13.78,0,0,1,5.35,1A12.91,12.91,0,0,1,249,19.94a12.53,12.53,0,0,1,2.8,4.27,14,14,0,0,1,1,5.39ZM247,29.6a8.68,8.68,0,0,0-.55-3.13,6.79,6.79,0,0,0-3.95-3.95,8.57,8.57,0,0,0-3.09-.55h-7.9a8.6,8.6,0,0,0-3.11.55A7.09,7.09,0,0,0,226,24.07a6.74,6.74,0,0,0-1.56,2.4,8.47,8.47,0,0,0-.55,3.13v6.15a8.48,8.48,0,0,0,.55,3.14,6.74,6.74,0,0,0,1.56,2.4,7.09,7.09,0,0,0,2.41,1.55,8.6,8.6,0,0,0,3.11.55h7.86a8.55,8.55,0,0,0,3.1-.55,7.23,7.23,0,0,0,2.42-1.55,7,7,0,0,0,1.56-2.4,8.69,8.69,0,0,0,.55-3.14Z"/><path class="cls-1" d="M146.86,84.53H141V65.36L130.64,83.57a2.58,2.58,0,0,1-1.07,1.05,3.13,3.13,0,0,1-1.47.36,3,3,0,0,1-1.43-.36,2.57,2.57,0,0,1-1-1.05L115.24,65.36V84.53H109.4V54.83A2.92,2.92,0,0,1,110,53,2.87,2.87,0,0,1,111.55,52a3.39,3.39,0,0,1,1-.08,3.17,3.17,0,0,1,.91.21,2.55,2.55,0,0,1,.79.47,2.73,2.73,0,0,1,.61.73L128.1,76.4l13.29-23.09a2.86,2.86,0,0,1,1.42-1.22,3.08,3.08,0,0,1,1.9-.11A2.92,2.92,0,0,1,146.26,53a2.86,2.86,0,0,1,.6,1.79Z"/><path class="cls-1" d="M187.43,71.51a14.24,14.24,0,0,1-1,5.41A12.59,12.59,0,0,1,179.36,84,14,14,0,0,1,174,85h-7.9a14,14,0,0,1-5.36-1,12.85,12.85,0,0,1-4.27-2.79,13.08,13.08,0,0,1-2.82-4.27,14.05,14.05,0,0,1-1-5.41V65.36a14.11,14.11,0,0,1,1-5.4,12.68,12.68,0,0,1,7.09-7.06,14.05,14.05,0,0,1,5.36-1H174a14.05,14.05,0,0,1,5.36,1,13,13,0,0,1,4.25,2.8A12.76,12.76,0,0,1,186.42,60a14.3,14.3,0,0,1,1,5.4Zm-5.84-6.15a8.43,8.43,0,0,0-.55-3.13,6.81,6.81,0,0,0-1.55-2.4,6.9,6.9,0,0,0-2.4-1.55,8.33,8.33,0,0,0-3.09-.55h-7.9a8.4,8.4,0,0,0-3.11.55,7,7,0,0,0-2.41,1.55,6.83,6.83,0,0,0-1.56,2.4,8.43,8.43,0,0,0-.55,3.13v6.15a8.43,8.43,0,0,0,.55,3.13,6.82,6.82,0,0,0,4,4,8.4,8.4,0,0,0,3.11.55H174a8.4,8.4,0,0,0,3.11-.55,6.82,6.82,0,0,0,4-4,8.43,8.43,0,0,0,.55-3.13Z"/><path class="cls-1" d="M221.84,58.18H209V84.53h-5.84V58.18H190.26V52.34h31.58Z"/><path class="cls-1" d="M259.46,71.51a14.24,14.24,0,0,1-1,5.41A12.59,12.59,0,0,1,251.39,84,14,14,0,0,1,246,85h-7.9a14.14,14.14,0,0,1-5.37-1,12.71,12.71,0,0,1-4.26-2.79,12.93,12.93,0,0,1-2.82-4.27,14.05,14.05,0,0,1-1-5.41V65.36a14.11,14.11,0,0,1,1-5.4,12.7,12.7,0,0,1,7.08-7.06,14.14,14.14,0,0,1,5.37-1H246a14,14,0,0,1,5.35,1,12.94,12.94,0,0,1,4.25,2.8A12.61,12.61,0,0,1,258.45,60a14.3,14.3,0,0,1,1,5.4Zm-5.84-6.15a8.43,8.43,0,0,0-.55-3.13,6.79,6.79,0,0,0-1.54-2.4,6.94,6.94,0,0,0-2.41-1.55,8.27,8.27,0,0,0-3.08-.55h-7.9a8.36,8.36,0,0,0-3.11.55,7.08,7.08,0,0,0-2.42,1.55,6.83,6.83,0,0,0-1.56,2.4,8.64,8.64,0,0,0-.55,3.13v6.15a8.64,8.64,0,0,0,.55,3.13,6.83,6.83,0,0,0,1.56,2.4A6.93,6.93,0,0,0,235,78.59a8.36,8.36,0,0,0,3.11.55H246a8.36,8.36,0,0,0,3.11-.55A6.8,6.8,0,0,0,251.51,77a6.57,6.57,0,0,0,1.56-2.4,8.43,8.43,0,0,0,.55-3.13Z"/><path class="cls-1" d="M297.4,63.16a11.89,11.89,0,0,1-.5,3.57,10,10,0,0,1-1.33,2.77,9.53,9.53,0,0,1-1.94,2.06,12.27,12.27,0,0,1-2.31,1.4,11.07,11.07,0,0,1-2.42.8,12,12,0,0,1-2.3.24l12.19,10.53h-9L277.6,74h-4.2V68.17h13.2a7,7,0,0,0,2-.46,5.08,5.08,0,0,0,1.57-1,4.33,4.33,0,0,0,1-1.52,5.37,5.37,0,0,0,.36-2V59.48a1.83,1.83,0,0,0-.12-.75.94.94,0,0,0-.32-.38.85.85,0,0,0-.4-.15,2.68,2.68,0,0,0-.39,0H271.07V84.53h-5.84V55.28a2.93,2.93,0,0,1,.22-1.14,3.06,3.06,0,0,1,.62-1,2.71,2.71,0,0,1,.93-.62,3,3,0,0,1,1.17-.23h22.16a7.06,7.06,0,0,1,3.3.71,6.73,6.73,0,0,1,2.18,1.77,6.82,6.82,0,0,1,1.22,2.3,8.39,8.39,0,0,1,.37,2.31Z"/><circle class="cls-1" cx="50.65" cy="50.68" r="48.93"/><circle class="cls-2" cx="50.56" cy="50.56" r="49.06"/><path class="cls-3" d="M34.75,31.12l.64-1.7h8.68L53.61,61h.14l9.61-31.54h8.28l.7,1.7L87.19,64.7A39.25,39.25,0,0,0,52.85,11.36l8.87,18.06H45l7.83-18.06c-.75,0-1.5-.07-2.26-.07a39.27,39.27,0,0,0-33.48,59.8Z"/><path class="cls-3" d="M83,72.33l-18.22-42h-.13L51.38,74H49.85L36.58,30.35h-.13l-18.23,42-.15.29A38.62,38.62,0,0,0,50.56,89.83a39.23,39.23,0,0,0,32.68-17.5Z"/></g></g></svg>