<svg width="500" height="500" viewBox="0 0 500 500" fill="none" xmlns="http://www.w3.org/2000/svg">
<path d="M23.8125 22.5938L17.7656 16.5469C17.6719 16.4531 17.5312 16.4062 17.3906 16.4062H16.875C18.5156 14.625 19.5 12.3281 19.5 9.75C19.5 4.40625 15.0938 0 9.75 0C4.35938 0 0 4.40625 0 9.75C0 15.1406 4.35938 19.5 9.75 19.5C12.2812 19.5 14.625 18.5156 16.3594 16.9219V17.3906C16.3594 17.5781 16.4062 17.7188 16.5 17.8125L22.5469 23.8594C22.7812 24.0938 23.1094 24.0938 23.3438 23.8594L23.8125 23.3906C24.0469 23.1562 24.0469 22.8281 23.8125 22.5938ZM9.75 18C5.15625 18 1.5 14.3438 1.5 9.75C1.5 5.20312 5.15625 1.5 9.75 1.5C14.2969 1.5 18 5.20312 18 9.75C18 14.3438 14.2969 18 9.75 18Z" fill="white"/>
<path d="M10 70C15.5242 70 20 65.5242 20 60C20 54.4758 15.5242 50 10 50C4.47581 50 0 54.4758 0 60C0 65.5242 4.47581 70 10 70ZM1.29032 60C1.29032 55.2419 5.16129 51.2903 10 51.2903C14.7581 51.2903 18.7097 55.2016 18.7097 60C18.7097 64.7984 14.7984 68.7097 10 68.7097C5.20161 68.7097 1.29032 64.8387 1.29032 60ZM14.6371 59.2742L7.54032 54.9597C6.89516 54.6371 6.12903 55.0806 6.12903 55.8065V64.1935C6.12903 64.9597 6.89516 65.4032 7.54032 65.0403L14.6371 60.9677C15.3226 60.6048 15.3226 59.6774 14.6371 59.2742ZM7.41935 63.2258V56.8145C7.41935 56.6532 7.62097 56.5323 7.78226 56.6129L13.1855 59.9194C13.3468 60 13.3468 60.2419 13.1855 60.3226L7.78226 63.4274C7.62097 63.5484 7.41935 63.4274 7.41935 63.2258Z" fill="black"/>
<path d="M20 139.375C30.7031 139.375 39.375 130.703 39.375 120C39.375 109.297 30.7031 100.625 20 100.625C9.29688 100.625 0.625 109.297 0.625 120C0.625 130.703 9.29688 139.375 20 139.375ZM3.125 120C3.125 110.781 10.625 103.125 20 103.125C29.2188 103.125 36.875 110.703 36.875 120C36.875 129.297 29.2969 136.875 20 136.875C10.7031 136.875 3.125 129.375 3.125 120ZM28.9844 118.594L15.2344 110.234C13.9844 109.609 12.5 110.469 12.5 111.875V128.125C12.5 129.609 13.9844 130.469 15.2344 129.766L28.9844 121.875C30.3125 121.172 30.3125 119.375 28.9844 118.594ZM15 126.25V113.828C15 113.516 15.3906 113.281 15.7031 113.438L26.1719 119.844C26.4844 120 26.4844 120.469 26.1719 120.625L15.7031 126.641C15.3906 126.875 15 126.641 15 126.25Z" fill="white"/>
<path d="M55.5781 65.3281C55.8125 65.5625 56.1406 65.5625 56.375 65.3281L61.8125 59.8438C62.0469 59.6094 62.0469 59.2344 61.8125 59.0469L61.4844 58.7188C61.25 58.4844 60.9219 58.4844 60.6875 58.7188L56 63.5L51.2656 58.6719C51.0312 58.4844 50.7031 58.4844 50.4688 58.6719L50.1406 59.0469C49.9062 59.2344 49.9062 59.6094 50.1406 59.8438L55.5781 65.3281Z" fill="black"/>
<path d="M62.3867 109.203C62.1523 108.969 61.8242 108.969 61.5898 109.203L56.1523 114.688C55.918 114.922 55.918 115.297 56.1523 115.484L56.4805 115.812C56.7148 116.047 57.043 116.047 57.2773 115.812L61.9648 111.031L66.6992 115.859C66.9336 116.047 67.2617 116.047 67.4961 115.859L67.8242 115.484C68.0586 115.297 68.0586 114.922 67.8242 114.688L62.3867 109.203Z" fill="white"/>
<path d="M263.844 55.0938L263.625 54.875C263.469 54.7188 263.25 54.7188 263.094 54.875L257 60.9688L250.875 54.875C250.719 54.7188 250.5 54.7188 250.344 54.875L250.125 55.0938C249.969 55.25 249.969 55.4688 250.125 55.625L256.719 62.2188C256.875 62.375 257.094 62.375 257.25 62.2188L263.844 55.625C264 55.4688 264 55.25 263.844 55.0938Z" fill="black"/>
<path d="M263.844 112.242L263.625 112.461C263.469 112.617 263.25 112.617 263.094 112.461L257 106.367L250.875 112.461C250.719 112.617 250.5 112.617 250.344 112.461L250.125 112.242C249.969 112.086 249.969 111.867 250.125 111.711L256.719 105.117C256.875 104.961 257.094 104.961 257.25 105.117L263.844 111.711C264 111.867 264 112.086 263.844 112.242Z" fill="black"/>
<path d="M204.355 164.882L204.124 164.663C203.959 164.506 203.959 164.287 204.124 164.13L210.557 158.016L204.124 151.87C203.959 151.713 203.959 151.494 204.124 151.337L204.355 151.118C204.52 150.961 204.751 150.961 204.915 151.118L211.876 157.733C212.041 157.89 212.041 158.11 211.876 158.267L204.915 164.882C204.751 165.039 204.52 165.039 204.355 164.882Z" fill="#999999"/>
<path d="M261.645 164.882L261.876 164.663C262.041 164.506 262.041 164.287 261.876 164.13L255.443 158.016L261.876 151.87C262.041 151.713 262.041 151.494 261.876 151.337L261.645 151.118C261.48 150.961 261.249 150.961 261.085 151.118L254.124 157.733C253.959 157.89 253.959 158.11 254.124 158.267L261.085 164.882C261.249 165.039 261.48 165.039 261.645 164.882Z" fill="#999999"/>
<path d="M369.554 59.183C370.149 58.6208 370.149 57.6525 369.554 57.0591L362.953 50.4685C362.702 50.2186 362.233 50 361.889 50H360.262L361.263 50.9995H361.889C361.983 50.9995 362.139 51.0932 362.233 51.1557L368.866 57.7775C369.054 57.9649 369.054 58.2772 368.866 58.4959L362.483 64.8677C362.264 65.0551 361.952 65.0551 361.764 64.8677L361.701 64.8053L361.013 65.5237L361.044 65.5549C361.639 66.1484 362.609 66.1484 363.172 65.5549L369.554 59.183ZM357.884 50.9995C357.978 50.9995 358.135 51.0932 358.228 51.1557L364.861 57.7775C365.049 57.9649 365.049 58.2772 364.861 58.4959L358.479 64.8677C358.26 65.0551 357.947 65.0551 357.759 64.8677L351.126 58.246C351.032 58.1523 351.001 58.0273 351.001 57.9024V51.4993C351.001 51.2494 351.22 50.9995 351.502 50.9995H357.884ZM357.884 50H351.502C350.657 50 350 50.6872 350 51.4993V57.9024C350 58.246 350.188 58.7145 350.438 58.9644L357.039 65.5549C357.634 66.1484 358.604 66.1484 359.167 65.5549L365.549 59.183C366.144 58.6208 366.144 57.6525 365.549 57.0591L358.948 50.4685C358.698 50.2186 358.228 50 357.884 50ZM354.505 53.8731C354.849 53.8731 355.131 54.1542 355.131 54.4978C355.131 54.8726 354.849 55.1225 354.505 55.1225C354.13 55.1225 353.88 54.8726 353.88 54.4978C353.88 54.1542 354.13 53.8731 354.505 53.8731ZM354.505 52.9985C353.661 52.9985 353.004 53.6857 353.004 54.4978C353.004 55.3411 353.661 55.9971 354.505 55.9971C355.319 55.9971 356.007 55.3411 356.007 54.4978C356.007 53.6857 355.319 52.9985 354.505 52.9985Z" fill="black"/>
<path d="M167.849 58.7042L167.567 58.4234C167.365 58.2228 167.083 58.2228 166.881 58.4234L159.705 65.5632V50.4813C159.705 50.2407 159.464 50 159.222 50H158.819C158.536 50 158.335 50.2407 158.335 50.4813V65.5632L151.119 58.4234C150.917 58.2228 150.635 58.2228 150.433 58.4234L150.151 58.7042C149.95 58.9047 149.95 59.1855 150.151 59.3861L158.657 67.8496C158.859 68.0501 159.141 68.0501 159.343 67.8496L167.849 59.3861C168.05 59.1855 168.05 58.9047 167.849 58.7042Z" fill="#0044E1"/>
<path d="M334.625 70H329V65.4286C329 62.9286 330.969 60.8571 333.5 60.8571H334.062C334.977 60.8571 335.75 60.1429 335.75 59.1429V55.7143C335.75 54.7857 334.977 54 334.062 54H333.5C327.242 54 322.25 59.1429 322.25 65.4286V82.5714C322.25 84.5 323.727 86 325.625 86H334.625C336.453 86 338 84.5 338 82.5714V73.4286C338 71.5714 336.453 70 334.625 70ZM314.375 70H308.75V65.4286C308.75 62.9286 310.719 60.8571 313.25 60.8571H313.812C314.727 60.8571 315.5 60.1429 315.5 59.1429V55.7143C315.5 54.7857 314.727 54 313.812 54H313.25C306.992 54 302 59.1429 302 65.4286V82.5714C302 84.5 303.477 86 305.375 86H314.375C316.203 86 317.75 84.5 317.75 82.5714V73.4286C317.75 71.5714 316.203 70 314.375 70Z" fill="#0044E1"/>
<path d="M212.25 50H201.75C200.766 50 200 50.793 200 51.75V59.625C200 60.6094 200.766 61.375 201.75 61.375H204.375V63.6719C204.375 63.8906 204.512 64 204.703 64C204.758 64 204.812 64 204.895 63.9453L208.312 61.375H212.25C213.207 61.375 214 60.6094 214 59.625V51.75C214 50.793 213.207 50 212.25 50ZM213.125 59.625C213.125 60.1172 212.715 60.5 212.25 60.5H208.012L207.766 60.6914L205.25 62.5781V60.5H201.75C201.258 60.5 200.875 60.1172 200.875 59.625V51.75C200.875 51.2852 201.258 50.875 201.75 50.875H212.25C212.715 50.875 213.125 51.2852 213.125 51.75V59.625ZM207 57.2188C206.617 57.2188 206.344 57.5195 206.344 57.875C206.344 58.2578 206.617 58.5312 207 58.5312C207.355 58.5312 207.656 58.2578 207.656 57.875C207.656 57.5195 207.355 57.2188 207 57.2188ZM206.754 56.5625H207.219C207.328 56.5625 207.438 56.4805 207.438 56.3711L207.629 53.3086C207.629 53.1719 207.547 53.0625 207.41 53.0625H206.562C206.426 53.0625 206.344 53.1719 206.344 53.3086L206.535 56.3711C206.535 56.4805 206.645 56.5625 206.754 56.5625Z" fill="black"/>
<path d="M70.7188 5.34375C70.8594 5.34375 71 5.25 71 5.0625V3.9375C71 3.79688 70.8594 3.65625 70.7188 3.65625H50.2812C50.0938 3.65625 50 3.79688 50 3.9375V5.0625C50 5.25 50.0938 5.34375 50.2812 5.34375H70.7188ZM70.7188 12.8438C70.8594 12.8438 71 12.75 71 12.5625V11.4375C71 11.2969 70.8594 11.1562 70.7188 11.1562H50.2812C50.0938 11.1562 50 11.2969 50 11.4375V12.5625C50 12.75 50.0938 12.8438 50.2812 12.8438H70.7188ZM70.7188 20.3438C70.8594 20.3438 71 20.25 71 20.0625V18.9375C71 18.7969 70.8594 18.6562 70.7188 18.6562H50.2812C50.0938 18.6562 50 18.7969 50 18.9375V20.0625C50 20.25 50.0938 20.3438 50.2812 20.3438H70.7188Z" fill="white"/>
<path d="M114.672 13.5C113.312 13.5 112.703 14.25 110.5 14.25C108.25 14.25 107.641 13.5 106.281 13.5C102.812 13.5 100 16.3594 100 19.8281V21.75C100 23.0156 100.984 24 102.25 24H118.75C119.969 24 121 23.0156 121 21.75V19.8281C121 16.3594 118.141 13.5 114.672 13.5ZM119.5 21.75C119.5 22.1719 119.125 22.5 118.75 22.5H102.25C101.828 22.5 101.5 22.1719 101.5 21.75V19.8281C101.5 17.1562 103.609 15 106.281 15C107.219 15 108.109 15.75 110.5 15.75C112.844 15.75 113.781 15 114.672 15C117.344 15 119.5 17.1562 119.5 19.8281V21.75ZM110.5 12C113.781 12 116.5 9.32812 116.5 6C116.5 2.71875 113.781 0 110.5 0C107.172 0 104.5 2.71875 104.5 6C104.5 9.32812 107.172 12 110.5 12ZM110.5 1.5C112.938 1.5 115 3.5625 115 6C115 8.48438 112.938 10.5 110.5 10.5C108.016 10.5 106 8.48438 106 6C106 3.5625 108.016 1.5 110.5 1.5Z" fill="white"/>
<path d="M113.781 61.625H100.875V52.2188C100.875 52.1094 100.766 52 100.656 52H100.219C100.082 52 100 52.1094 100 52.2188V62.0625C100 62.3086 100.191 62.5 100.438 62.5H113.781C113.891 62.5 114 62.418 114 62.2812V61.8438C114 61.7344 113.891 61.625 113.781 61.625ZM102.68 57.4688C102.598 57.5508 102.598 57.6875 102.68 57.7695L102.98 58.0703C103.062 58.1523 103.199 58.1523 103.281 58.0703L105.277 56.1016L107.602 58.4258C107.766 58.5898 108.039 58.5898 108.203 58.4258L110.773 55.8555L111.977 57.0586C112.113 57.1953 112.277 57.25 112.441 57.25C112.797 57.25 113.125 57.0039 113.125 56.5938V53.3398C113.125 53.0938 112.906 52.875 112.66 52.875H109.406C108.805 52.875 108.504 53.6133 108.941 54.0234L110.145 55.2539L107.902 57.4961L105.605 55.1719C105.414 55.0078 105.141 55.0078 104.977 55.1719L102.68 57.4688ZM109.898 53.75H112.25V56.1016L109.898 53.75Z" fill="white"/>
<path d="M159.047 12L163.875 7.21875L164.859 6.23438C165 6.09375 165 5.85938 164.859 5.67188L163.828 4.64062C163.641 4.5 163.406 4.5 163.266 4.64062L157.5 10.4531L151.688 4.64062C151.547 4.5 151.312 4.5 151.125 4.64062L150.094 5.67188C149.953 5.85938 149.953 6.09375 150.094 6.23438L155.906 12L150.094 17.8125C149.953 17.9531 149.953 18.1875 150.094 18.375L151.125 19.4062C151.312 19.5469 151.547 19.5469 151.688 19.4062L157.5 13.5938L162.281 18.4219L163.266 19.4062C163.406 19.5469 163.641 19.5469 163.828 19.4062L164.859 18.375C165 18.1875 165 17.9531 164.859 17.8125L159.047 12Z" fill="white"/>
<path d="M210.938 0.625H201.312C200.574 0.625 200 1.22656 200 1.9375V11.5625C200 12.3008 200.574 12.875 201.312 12.875H210.938C211.648 12.875 212.25 12.3008 212.25 11.5625V1.9375C212.25 1.22656 211.648 0.625 210.938 0.625ZM211.375 11.5625C211.375 11.8086 211.156 12 210.938 12H201.312C201.066 12 200.875 11.8086 200.875 11.5625V1.9375C200.875 1.71875 201.066 1.5 201.312 1.5H210.938C211.156 1.5 211.375 1.71875 211.375 1.9375V11.5625ZM209.871 2.78516L208.258 2.40234C208.203 2.40234 208.121 2.40234 208.066 2.40234C207.793 2.40234 207.465 2.62109 207.328 2.86719L206.59 4.58984C206.453 4.91797 206.562 5.32812 206.836 5.54688L207.492 6.09375C207.082 6.80469 206.152 7.73438 205.441 8.14453L204.895 7.48828C204.676 7.21484 204.266 7.10547 203.938 7.24219L202.215 7.98047C201.859 8.14453 201.668 8.52734 201.75 8.91016L202.133 10.5234C202.215 10.8789 202.543 11.125 202.926 11.125C207.109 11.125 210.5 7.76172 210.5 3.55078C210.5 3.19531 210.227 2.86719 209.871 2.78516ZM202.953 10.25L202.625 8.77344L204.238 8.08984L205.195 9.23828C206.891 8.44531 207.766 7.57031 208.586 5.84766L207.438 4.89062L208.121 3.27734L209.598 3.60547C209.57 7.26953 206.617 10.2227 202.953 10.25Z" fill="black"/>
<path d="M262.688 1.5H251.312C250.574 1.5 250 2.10156 250 2.8125V10.6875C250 11.4258 250.574 12 251.312 12H262.688C263.398 12 264 11.4258 264 10.6875V2.8125C264 2.10156 263.398 1.5 262.688 1.5ZM251.312 2.375H262.688C262.906 2.375 263.125 2.59375 263.125 2.8125V3.96094C262.523 4.45312 261.648 5.16406 258.996 7.26953C258.531 7.65234 257.629 8.52734 257 8.5C256.344 8.52734 255.441 7.65234 254.977 7.26953C252.324 5.16406 251.449 4.45312 250.875 3.96094V2.8125C250.875 2.59375 251.066 2.375 251.312 2.375ZM262.688 11.125H251.312C251.066 11.125 250.875 10.9336 250.875 10.6875V5.08203C251.477 5.60156 252.461 6.39453 254.43 7.95312C255.004 8.41797 255.988 9.40234 257 9.375C257.984 9.40234 258.969 8.41797 259.543 7.95312C261.512 6.39453 262.496 5.60156 263.125 5.08203V10.6875C263.125 10.9336 262.906 11.125 262.688 11.125Z" fill="black"/>
<path d="M307.008 1.85714C310.367 1.85714 313.126 3.97321 313.126 6.57143C313.126 9.16964 310.367 11.2857 307.008 11.2857C306.216 11.2857 305.451 11.1786 304.714 10.9643L304.304 10.8304L303.949 11.0714C303.321 11.5 302.365 12.0089 301.163 12.1429C301.491 11.7411 301.955 11.0446 302.256 10.2679L302.447 9.75893L302.092 9.38393C301.3 8.55357 300.89 7.58929 300.89 6.57143C300.89 3.97321 303.621 1.85714 307.008 1.85714ZM307.008 1C303.13 1 300.016 3.51786 300.016 6.57143C300.016 7.85714 300.535 9.03571 301.436 9.97321C301.054 11.0179 300.207 11.9286 300.18 11.9286C299.989 12.1161 299.962 12.3839 300.044 12.625C300.153 12.8661 300.399 13 300.644 13C302.338 13 303.649 12.3304 304.468 11.7679C305.26 12.0089 306.107 12.1429 307.008 12.1429C310.859 12.1429 314 9.65179 314 6.57143C314 3.51786 310.859 1 307.008 1Z" fill="white"/>
<path d="M360.429 8.75C359.652 8.75 358.955 9.10547 358.5 9.65234L355.929 8.01172C356.196 7.38281 356.196 6.64453 355.929 6.01562L358.5 4.375C358.955 4.92188 359.652 5.25 360.429 5.25C361.848 5.25 363 4.07422 363 2.625C363 1.17578 361.848 0 360.429 0C359.009 0 357.857 1.17578 357.857 2.625C357.857 2.98047 357.911 3.33594 358.045 3.63672L355.473 5.27734C355.018 4.73047 354.321 4.375 353.571 4.375C352.152 4.375 351 5.55078 351 7C351 8.44922 352.152 9.625 353.571 9.625C354.321 9.625 355.018 9.29688 355.473 8.75L358.045 10.3906C357.911 10.6914 357.857 11.0195 357.857 11.375C357.857 12.8242 359.009 14 360.429 14C361.848 14 363 12.8242 363 11.375C363 9.92578 361.848 8.75 360.429 8.75ZM360.429 0.875C361.366 0.875 362.143 1.66797 362.143 2.625C362.143 3.60938 361.366 4.375 360.429 4.375C359.464 4.375 358.714 3.60938 358.714 2.625C358.714 1.66797 359.464 0.875 360.429 0.875ZM353.571 8.75C352.607 8.75 351.857 7.98438 351.857 7C351.857 6.04297 352.607 5.25 353.571 5.25C354.509 5.25 355.286 6.04297 355.286 7C355.286 7.98438 354.509 8.75 353.571 8.75ZM360.429 13.125C359.464 13.125 358.714 12.3594 358.714 11.375C358.714 10.418 359.464 9.625 360.429 9.625C361.366 9.625 362.143 10.418 362.143 11.375C362.143 12.3594 361.366 13.125 360.429 13.125Z" fill="white"/>
<path d="M11.4286 159.75C10.6518 159.75 9.95536 160.105 9.5 160.652L6.92857 159.012C7.19643 158.383 7.19643 157.645 6.92857 157.016L9.5 155.375C9.95536 155.922 10.6518 156.25 11.4286 156.25C12.8482 156.25 14 155.074 14 153.625C14 152.176 12.8482 151 11.4286 151C10.0089 151 8.85714 152.176 8.85714 153.625C8.85714 153.98 8.91071 154.336 9.04464 154.637L6.47321 156.277C6.01786 155.73 5.32143 155.375 4.57143 155.375C3.15179 155.375 2 156.551 2 158C2 159.449 3.15179 160.625 4.57143 160.625C5.32143 160.625 6.01786 160.297 6.47321 159.75L9.04464 161.391C8.91071 161.691 8.85714 162.02 8.85714 162.375C8.85714 163.824 10.0089 165 11.4286 165C12.8482 165 14 163.824 14 162.375C14 160.926 12.8482 159.75 11.4286 159.75ZM11.4286 151.875C12.3661 151.875 13.1429 152.668 13.1429 153.625C13.1429 154.609 12.3661 155.375 11.4286 155.375C10.4643 155.375 9.71429 154.609 9.71429 153.625C9.71429 152.668 10.4643 151.875 11.4286 151.875ZM4.57143 159.75C3.60714 159.75 2.85714 158.984 2.85714 158C2.85714 157.043 3.60714 156.25 4.57143 156.25C5.50893 156.25 6.28571 157.043 6.28571 158C6.28571 158.984 5.50893 159.75 4.57143 159.75ZM11.4286 164.125C10.4643 164.125 9.71429 163.359 9.71429 162.375C9.71429 161.418 10.4643 160.625 11.4286 160.625C12.3661 160.625 13.1429 161.418 13.1429 162.375C13.1429 163.359 12.3661 164.125 11.4286 164.125Z" fill="#999999"/>
<path d="M410.938 1.625H401.312C400.574 1.625 400 2.22656 400 2.9375V12.5625C400 13.3008 400.574 13.875 401.312 13.875H405.059V9.71875H403.336V7.75H405.059V6.27344C405.059 4.57812 406.07 3.62109 407.602 3.62109C408.367 3.62109 409.133 3.75781 409.133 3.75781V5.42578H408.285C407.438 5.42578 407.164 5.94531 407.164 6.49219V7.75H409.051L408.75 9.71875H407.164V13.875H410.938C411.648 13.875 412.25 13.3008 412.25 12.5625V2.9375C412.25 2.22656 411.648 1.625 410.938 1.625Z" fill="black"/>
<path d="M412.5 52H401.5C400.656 52 400 52.6875 400 53.5V64.5C400 65.3438 400.656 66 401.5 66H405.781V61.25H403.812V59H405.781V57.3125C405.781 55.375 406.938 54.2812 408.688 54.2812C409.562 54.2812 410.438 54.4375 410.438 54.4375V56.3438H409.469C408.5 56.3438 408.188 56.9375 408.188 57.5625V59H410.344L410 61.25H408.188V66H412.5C413.312 66 414 65.3438 414 64.5V53.5C414 52.6875 413.312 52 412.5 52Z" fill="white"/>
<path d="M371.429 100H352.571C351.125 100 350 101.179 350 102.571V121.429C350 122.875 351.125 124 352.571 124H359.911V115.857H356.536V112H359.911V109.107C359.911 105.786 361.893 103.911 364.893 103.911C366.393 103.911 367.893 104.179 367.893 104.179V107.446H366.232C364.571 107.446 364.036 108.464 364.036 109.536V112H367.732L367.143 115.857H364.036V124H371.429C372.821 124 374 122.875 374 121.429V102.571C374 101.179 372.821 100 371.429 100Z" fill="white"/>
<path d="M455.086 6.30078V9.25391L457.711 7.77734L455.086 6.30078ZM462.25 2.9375C462.25 2.22656 461.648 1.625 460.938 1.625H451.312C450.574 1.625 450 2.22656 450 2.9375V12.5625C450 13.3008 450.574 13.875 451.312 13.875H460.938C461.648 13.875 462.25 13.3008 462.25 12.5625V2.9375ZM461.102 7.77734C461.102 7.77734 461.102 9.39062 460.883 10.1836C460.773 10.6211 460.418 10.9492 460.008 11.0586C459.215 11.25 456.125 11.25 456.125 11.25C456.125 11.25 453.008 11.25 452.215 11.0586C451.805 10.9492 451.449 10.6211 451.34 10.1836C451.148 9.39062 451.148 7.77734 451.148 7.77734C451.148 7.77734 451.148 6.13672 451.34 5.37109C451.449 4.93359 451.805 4.57812 452.215 4.46875C453.008 4.25 456.125 4.25 456.125 4.25C456.125 4.25 459.215 4.25 460.008 4.46875C460.418 4.57812 460.773 4.93359 460.883 5.37109C461.102 6.13672 461.102 7.77734 461.102 7.77734Z" fill="black"/>
<path d="M465.25 57.9375C465.25 57.4375 465.188 57.0625 465.125 56.6562H457.75V59.3125H462.125C461.969 60.4688 460.812 62.6562 457.75 62.6562C455.094 62.6562 452.938 60.4688 452.938 57.75C452.938 53.4062 458.062 51.4062 460.812 54.0625L462.938 52.0312C461.594 50.7812 459.812 50 457.75 50C453.438 50 450 53.4688 450 57.75C450 62.0625 453.438 65.5 457.75 65.5C462.219 65.5 465.25 62.375 465.25 57.9375Z" fill="white"/>
<path d="M475.734 102.859C475.453 101.734 474.562 100.844 473.484 100.562C471.469 100 463.5 100 463.5 100C463.5 100 455.484 100 453.469 100.562C452.391 100.844 451.5 101.734 451.219 102.859C450.656 104.828 450.656 109.047 450.656 109.047C450.656 109.047 450.656 113.219 451.219 115.234C451.5 116.359 452.391 117.203 453.469 117.484C455.484 118 463.5 118 463.5 118C463.5 118 471.469 118 473.484 117.484C474.562 117.203 475.453 116.359 475.734 115.234C476.297 113.219 476.297 109.047 476.297 109.047C476.297 109.047 476.297 104.828 475.734 102.859ZM460.875 112.844V105.25L467.531 109.047L460.875 112.844Z" fill="#F44336"/>
<path d="M423.473 105.701C423.21 104.638 422.377 103.797 421.367 103.531C419.481 103 412.022 103 412.022 103C412.022 103 404.519 103 402.633 103.531C401.623 103.797 400.79 104.638 400.527 105.701C400 107.56 400 111.544 400 111.544C400 111.544 400 115.484 400.527 117.388C400.79 118.451 401.623 119.247 402.633 119.513C404.519 120 412.022 120 412.022 120C412.022 120 419.481 120 421.367 119.513C422.377 119.247 423.21 118.451 423.473 117.388C424 115.484 424 111.544 424 111.544C424 111.544 424 107.56 423.473 105.701ZM409.565 115.13V107.958L415.795 111.544L409.565 115.13Z" fill="white"/>
<path d="M109.598 157C109.817 157 109.973 156.844 109.973 156.625V156.375C109.973 156.188 109.817 156 109.598 156H103.345C103.158 156 102.97 156.188 102.97 156.375V156.625C102.97 156.844 103.158 157 103.345 157H109.598ZM115.882 165.531C116.038 165.406 116.038 165.156 115.882 165L111.849 160.969C111.786 160.906 111.692 160.875 111.567 160.875H111.317C112.349 159.719 113.006 158.188 113.006 156.5C113.006 152.938 110.129 150.063 106.565 150C102.907 149.969 99.9375 152.938 100 156.594C100.031 160.156 102.907 163 106.503 163C108.16 163 109.692 162.375 110.848 161.344V161.594C110.848 161.688 110.88 161.781 110.973 161.875L115.006 165.906C115.131 166.031 115.382 166.031 115.538 165.906L115.882 165.531ZM112.005 156.5C112.005 159.563 109.535 162 106.503 162C103.439 162 101 159.563 101 156.5C101 153.469 103.439 151 106.503 151C109.535 151 112.005 153.469 112.005 156.5Z" fill="#999999"/>
<path d="M159.974 156.375C159.974 156.188 159.818 156 159.599 156H156.973V153.375C156.973 153.188 156.816 153 156.598 153H156.347C156.16 153 155.972 153.188 155.972 153.375V156H153.346C153.159 156 152.971 156.188 152.971 156.375V156.625C152.971 156.844 153.159 157 153.346 157H155.972V159.625C155.972 159.844 156.16 160 156.347 160H156.598C156.816 160 156.973 159.844 156.973 159.625V157H159.599C159.818 157 159.974 156.844 159.974 156.625V156.375ZM165.883 165.531C166.039 165.406 166.039 165.156 165.883 165L161.85 160.969C161.787 160.906 161.693 160.875 161.568 160.875H161.318C162.35 159.719 163.007 158.188 163.007 156.5C163.007 152.938 160.13 150.063 156.566 150C152.908 149.969 149.938 152.938 150.001 156.594C150.032 160.156 152.908 163 156.504 163C158.161 163 159.693 162.375 160.849 161.344V161.594C160.849 161.688 160.881 161.781 160.974 161.875L165.007 165.906C165.132 166.031 165.383 166.031 165.539 165.906L165.883 165.531ZM162.006 156.5C162.006 159.563 159.536 162 156.504 162C153.44 162 151.001 159.563 151.001 156.5C151.001 153.469 153.44 151 156.504 151C159.536 151 162.006 153.469 162.006 156.5Z" fill="#999999"/>
<path d="M64.625 156C64.8125 156 65 155.844 65 155.625V155.375C65 155.188 64.8125 155 64.625 155H61V151.375C61 151.188 60.8125 151 60.625 151H60.375C60.1562 151 60 151.188 60 151.375V155.25C60 155.688 60.3125 156 60.75 156H64.625ZM56 155.25V151.375C56 151.188 55.8125 151 55.625 151H55.375C55.1562 151 55 151.188 55 151.375V155H51.375C51.1562 155 51 155.188 51 155.375V155.625C51 155.844 51.1562 156 51.375 156H55.25C55.6562 156 56 155.688 56 155.25ZM56 164.625V160.75C56 160.344 55.6562 160 55.25 160H51.375C51.1562 160 51 160.188 51 160.375V160.625C51 160.844 51.1562 161 51.375 161H55V164.625C55 164.844 55.1562 165 55.375 165H55.625C55.8125 165 56 164.844 56 164.625ZM61 164.625V161H64.625C64.8125 161 65 160.844 65 160.625V160.375C65 160.188 64.8125 160 64.625 160H60.75C60.3125 160 60 160.344 60 160.75V164.625C60 164.844 60.1562 165 60.375 165H60.625C60.8125 165 61 164.844 61 164.625Z" fill="#999999"/>
<path d="M55.0781 219.051H52.8008V215.965H44.7773V219.051H42.4961V212.766C42.4865 211.898 42.647 211.037 42.9687 210.23C43.2665 209.485 43.7131 208.809 44.2812 208.242C44.853 207.681 45.5301 207.239 46.2734 206.941C47.0715 206.626 47.9231 206.468 48.7812 206.477H53.9062C54.0604 206.477 54.2131 206.507 54.3554 206.566C54.6327 206.682 54.853 206.902 54.9687 207.18C55.0272 207.322 55.0564 207.475 55.0547 207.629L55.0781 219.051ZM44.7773 213.672H52.7929V208.758H48.7851C48.7148 208.758 48.5664 208.758 48.3437 208.789C48.0792 208.816 47.8177 208.867 47.5625 208.941C47.238 209.037 46.9249 209.168 46.6289 209.332C46.2884 209.511 45.9817 209.747 45.7226 210.031C45.4306 210.361 45.2003 210.741 45.0429 211.152C44.8538 211.673 44.7637 212.224 44.7773 212.777V213.672Z" fill="white"/>
<path d="M70.039 217.902C70.0412 218.059 70.012 218.214 69.9531 218.359C69.8971 218.496 69.8133 218.62 69.707 218.723C69.6002 218.825 69.4758 218.907 69.3398 218.965C69.1972 219.023 69.0445 219.052 68.8906 219.051H63.7539C63.2576 219.05 62.7627 218.998 62.2773 218.895C61.7792 218.79 61.2953 218.626 60.8359 218.406C60.366 218.187 59.9262 217.909 59.5273 217.578C59.1108 217.232 58.7487 216.825 58.4531 216.371C58.1324 215.879 57.8875 215.342 57.7265 214.777C57.5463 214.125 57.4582 213.45 57.4648 212.773V206.477H59.7656V212.766C59.751 213.32 59.8411 213.873 60.0312 214.395C60.1896 214.804 60.4197 215.183 60.7109 215.512C60.9695 215.795 61.2747 216.031 61.6133 216.211C61.9099 216.373 62.2228 216.504 62.5469 216.602C62.8022 216.676 63.0637 216.727 63.3281 216.754C63.5547 216.754 63.7187 216.785 63.7734 216.785H67.7773V206.477H70.0586L70.039 217.902Z" fill="white"/>
<path d="M84.0508 208.758H79.0273V219.051H76.7461V208.758H71.7148V206.477H84.0508V208.758Z" fill="white"/>
<path d="M98.7461 213.965C98.7569 214.688 98.6242 215.406 98.3555 216.078C98.1098 216.703 97.7381 217.27 97.2636 217.744C96.7892 218.219 96.222 218.59 95.5977 218.836C94.9333 219.102 94.2233 219.234 93.5078 219.227H90.4219C89.7039 219.234 88.9914 219.101 88.3242 218.836C87.7012 218.59 87.135 218.219 86.6602 217.746C86.1813 217.27 85.8028 216.703 85.5469 216.078C85.2782 215.406 85.1454 214.688 85.1563 213.965V211.562C85.1464 210.842 85.2792 210.126 85.5469 209.457C85.7973 208.832 86.1721 208.265 86.6484 207.789C87.1253 207.319 87.691 206.948 88.3125 206.699C88.9793 206.433 89.6921 206.3 90.4102 206.309H93.4961C94.2118 206.299 94.9222 206.431 95.5859 206.699C96.2131 206.947 96.7842 207.317 97.2656 207.789C97.7408 208.264 98.1131 208.832 98.3594 209.457C98.6271 210.126 98.7598 210.842 98.75 211.562L98.7461 213.965ZM96.4844 211.562C96.4886 211.145 96.4158 210.731 96.2695 210.34C96.1365 209.988 95.9301 209.668 95.6641 209.402C95.398 209.136 95.0785 208.93 94.7266 208.797C94.3409 208.652 93.9317 208.579 93.5195 208.582H90.4336C90.0189 208.578 89.607 208.651 89.2188 208.797C88.8684 208.933 88.5494 209.139 88.2813 209.402C88.0133 209.668 87.8055 209.987 87.6719 210.34C87.5238 210.73 87.4509 211.145 87.457 211.562V213.965C87.4505 214.384 87.5234 214.8 87.6719 215.191C87.8055 215.544 88.0133 215.864 88.2813 216.129C88.5506 216.393 88.8709 216.599 89.2227 216.734C89.6109 216.88 90.0228 216.953 90.4375 216.949H93.5078C93.9213 216.953 94.3319 216.88 94.7188 216.734C95.0712 216.598 95.3926 216.392 95.6641 216.129C95.9296 215.862 96.1371 215.543 96.2734 215.191C96.4201 214.799 96.4929 214.383 96.4883 213.965L96.4844 211.562Z" fill="white"/>
<path d="M57.3672 233.02H55.0782V225.531L51.0313 232.645C50.9356 232.82 50.7902 232.962 50.6133 233.055C50.4363 233.148 50.2391 233.196 50.0391 233.195C49.8441 233.196 49.6521 233.147 49.4805 233.055C49.3136 232.958 49.178 232.816 49.0899 232.645L45.0157 225.531V233.02H42.7344V221.418C42.7294 221.16 42.8121 220.908 42.9688 220.703C43.1221 220.51 43.3349 220.373 43.5742 220.312C43.7022 220.283 43.8338 220.272 43.9649 220.281C44.0868 220.291 44.2065 220.319 44.3203 220.363C44.4335 220.405 44.538 220.467 44.6289 220.547C44.7244 220.627 44.8051 220.724 44.8672 220.832L50.0391 229.844L55.2305 220.824C55.3567 220.608 55.5521 220.44 55.7852 220.348C56.0218 220.255 56.2816 220.24 56.5274 220.305C56.7671 220.368 56.9797 220.508 57.1328 220.703C57.2879 220.903 57.3705 221.149 57.3672 221.402V233.02Z" fill="white"/>
<path d="M73.2149 227.934C73.2233 228.657 73.0906 229.375 72.8242 230.047C72.5774 230.672 72.2049 231.24 71.7299 231.716C71.2549 232.191 70.6874 232.565 70.0625 232.813C69.3969 233.079 68.6855 233.211 67.9688 233.203H64.8828C64.1661 233.211 63.4546 233.079 62.7891 232.813C62.1658 232.564 61.5987 232.194 61.1211 231.723C60.6477 231.245 60.2733 230.678 60.0195 230.055C59.7513 229.383 59.6186 228.665 59.6289 227.941V225.531C59.6197 224.809 59.7524 224.093 60.0195 223.422C60.27 222.798 60.6447 222.232 61.1208 221.758C61.5969 221.284 62.1645 220.912 62.7891 220.664C63.4548 220.398 64.1661 220.266 64.8828 220.273H67.9688C68.6855 220.266 69.3968 220.398 70.0625 220.664C70.6826 220.916 71.2468 221.287 71.7227 221.758C72.1986 222.238 72.5721 222.809 72.8203 223.438C73.0856 224.109 73.2182 224.825 73.2109 225.547L73.2149 227.934ZM70.9336 225.531C70.9402 225.114 70.8672 224.699 70.7188 224.309C70.5855 223.957 70.3791 223.637 70.1133 223.371C69.8465 223.106 69.5271 222.9 69.1758 222.766C68.7907 222.618 68.3811 222.545 67.9688 222.551H64.8828C64.4679 222.545 64.0557 222.618 63.668 222.766C63.3158 222.9 62.9953 223.107 62.7266 223.371C62.4595 223.637 62.2518 223.957 62.1172 224.309C61.9687 224.699 61.8958 225.114 61.9024 225.531V227.934C61.8958 228.351 61.9687 228.766 62.1172 229.156C62.2507 229.513 62.4593 229.838 62.7288 230.107C62.9984 230.377 63.3226 230.585 63.6797 230.719C64.0674 230.867 64.4797 230.939 64.8945 230.934H67.9688C68.3837 230.939 68.7959 230.867 69.1836 230.719C69.5407 230.585 69.8649 230.377 70.1345 230.107C70.4041 229.838 70.6126 229.513 70.7461 229.156C70.8946 228.766 70.9675 228.351 70.961 227.934L70.9336 225.531Z" fill="white"/>
<path d="M86.6562 222.727H81.6406V233.02H79.3594V222.727H74.3203V220.445H86.6562V222.727Z" fill="white"/>
<path d="M101.352 227.934C101.36 228.657 101.227 229.375 100.961 230.047C100.714 230.672 100.342 231.24 99.8666 231.716C99.3916 232.191 98.8241 232.565 98.1992 232.813C97.53 233.08 96.8145 233.213 96.0938 233.203H93.0078C92.2899 233.21 91.5774 233.078 90.9102 232.813C90.2876 232.565 89.7216 232.194 89.2461 231.723C88.7715 231.246 88.3969 230.679 88.1445 230.055C87.8763 229.383 87.7436 228.665 87.7539 227.941V225.531C87.7447 224.809 87.8774 224.093 88.1445 223.422C88.3949 222.799 88.7692 222.233 89.2445 221.759C89.7199 221.285 90.2866 220.913 90.9102 220.664C91.5774 220.399 92.2899 220.266 93.0078 220.273H96.0938C96.8092 220.266 97.5193 220.398 98.1836 220.664C98.8039 220.915 99.3682 221.287 99.8438 221.758C100.327 222.235 100.706 222.807 100.957 223.438C101.222 224.109 101.355 224.825 101.348 225.547L101.352 227.934ZM99.0703 225.531C99.0769 225.114 99.004 224.699 98.8555 224.309C98.7236 223.957 98.5185 223.637 98.2539 223.371C97.9857 223.106 97.665 222.9 97.3125 222.766C96.9288 222.618 96.5204 222.545 96.1094 222.551H93.0234C92.6085 222.545 92.1962 222.617 91.8086 222.766C91.4554 222.901 91.1337 223.107 90.8633 223.371C90.5962 223.637 90.3885 223.957 90.2539 224.309C90.1073 224.699 90.0345 225.114 90.0391 225.531V227.934C90.0345 228.351 90.1073 228.765 90.2539 229.156C90.3885 229.508 90.5962 229.828 90.8633 230.094C91.1292 230.358 91.4471 230.564 91.7969 230.699C92.1845 230.847 92.5968 230.92 93.0117 230.914H96.0938C96.5087 230.92 96.921 230.847 97.3086 230.699C97.6619 230.561 97.9815 230.35 98.2461 230.078C98.5157 229.814 98.7237 229.494 98.8555 229.141C99.004 228.75 99.0769 228.335 99.0703 227.918V225.531Z" fill="white"/>
<path d="M116.172 224.672C116.178 225.144 116.112 225.614 115.977 226.066C115.86 226.452 115.685 226.817 115.457 227.148C115.246 227.453 114.99 227.724 114.699 227.953C114.419 228.168 114.117 228.351 113.797 228.5C113.495 228.64 113.178 228.745 112.852 228.812C112.556 228.873 112.255 228.904 111.953 228.906L116.715 233.02H113.199L108.437 228.906H106.797V226.629H111.953C112.221 226.608 112.484 226.547 112.734 226.449C112.961 226.358 113.169 226.225 113.348 226.059C113.518 225.891 113.652 225.688 113.738 225.465C113.834 225.216 113.882 224.951 113.879 224.684V223.234C113.884 223.135 113.868 223.035 113.832 222.941C113.804 222.882 113.761 222.83 113.707 222.793C113.661 222.76 113.607 222.74 113.551 222.734C113.5 222.731 113.449 222.731 113.398 222.734H105.887V233.02H103.605V221.594C103.604 221.441 103.633 221.29 103.691 221.148C103.746 221.004 103.828 220.871 103.934 220.758C104.037 220.653 104.16 220.57 104.297 220.516C104.442 220.455 104.597 220.425 104.754 220.426H113.41C113.856 220.413 114.298 220.508 114.699 220.703C115.029 220.871 115.319 221.107 115.551 221.395C115.766 221.661 115.928 221.966 116.027 222.293C116.117 222.586 116.166 222.889 116.172 223.195V224.672Z" fill="white"/>
<path d="M19.7852 238.91C30.3411 238.91 38.8984 230.353 38.8984 219.797C38.8984 209.241 30.3411 200.684 19.7852 200.684C9.22918 200.684 0.671875 209.241 0.671875 219.797C0.671875 230.353 9.22918 238.91 19.7852 238.91Z" fill="white"/>
<path fill-rule="evenodd" clip-rule="evenodd" d="M19.75 201.172C9.48959 201.172 1.17188 209.49 1.17188 219.75C1.17188 230.01 9.48959 238.328 19.75 238.328C30.0104 238.328 38.3281 230.01 38.3281 219.75C38.3281 209.49 30.0104 201.172 19.75 201.172ZM0 219.75C0 208.842 8.84238 200 19.75 200C30.6576 200 39.5 208.842 39.5 219.75C39.5 230.658 30.6576 239.5 19.75 239.5C8.84238 239.5 0 230.658 0 219.75Z" fill="#0015FB"/>
<path d="M13.5742 212.156L13.8242 211.492H17.2148L20.9414 223.828H20.9961L24.75 211.508H27.9844L28.2578 212.172L34.0586 225.273C34.9298 223.02 35.2563 220.593 35.0115 218.19C34.7667 215.787 33.9575 213.476 32.6499 211.444C31.3422 209.413 29.5732 207.72 27.4869 206.502C25.4006 205.285 23.0561 204.577 20.6445 204.437L24.1094 211.492H17.5781L20.6367 204.437C20.3437 204.437 20.0508 204.41 19.7539 204.41C17.0266 204.41 14.3485 205.137 11.9955 206.516C9.64257 207.895 7.69985 209.877 6.36751 212.256C5.03517 214.636 4.36138 217.328 4.41556 220.055C4.46975 222.782 5.24994 225.445 6.67576 227.77L13.5742 212.156Z" fill="#0015FB"/>
<path d="M32.4219 228.254L25.3047 211.848H25.2539L20.0703 228.906H19.4727L14.2891 211.855H14.2383L7.11719 228.262L7.05859 228.375C8.44955 230.461 10.3383 232.167 12.5542 233.339C14.7701 234.512 17.2432 235.113 19.75 235.09C22.2764 235.091 24.764 234.468 26.9912 233.275C29.2184 232.082 31.1162 230.357 32.5156 228.254H32.4219Z" fill="#0015FB"/>
<g clip-path="url(#clip0)">
<path d="M308.239 216.451C308.105 216.347 307.994 216.217 307.913 216.068C307.833 215.92 307.783 215.756 307.769 215.588L307.791 204.971L300.79 205.623C300.688 205.63 300.585 205.617 300.489 205.583C300.392 205.549 300.304 205.495 300.23 205.425C300.155 205.355 300.097 205.27 300.057 205.176C300.017 205.082 299.998 204.981 300 204.879L300.018 203.961C300.023 203.758 300.103 203.564 300.242 203.416C300.382 203.268 300.571 203.176 300.774 203.159L305.575 202.7L305.861 192.462C305.838 192.292 305.852 192.118 305.901 191.953C305.95 191.788 306.034 191.635 306.146 191.504C306.307 191.304 306.525 191.157 306.772 191.081C307.018 191.006 307.281 191.006 307.527 191.081C307.774 191.157 307.991 191.305 308.152 191.505C308.313 191.705 308.41 191.949 308.43 192.205L308.082 202.593L321.604 201.252L321.952 190.874C321.929 190.703 321.943 190.53 321.992 190.364C322.041 190.199 322.125 190.047 322.238 189.916C322.346 189.787 322.479 189.681 322.629 189.603C322.778 189.525 322.942 189.478 323.11 189.463C323.28 189.44 323.453 189.453 323.618 189.499C323.783 189.546 323.936 189.626 324.069 189.734C324.201 189.842 324.31 189.977 324.388 190.128C324.467 190.28 324.513 190.446 324.524 190.617L324.306 200.983L331.454 200.276C331.575 200.264 331.697 200.277 331.813 200.316C331.928 200.354 332.034 200.416 332.124 200.498C332.213 200.581 332.284 200.681 332.332 200.792C332.379 200.904 332.403 201.024 332.401 201.145V201.638C332.395 201.875 332.302 202.102 332.138 202.274C331.975 202.446 331.753 202.552 331.515 202.571L326.872 203.015L326.672 213.727C326.692 213.893 326.678 214.062 326.631 214.222C326.585 214.383 326.507 214.533 326.402 214.664C326.294 214.799 326.158 214.909 326.004 214.988C325.85 215.067 325.681 215.113 325.507 215.123C325.167 215.155 324.827 215.052 324.562 214.836C324.297 214.62 324.129 214.308 324.094 213.969L324.401 203.294L310.504 204.698L310.344 215.331C310.382 215.668 310.283 216.006 310.071 216.27C309.965 216.406 309.831 216.518 309.678 216.598C309.526 216.679 309.358 216.727 309.186 216.739C309.017 216.759 308.845 216.743 308.682 216.694C308.519 216.644 308.368 216.562 308.239 216.451Z" fill="white"/>
<path d="M347.699 198.905C348.953 199.662 349.969 200.754 350.631 202.057C351.345 203.481 351.702 205.056 351.672 206.648C351.68 206.803 351.654 206.958 351.598 207.103C351.541 207.248 351.454 207.38 351.344 207.49C351.227 207.595 351.091 207.676 350.942 207.728C350.794 207.781 350.637 207.804 350.48 207.796H337.096C337.206 209.486 337.974 211.066 339.237 212.2C340.5 213.334 342.158 213.931 343.857 213.865C344.676 213.861 345.488 213.721 346.261 213.452C346.967 213.231 347.625 212.879 348.2 212.414C348.452 212.206 348.767 212.089 349.094 212.083C349.359 212.091 349.614 212.183 349.822 212.347C349.954 212.456 350.06 212.592 350.134 212.746C350.208 212.899 350.249 213.067 350.253 213.237C350.251 213.383 350.217 213.526 350.154 213.657C350.091 213.788 350 213.904 349.887 213.996C349.064 214.667 348.127 215.185 347.121 215.527C345.827 216.012 344.444 216.214 343.064 216.117C341.685 216.021 340.343 215.628 339.131 214.967C337.757 214.204 336.626 213.072 335.867 211.701C335.069 210.251 334.664 208.619 334.69 206.966C334.662 205.31 335.043 203.673 335.799 202.198C336.498 200.845 337.562 199.714 338.873 198.932C340.233 198.138 341.786 197.733 343.363 197.76C344.887 197.734 346.388 198.13 347.699 198.905ZM339.183 201.595C338.05 202.688 337.335 204.14 337.164 205.702H349.288C349.186 204.162 348.532 202.709 347.444 201.61C346.904 201.092 346.265 200.688 345.565 200.421C344.865 200.155 344.118 200.031 343.369 200.059C341.825 200.001 340.32 200.553 339.183 201.595V201.595Z" fill="white"/>
<path d="M378.526 198.663C379.545 199.294 380.362 200.203 380.877 201.283C381.461 202.515 381.751 203.865 381.722 205.228V214.716C381.732 214.883 381.706 215.05 381.646 215.207C381.586 215.364 381.494 215.506 381.375 215.625C381.256 215.743 381.113 215.835 380.956 215.895C380.798 215.954 380.63 215.98 380.462 215.97C380.121 215.98 379.79 215.856 379.54 215.625C379.418 215.506 379.322 215.363 379.26 215.204C379.197 215.046 379.169 214.876 379.177 214.706V205.219C379.177 203.658 378.774 202.42 377.967 201.506C377.576 201.057 377.089 200.702 376.541 200.465C375.994 200.228 375.401 200.117 374.804 200.138C374.174 200.115 373.547 200.226 372.963 200.465C372.38 200.703 371.855 201.064 371.424 201.521C370.563 202.446 370.144 203.656 370.167 205.151V214.719C370.177 214.886 370.151 215.053 370.091 215.21C370.031 215.367 369.939 215.509 369.82 215.628C369.701 215.746 369.558 215.838 369.4 215.898C369.243 215.957 369.075 215.983 368.907 215.973C368.566 215.983 368.235 215.859 367.985 215.628C367.863 215.509 367.767 215.366 367.704 215.207C367.642 215.049 367.614 214.879 367.622 214.709V205.222C367.622 203.661 367.219 202.423 366.411 201.509C366.02 201.061 365.533 200.705 364.986 200.468C364.439 200.231 363.845 200.12 363.249 200.141C362.622 200.12 361.998 200.23 361.416 200.463C360.834 200.696 360.307 201.047 359.869 201.494C359.426 201.954 359.081 202.497 358.853 203.092C358.626 203.688 358.521 204.322 358.544 204.958V214.722C358.554 214.889 358.528 215.057 358.468 215.213C358.408 215.37 358.316 215.512 358.197 215.631C358.078 215.749 357.935 215.841 357.778 215.901C357.62 215.961 357.452 215.986 357.284 215.977C356.943 215.986 356.612 215.862 356.362 215.631C356.24 215.512 356.144 215.369 356.082 215.21C356.019 215.052 355.991 214.882 356 214.712V199.22C355.993 199.049 356.022 198.879 356.085 198.72C356.147 198.561 356.242 198.417 356.363 198.296C356.484 198.175 356.629 198.08 356.789 198.017C356.948 197.955 357.119 197.925 357.29 197.931C357.461 197.924 357.631 197.952 357.79 198.015C357.949 198.078 358.093 198.174 358.212 198.296C358.445 198.544 358.57 198.874 358.559 199.214V199.939C359.167 199.243 359.919 198.685 360.763 198.305C361.633 197.917 362.576 197.721 363.529 197.729C364.675 197.713 365.806 197.997 366.808 198.553C367.777 199.099 368.579 199.898 369.128 200.863C369.747 199.891 370.609 199.095 371.63 198.553C372.689 198.004 373.869 197.727 375.062 197.745C376.281 197.719 377.482 198.037 378.526 198.663Z" fill="white"/>
<path d="M399.411 198.905C400.667 199.66 401.683 200.753 402.343 202.057C403.06 203.48 403.418 205.056 403.388 206.648C403.395 206.804 403.37 206.959 403.312 207.104C403.255 207.249 403.168 207.381 403.056 207.49C402.94 207.595 402.804 207.676 402.657 207.728C402.509 207.781 402.352 207.804 402.196 207.796H388.815C388.924 209.486 389.692 211.066 390.956 212.2C392.219 213.334 393.877 213.931 395.576 213.865C396.394 213.861 397.205 213.721 397.976 213.452C398.683 213.232 399.341 212.88 399.915 212.414C400.167 212.206 400.482 212.089 400.81 212.083C401.075 212.091 401.33 212.183 401.538 212.347C401.67 212.455 401.777 212.591 401.852 212.745C401.927 212.899 401.968 213.067 401.971 213.237C401.969 213.383 401.936 213.526 401.872 213.657C401.809 213.788 401.718 213.904 401.606 213.996C400.777 214.669 399.834 215.187 398.821 215.527C397.528 216.012 396.144 216.214 394.765 216.117C393.385 216.021 392.044 215.628 390.831 214.967C389.465 214.202 388.341 213.073 387.586 211.707C386.786 210.258 386.381 208.626 386.409 206.972C386.379 205.316 386.76 203.678 387.518 202.204C388.216 200.851 389.281 199.72 390.591 198.938C391.951 198.145 393.503 197.739 395.078 197.766C396.601 197.738 398.101 198.132 399.411 198.905V198.905ZM390.899 201.595C389.762 202.686 389.047 204.14 388.876 205.702H401.003C400.899 204.163 400.245 202.711 399.159 201.61C398.62 201.092 397.981 200.688 397.28 200.421C396.58 200.155 395.833 200.031 395.084 200.059C393.54 199.999 392.035 200.551 390.899 201.595V201.595Z" fill="white"/>
<path d="M418.081 198.097C418.622 198.338 418.892 198.681 418.892 199.119C418.897 199.222 418.886 199.325 418.858 199.425C418.803 199.674 418.655 199.893 418.444 200.037C418.203 200.159 417.935 200.216 417.666 200.202C417.466 200.202 417.125 200.181 416.64 200.138C416.375 200.112 416.109 200.101 415.844 200.104C414.188 200.104 412.836 200.544 411.787 201.424C411.279 201.838 410.874 202.363 410.601 202.957C410.328 203.552 410.196 204.201 410.214 204.854V214.719C410.226 214.891 410.202 215.064 410.144 215.226C410.086 215.389 409.995 215.538 409.877 215.664C409.759 215.79 409.616 215.891 409.457 215.96C409.298 216.029 409.127 216.064 408.954 216.064C408.78 216.064 408.609 216.029 408.45 215.96C408.291 215.891 408.148 215.79 408.03 215.664C407.912 215.538 407.821 215.389 407.763 215.226C407.705 215.064 407.681 214.891 407.694 214.719V199.186C407.681 199.014 407.705 198.841 407.763 198.679C407.821 198.516 407.912 198.367 408.03 198.241C408.148 198.114 408.291 198.014 408.45 197.945C408.609 197.876 408.78 197.841 408.954 197.841C409.127 197.841 409.298 197.876 409.457 197.945C409.616 198.014 409.759 198.114 409.877 198.241C409.995 198.367 410.086 198.516 410.144 198.679C410.202 198.841 410.226 199.014 410.214 199.186V200.637C410.838 199.727 411.684 198.99 412.672 198.495C413.665 197.992 414.764 197.735 415.877 197.745C416.628 197.71 417.378 197.83 418.081 198.097V198.097Z" fill="white"/>
<path d="M434.479 198.969C435.865 199.754 437.01 200.9 437.792 202.284C438.603 203.712 439.019 205.329 439 206.969V214.722C439.003 214.887 438.972 215.051 438.91 215.204C438.848 215.357 438.755 215.496 438.637 215.612C438.517 215.733 438.373 215.827 438.214 215.89C438.056 215.952 437.886 215.982 437.715 215.977C437.374 215.986 437.043 215.862 436.793 215.631C436.671 215.512 436.576 215.369 436.513 215.21C436.45 215.052 436.422 214.882 436.431 214.712V212.741C435.661 213.794 434.649 214.647 433.481 215.23C432.259 215.846 430.907 216.161 429.538 216.148C427.954 216.169 426.395 215.761 425.026 214.967C423.658 214.174 422.532 213.025 421.769 211.643C420.992 210.204 420.589 208.595 420.595 206.962C420.6 205.329 421.016 203.723 421.803 202.29C422.58 200.905 423.721 199.758 425.103 198.969C426.538 198.178 428.151 197.763 429.791 197.763C431.431 197.763 433.044 198.178 434.479 198.969V198.969ZM433.204 212.94C434.212 212.356 435.042 211.51 435.604 210.492C436.183 209.408 436.486 208.2 436.486 206.972C436.486 205.745 436.183 204.536 435.604 203.453C435.025 202.419 434.18 201.558 433.155 200.958C432.13 200.359 430.963 200.043 429.774 200.043C428.586 200.043 427.419 200.359 426.394 200.958C425.369 201.558 424.523 202.419 423.945 203.453C423.365 204.536 423.062 205.745 423.062 206.972C423.062 208.2 423.365 209.408 423.945 210.492C424.51 211.513 425.347 212.36 426.363 212.94C427.405 213.538 428.59 213.846 429.793 213.831C430.99 213.848 432.168 213.541 433.204 212.943V212.94Z" fill="white"/>
<path d="M410.306 163.834C402.275 161.942 398.167 158 393.495 155.237C373.827 143.606 357.207 153.731 346.811 162.509C338.741 169.324 334.589 174.292 334.589 174.292C333.088 175.481 331.328 176.302 329.45 176.688C329.175 176.729 328.911 176.825 328.674 176.969C328.437 177.114 328.232 177.305 328.071 177.531C327.909 177.756 327.795 178.012 327.736 178.283C327.676 178.553 327.671 178.833 327.723 179.105C327.774 179.377 327.88 179.636 328.034 179.867C328.188 180.097 328.387 180.295 328.62 180.447C328.852 180.599 329.113 180.703 329.387 180.752C329.66 180.801 329.941 180.795 330.212 180.734C334.208 179.987 337.081 177.729 338.919 176.03C350.545 180.202 383.363 188.655 410.306 163.834Z" fill="#95C83D"/>
<path d="M394.381 164.121L378.443 165.704L379.411 159.601C379.451 159.27 379.361 158.936 379.159 158.67C378.958 158.404 378.66 158.226 378.33 158.174C377.999 158.121 377.661 158.199 377.386 158.39C377.112 158.58 376.922 158.87 376.857 159.197L375.785 165.967L362.521 167.283L363.492 161.18C363.526 161.01 363.526 160.834 363.49 160.664C363.455 160.494 363.385 160.333 363.285 160.19C363.186 160.048 363.058 159.927 362.91 159.834C362.762 159.742 362.597 159.681 362.425 159.654C362.253 159.627 362.077 159.635 361.907 159.677C361.738 159.719 361.579 159.796 361.441 159.901C361.302 160.006 361.186 160.138 361.099 160.289C361.013 160.44 360.958 160.607 360.938 160.779L359.863 167.546L347.438 168.77C347.112 168.809 346.813 168.969 346.602 169.219C346.39 169.468 346.281 169.788 346.298 170.114C346.314 170.441 346.454 170.748 346.69 170.975C346.926 171.203 347.239 171.332 347.567 171.338H347.696L362.447 169.872L361.476 175.975C361.424 176.312 361.508 176.656 361.709 176.932C361.911 177.208 362.213 177.393 362.552 177.447C362.619 177.452 362.687 177.452 362.754 177.447C363.062 177.447 363.359 177.337 363.593 177.138C363.827 176.939 363.982 176.663 364.03 176.361L365.105 169.594L378.299 168.284L377.331 174.387C377.304 174.553 377.31 174.724 377.35 174.888C377.389 175.052 377.461 175.207 377.56 175.344C377.66 175.481 377.786 175.597 377.93 175.685C378.075 175.773 378.236 175.832 378.403 175.859C378.471 175.863 378.538 175.863 378.606 175.859C378.912 175.865 379.211 175.762 379.448 175.569C379.686 175.376 379.847 175.106 379.903 174.806L380.978 168.039L394.645 166.683C394.974 166.635 395.272 166.463 395.477 166.202C395.682 165.941 395.778 165.611 395.745 165.281C395.713 164.951 395.553 164.647 395.301 164.431C395.048 164.215 394.722 164.104 394.39 164.121H394.381Z" fill="white"/>
<path d="M352.521 221.118C352.625 221.231 352.705 221.362 352.758 221.506C352.811 221.649 352.835 221.801 352.828 221.954V228.944C352.836 229.085 352.815 229.227 352.766 229.359C352.716 229.492 352.64 229.613 352.542 229.715C352.337 229.898 352.072 230 351.797 230C351.522 230 351.256 229.898 351.052 229.715C350.953 229.614 350.876 229.493 350.826 229.36C350.776 229.227 350.755 229.086 350.763 228.944V225.167L349.291 227.864C349.183 228.092 349.024 228.293 348.827 228.451C348.654 228.563 348.452 228.623 348.246 228.623C348.04 228.623 347.838 228.563 347.665 228.451C347.467 228.293 347.309 228.092 347.201 227.864L345.741 225.244V228.944C345.748 229.085 345.726 229.225 345.676 229.356C345.627 229.488 345.55 229.608 345.452 229.709C345.353 229.806 345.235 229.882 345.105 229.932C344.975 229.982 344.836 230.005 344.696 230C344.56 230.005 344.424 229.982 344.297 229.933C344.17 229.884 344.054 229.81 343.956 229.715C343.856 229.614 343.779 229.493 343.729 229.36C343.678 229.227 343.656 229.086 343.664 228.944V221.954C343.656 221.801 343.679 221.648 343.732 221.505C343.785 221.361 343.866 221.23 343.971 221.118C344.16 220.935 344.406 220.823 344.668 220.801C344.931 220.778 345.192 220.847 345.409 220.996C345.614 221.144 345.779 221.341 345.889 221.568L348.261 226.015L350.625 221.568C350.889 221.054 351.239 220.797 351.706 220.797C351.857 220.79 352.008 220.814 352.148 220.87C352.289 220.925 352.416 221.01 352.521 221.118V221.118Z" fill="white"/>
<path d="M357.373 229.639C357.273 229.53 357.196 229.403 357.147 229.264C357.098 229.125 357.078 228.978 357.087 228.831V221.954C357.071 221.806 357.088 221.657 357.137 221.517C357.186 221.377 357.267 221.249 357.372 221.145C357.477 221.04 357.605 220.96 357.746 220.911C357.887 220.861 358.036 220.845 358.185 220.861H362.65C362.948 220.839 363.245 220.921 363.489 221.094C363.585 221.175 363.662 221.278 363.711 221.394C363.761 221.509 363.783 221.635 363.775 221.761C363.775 222.373 363.4 222.679 362.65 222.679H359.398V224.402H362.386C363.135 224.402 363.51 224.708 363.51 225.32C363.518 225.447 363.496 225.573 363.447 225.689C363.397 225.805 363.321 225.909 363.225 225.991C362.978 226.157 362.682 226.233 362.386 226.208H359.392V228.084H362.644C363.394 228.084 363.769 228.39 363.769 229.002C363.776 229.128 363.754 229.254 363.705 229.369C363.655 229.485 363.579 229.588 363.483 229.669C363.238 229.84 362.942 229.921 362.644 229.899H358.185C358.039 229.912 357.892 229.896 357.752 229.851C357.613 229.806 357.484 229.734 357.373 229.639Z" fill="white"/>
<path d="M367.659 229.639C367.559 229.53 367.482 229.403 367.433 229.264C367.384 229.125 367.364 228.978 367.373 228.831V221.954C367.357 221.806 367.374 221.657 367.423 221.517C367.472 221.377 367.553 221.249 367.658 221.145C367.763 221.04 367.891 220.96 368.032 220.911C368.172 220.861 368.322 220.845 368.471 220.861H371.08C371.977 220.839 372.867 221.026 373.68 221.406C374.381 221.747 374.963 222.291 375.348 222.967C375.751 223.708 375.951 224.542 375.929 225.385C375.954 226.236 375.757 227.08 375.358 227.833C374.977 228.512 374.395 229.057 373.692 229.394C372.875 229.773 371.981 229.958 371.08 229.933H368.471C368.322 229.941 368.174 229.92 368.034 229.869C367.895 229.819 367.767 229.74 367.659 229.639ZM370.911 228.02C371.796 228.02 372.447 227.803 372.905 227.371C373.363 226.939 373.569 226.275 373.569 225.385C373.569 224.494 373.348 223.836 372.905 223.408C372.463 222.979 371.796 222.762 370.911 222.762H369.761V228.02H370.911Z" fill="white"/>
<path d="M380.247 229.685C380.14 229.57 380.058 229.436 380.005 229.289C379.953 229.142 379.93 228.986 379.94 228.831V221.954C379.931 221.8 379.953 221.646 380.006 221.501C380.059 221.357 380.141 221.224 380.247 221.112C380.362 221.006 380.497 220.924 380.644 220.872C380.792 220.819 380.948 220.797 381.104 220.806C381.264 220.796 381.424 220.818 381.575 220.87C381.726 220.923 381.865 221.005 381.983 221.112C382.093 221.223 382.178 221.354 382.233 221.499C382.289 221.644 382.314 221.799 382.306 221.954V228.831C382.314 228.988 382.289 229.144 382.234 229.291C382.178 229.438 382.093 229.572 381.983 229.685C381.864 229.791 381.726 229.873 381.575 229.926C381.424 229.978 381.264 230 381.104 229.991C380.948 229.999 380.792 229.977 380.645 229.924C380.497 229.872 380.362 229.79 380.247 229.685V229.685Z" fill="white"/>
<path d="M395.367 228.944C395.368 229.082 395.337 229.218 395.277 229.343C395.218 229.467 395.131 229.577 395.023 229.663C394.811 229.86 394.532 229.969 394.242 229.969C394.051 229.971 393.863 229.917 393.701 229.816C393.53 229.703 393.396 229.542 393.314 229.354L392.733 228.044H388.551L387.958 229.345C387.88 229.529 387.749 229.685 387.581 229.794C387.414 229.903 387.217 229.96 387.017 229.957C386.724 229.956 386.442 229.847 386.224 229.651C386.114 229.566 386.025 229.457 385.963 229.332C385.901 229.208 385.869 229.071 385.868 228.932C385.871 228.767 385.911 228.605 385.985 228.457L389.39 221.492C389.497 221.267 389.671 221.08 389.888 220.956C390.11 220.832 390.361 220.769 390.616 220.772C390.869 220.771 391.119 220.834 391.341 220.956C391.56 221.078 391.736 221.265 391.842 221.492L395.25 228.457C395.326 228.609 395.366 228.775 395.367 228.944ZM389.353 226.272H391.934L390.644 223.408L389.353 226.272Z" fill="white"/>
</g>
<defs>
<clipPath id="clip0">
<rect width="139" height="80" fill="white" transform="translate(300 150)"/>
</clipPath>
</defs>
</svg>
