<svg width="500" height="500" viewBox="0 0 500 500" fill="none" xmlns="http://www.w3.org/2000/svg">
<path d="M23.8125 22.5938L17.7656 16.5469C17.6719 16.4531 17.5312 16.4062 17.3906 16.4062H16.875C18.5156 14.625 19.5 12.3281 19.5 9.75C19.5 4.40625 15.0938 0 9.75 0C4.35938 0 0 4.40625 0 9.75C0 15.1406 4.35938 19.5 9.75 19.5C12.2812 19.5 14.625 18.5156 16.3594 16.9219V17.3906C16.3594 17.5781 16.4062 17.7188 16.5 17.8125L22.5469 23.8594C22.7812 24.0938 23.1094 24.0938 23.3438 23.8594L23.8125 23.3906C24.0469 23.1562 24.0469 22.8281 23.8125 22.5938ZM9.75 18C5.15625 18 1.5 14.3438 1.5 9.75C1.5 5.20312 5.15625 1.5 9.75 1.5C14.2969 1.5 18 5.20312 18 9.75C18 14.3438 14.2969 18 9.75 18Z" fill="white"/>
<path d="M10 70C15.5242 70 20 65.5242 20 60C20 54.4758 15.5242 50 10 50C4.47581 50 0 54.4758 0 60C0 65.5242 4.47581 70 10 70ZM1.29032 60C1.29032 55.2419 5.16129 51.2903 10 51.2903C14.7581 51.2903 18.7097 55.2016 18.7097 60C18.7097 64.7984 14.7984 68.7097 10 68.7097C5.20161 68.7097 1.29032 64.8387 1.29032 60ZM14.6371 59.2742L7.54032 54.9597C6.89516 54.6371 6.12903 55.0806 6.12903 55.8065V64.1935C6.12903 64.9597 6.89516 65.4032 7.54032 65.0403L14.6371 60.9677C15.3226 60.6048 15.3226 59.6774 14.6371 59.2742ZM7.41935 63.2258V56.8145C7.41935 56.6532 7.62097 56.5323 7.78226 56.6129L13.1855 59.9194C13.3468 60 13.3468 60.2419 13.1855 60.3226L7.78226 63.4274C7.62097 63.5484 7.41935 63.4274 7.41935 63.2258Z" fill="black"/>
<path d="M20 139.375C30.7031 139.375 39.375 130.703 39.375 120C39.375 109.297 30.7031 100.625 20 100.625C9.29688 100.625 0.625 109.297 0.625 120C0.625 130.703 9.29688 139.375 20 139.375ZM3.125 120C3.125 110.781 10.625 103.125 20 103.125C29.2188 103.125 36.875 110.703 36.875 120C36.875 129.297 29.2969 136.875 20 136.875C10.7031 136.875 3.125 129.375 3.125 120ZM28.9844 118.594L15.2344 110.234C13.9844 109.609 12.5 110.469 12.5 111.875V128.125C12.5 129.609 13.9844 130.469 15.2344 129.766L28.9844 121.875C30.3125 121.172 30.3125 119.375 28.9844 118.594ZM15 126.25V113.828C15 113.516 15.3906 113.281 15.7031 113.438L26.1719 119.844C26.4844 120 26.4844 120.469 26.1719 120.625L15.7031 126.641C15.3906 126.875 15 126.641 15 126.25Z" fill="white"/>
<path d="M55.5781 65.3281C55.8125 65.5625 56.1406 65.5625 56.375 65.3281L61.8125 59.8438C62.0469 59.6094 62.0469 59.2344 61.8125 59.0469L61.4844 58.7188C61.25 58.4844 60.9219 58.4844 60.6875 58.7188L56 63.5L51.2656 58.6719C51.0312 58.4844 50.7031 58.4844 50.4688 58.6719L50.1406 59.0469C49.9062 59.2344 49.9062 59.6094 50.1406 59.8438L55.5781 65.3281Z" fill="black"/>
<path d="M62.3867 109.203C62.1523 108.969 61.8242 108.969 61.5898 109.203L56.1523 114.688C55.918 114.922 55.918 115.297 56.1523 115.484L56.4805 115.812C56.7148 116.047 57.043 116.047 57.2773 115.812L61.9648 111.031L66.6992 115.859C66.9336 116.047 67.2617 116.047 67.4961 115.859L67.8242 115.484C68.0586 115.297 68.0586 114.922 67.8242 114.688L62.3867 109.203Z" fill="white"/>
<path d="M263.844 55.0938L263.625 54.875C263.469 54.7188 263.25 54.7188 263.094 54.875L257 60.9688L250.875 54.875C250.719 54.7188 250.5 54.7188 250.344 54.875L250.125 55.0938C249.969 55.25 249.969 55.4688 250.125 55.625L256.719 62.2188C256.875 62.375 257.094 62.375 257.25 62.2188L263.844 55.625C264 55.4688 264 55.25 263.844 55.0938Z" fill="black"/>
<path d="M263.844 112.242L263.625 112.461C263.469 112.617 263.25 112.617 263.094 112.461L257 106.367L250.875 112.461C250.719 112.617 250.5 112.617 250.344 112.461L250.125 112.242C249.969 112.086 249.969 111.867 250.125 111.711L256.719 105.117C256.875 104.961 257.094 104.961 257.25 105.117L263.844 111.711C264 111.867 264 112.086 263.844 112.242Z" fill="black"/>
<path d="M369.554 59.183C370.149 58.6208 370.149 57.6525 369.554 57.0591L362.953 50.4685C362.702 50.2186 362.233 50 361.889 50H360.262L361.263 50.9995H361.889C361.983 50.9995 362.139 51.0932 362.233 51.1557L368.866 57.7775C369.054 57.9649 369.054 58.2772 368.866 58.4959L362.483 64.8677C362.264 65.0551 361.952 65.0551 361.764 64.8677L361.701 64.8053L361.013 65.5237L361.044 65.5549C361.639 66.1484 362.609 66.1484 363.172 65.5549L369.554 59.183ZM357.884 50.9995C357.978 50.9995 358.135 51.0932 358.228 51.1557L364.861 57.7775C365.049 57.9649 365.049 58.2772 364.861 58.4959L358.479 64.8677C358.26 65.0551 357.947 65.0551 357.759 64.8677L351.126 58.246C351.032 58.1523 351.001 58.0273 351.001 57.9024V51.4993C351.001 51.2494 351.22 50.9995 351.502 50.9995H357.884ZM357.884 50H351.502C350.657 50 350 50.6872 350 51.4993V57.9024C350 58.246 350.188 58.7145 350.438 58.9644L357.039 65.5549C357.634 66.1484 358.604 66.1484 359.167 65.5549L365.549 59.183C366.144 58.6208 366.144 57.6525 365.549 57.0591L358.948 50.4685C358.698 50.2186 358.228 50 357.884 50ZM354.505 53.8731C354.849 53.8731 355.131 54.1542 355.131 54.4978C355.131 54.8726 354.849 55.1225 354.505 55.1225C354.13 55.1225 353.88 54.8726 353.88 54.4978C353.88 54.1542 354.13 53.8731 354.505 53.8731ZM354.505 52.9985C353.661 52.9985 353.004 53.6857 353.004 54.4978C353.004 55.3411 353.661 55.9971 354.505 55.9971C355.319 55.9971 356.007 55.3411 356.007 54.4978C356.007 53.6857 355.319 52.9985 354.505 52.9985Z" fill="black"/>
<path d="M167.849 58.7042L167.567 58.4234C167.365 58.2228 167.083 58.2228 166.881 58.4234L159.705 65.5632V50.4813C159.705 50.2407 159.464 50 159.222 50H158.819C158.536 50 158.335 50.2407 158.335 50.4813V65.5632L151.119 58.4234C150.917 58.2228 150.635 58.2228 150.433 58.4234L150.151 58.7042C149.95 58.9047 149.95 59.1855 150.151 59.3861L158.657 67.8496C158.859 68.0501 159.141 68.0501 159.343 67.8496L167.849 59.3861C168.05 59.1855 168.05 58.9047 167.849 58.7042Z" fill="#0044E1"/>
<path d="M334.625 70H329V65.4286C329 62.9286 330.969 60.8571 333.5 60.8571H334.062C334.977 60.8571 335.75 60.1429 335.75 59.1429V55.7143C335.75 54.7857 334.977 54 334.062 54H333.5C327.242 54 322.25 59.1429 322.25 65.4286V82.5714C322.25 84.5 323.727 86 325.625 86H334.625C336.453 86 338 84.5 338 82.5714V73.4286C338 71.5714 336.453 70 334.625 70ZM314.375 70H308.75V65.4286C308.75 62.9286 310.719 60.8571 313.25 60.8571H313.812C314.727 60.8571 315.5 60.1429 315.5 59.1429V55.7143C315.5 54.7857 314.727 54 313.812 54H313.25C306.992 54 302 59.1429 302 65.4286V82.5714C302 84.5 303.477 86 305.375 86H314.375C316.203 86 317.75 84.5 317.75 82.5714V73.4286C317.75 71.5714 316.203 70 314.375 70Z" fill="#0044E1"/>
<path d="M212.25 50H201.75C200.766 50 200 50.793 200 51.75V59.625C200 60.6094 200.766 61.375 201.75 61.375H204.375V63.6719C204.375 63.8906 204.512 64 204.703 64C204.758 64 204.812 64 204.895 63.9453L208.312 61.375H212.25C213.207 61.375 214 60.6094 214 59.625V51.75C214 50.793 213.207 50 212.25 50ZM213.125 59.625C213.125 60.1172 212.715 60.5 212.25 60.5H208.012L207.766 60.6914L205.25 62.5781V60.5H201.75C201.258 60.5 200.875 60.1172 200.875 59.625V51.75C200.875 51.2852 201.258 50.875 201.75 50.875H212.25C212.715 50.875 213.125 51.2852 213.125 51.75V59.625ZM207 57.2188C206.617 57.2188 206.344 57.5195 206.344 57.875C206.344 58.2578 206.617 58.5312 207 58.5312C207.355 58.5312 207.656 58.2578 207.656 57.875C207.656 57.5195 207.355 57.2188 207 57.2188ZM206.754 56.5625H207.219C207.328 56.5625 207.438 56.4805 207.438 56.3711L207.629 53.3086C207.629 53.1719 207.547 53.0625 207.41 53.0625H206.562C206.426 53.0625 206.344 53.1719 206.344 53.3086L206.535 56.3711C206.535 56.4805 206.645 56.5625 206.754 56.5625Z" fill="black"/>
<path d="M70.7188 5.34375C70.8594 5.34375 71 5.25 71 5.0625V3.9375C71 3.79688 70.8594 3.65625 70.7188 3.65625H50.2812C50.0938 3.65625 50 3.79688 50 3.9375V5.0625C50 5.25 50.0938 5.34375 50.2812 5.34375H70.7188ZM70.7188 12.8438C70.8594 12.8438 71 12.75 71 12.5625V11.4375C71 11.2969 70.8594 11.1562 70.7188 11.1562H50.2812C50.0938 11.1562 50 11.2969 50 11.4375V12.5625C50 12.75 50.0938 12.8438 50.2812 12.8438H70.7188ZM70.7188 20.3438C70.8594 20.3438 71 20.25 71 20.0625V18.9375C71 18.7969 70.8594 18.6562 70.7188 18.6562H50.2812C50.0938 18.6562 50 18.7969 50 18.9375V20.0625C50 20.25 50.0938 20.3438 50.2812 20.3438H70.7188Z" fill="white"/>
<path d="M114.672 13.5C113.312 13.5 112.703 14.25 110.5 14.25C108.25 14.25 107.641 13.5 106.281 13.5C102.812 13.5 100 16.3594 100 19.8281V21.75C100 23.0156 100.984 24 102.25 24H118.75C119.969 24 121 23.0156 121 21.75V19.8281C121 16.3594 118.141 13.5 114.672 13.5ZM119.5 21.75C119.5 22.1719 119.125 22.5 118.75 22.5H102.25C101.828 22.5 101.5 22.1719 101.5 21.75V19.8281C101.5 17.1562 103.609 15 106.281 15C107.219 15 108.109 15.75 110.5 15.75C112.844 15.75 113.781 15 114.672 15C117.344 15 119.5 17.1562 119.5 19.8281V21.75ZM110.5 12C113.781 12 116.5 9.32812 116.5 6C116.5 2.71875 113.781 0 110.5 0C107.172 0 104.5 2.71875 104.5 6C104.5 9.32812 107.172 12 110.5 12ZM110.5 1.5C112.938 1.5 115 3.5625 115 6C115 8.48438 112.938 10.5 110.5 10.5C108.016 10.5 106 8.48438 106 6C106 3.5625 108.016 1.5 110.5 1.5Z" fill="white"/>
<path d="M113.781 61.625H100.875V52.2188C100.875 52.1094 100.766 52 100.656 52H100.219C100.082 52 100 52.1094 100 52.2188V62.0625C100 62.3086 100.191 62.5 100.438 62.5H113.781C113.891 62.5 114 62.418 114 62.2812V61.8438C114 61.7344 113.891 61.625 113.781 61.625ZM102.68 57.4688C102.598 57.5508 102.598 57.6875 102.68 57.7695L102.98 58.0703C103.062 58.1523 103.199 58.1523 103.281 58.0703L105.277 56.1016L107.602 58.4258C107.766 58.5898 108.039 58.5898 108.203 58.4258L110.773 55.8555L111.977 57.0586C112.113 57.1953 112.277 57.25 112.441 57.25C112.797 57.25 113.125 57.0039 113.125 56.5938V53.3398C113.125 53.0938 112.906 52.875 112.66 52.875H109.406C108.805 52.875 108.504 53.6133 108.941 54.0234L110.145 55.2539L107.902 57.4961L105.605 55.1719C105.414 55.0078 105.141 55.0078 104.977 55.1719L102.68 57.4688ZM109.898 53.75H112.25V56.1016L109.898 53.75Z" fill="white"/>
<path d="M159.047 12L163.875 7.21875L164.859 6.23438C165 6.09375 165 5.85938 164.859 5.67188L163.828 4.64062C163.641 4.5 163.406 4.5 163.266 4.64062L157.5 10.4531L151.688 4.64062C151.547 4.5 151.312 4.5 151.125 4.64062L150.094 5.67188C149.953 5.85938 149.953 6.09375 150.094 6.23438L155.906 12L150.094 17.8125C149.953 17.9531 149.953 18.1875 150.094 18.375L151.125 19.4062C151.312 19.5469 151.547 19.5469 151.688 19.4062L157.5 13.5938L162.281 18.4219L163.266 19.4062C163.406 19.5469 163.641 19.5469 163.828 19.4062L164.859 18.375C165 18.1875 165 17.9531 164.859 17.8125L159.047 12Z" fill="white"/>
<path d="M210.938 0.625H201.312C200.574 0.625 200 1.22656 200 1.9375V11.5625C200 12.3008 200.574 12.875 201.312 12.875H210.938C211.648 12.875 212.25 12.3008 212.25 11.5625V1.9375C212.25 1.22656 211.648 0.625 210.938 0.625ZM211.375 11.5625C211.375 11.8086 211.156 12 210.938 12H201.312C201.066 12 200.875 11.8086 200.875 11.5625V1.9375C200.875 1.71875 201.066 1.5 201.312 1.5H210.938C211.156 1.5 211.375 1.71875 211.375 1.9375V11.5625ZM209.871 2.78516L208.258 2.40234C208.203 2.40234 208.121 2.40234 208.066 2.40234C207.793 2.40234 207.465 2.62109 207.328 2.86719L206.59 4.58984C206.453 4.91797 206.562 5.32812 206.836 5.54688L207.492 6.09375C207.082 6.80469 206.152 7.73438 205.441 8.14453L204.895 7.48828C204.676 7.21484 204.266 7.10547 203.938 7.24219L202.215 7.98047C201.859 8.14453 201.668 8.52734 201.75 8.91016L202.133 10.5234C202.215 10.8789 202.543 11.125 202.926 11.125C207.109 11.125 210.5 7.76172 210.5 3.55078C210.5 3.19531 210.227 2.86719 209.871 2.78516ZM202.953 10.25L202.625 8.77344L204.238 8.08984L205.195 9.23828C206.891 8.44531 207.766 7.57031 208.586 5.84766L207.438 4.89062L208.121 3.27734L209.598 3.60547C209.57 7.26953 206.617 10.2227 202.953 10.25Z" fill="black"/>
<path d="M262.688 1.5H251.312C250.574 1.5 250 2.10156 250 2.8125V10.6875C250 11.4258 250.574 12 251.312 12H262.688C263.398 12 264 11.4258 264 10.6875V2.8125C264 2.10156 263.398 1.5 262.688 1.5ZM251.312 2.375H262.688C262.906 2.375 263.125 2.59375 263.125 2.8125V3.96094C262.523 4.45312 261.648 5.16406 258.996 7.26953C258.531 7.65234 257.629 8.52734 257 8.5C256.344 8.52734 255.441 7.65234 254.977 7.26953C252.324 5.16406 251.449 4.45312 250.875 3.96094V2.8125C250.875 2.59375 251.066 2.375 251.312 2.375ZM262.688 11.125H251.312C251.066 11.125 250.875 10.9336 250.875 10.6875V5.08203C251.477 5.60156 252.461 6.39453 254.43 7.95312C255.004 8.41797 255.988 9.40234 257 9.375C257.984 9.40234 258.969 8.41797 259.543 7.95312C261.512 6.39453 262.496 5.60156 263.125 5.08203V10.6875C263.125 10.9336 262.906 11.125 262.688 11.125Z" fill="black"/>
<path d="M307.008 1.85714C310.367 1.85714 313.126 3.97321 313.126 6.57143C313.126 9.16964 310.367 11.2857 307.008 11.2857C306.216 11.2857 305.451 11.1786 304.714 10.9643L304.304 10.8304L303.949 11.0714C303.321 11.5 302.365 12.0089 301.163 12.1429C301.491 11.7411 301.955 11.0446 302.256 10.2679L302.447 9.75893L302.092 9.38393C301.3 8.55357 300.89 7.58929 300.89 6.57143C300.89 3.97321 303.621 1.85714 307.008 1.85714ZM307.008 1C303.13 1 300.016 3.51786 300.016 6.57143C300.016 7.85714 300.535 9.03571 301.436 9.97321C301.054 11.0179 300.207 11.9286 300.18 11.9286C299.989 12.1161 299.962 12.3839 300.044 12.625C300.153 12.8661 300.399 13 300.644 13C302.338 13 303.649 12.3304 304.468 11.7679C305.26 12.0089 306.107 12.1429 307.008 12.1429C310.859 12.1429 314 9.65179 314 6.57143C314 3.51786 310.859 1 307.008 1Z" fill="white"/>
<path d="M360.429 8.75C359.652 8.75 358.955 9.10547 358.5 9.65234L355.929 8.01172C356.196 7.38281 356.196 6.64453 355.929 6.01562L358.5 4.375C358.955 4.92188 359.652 5.25 360.429 5.25C361.848 5.25 363 4.07422 363 2.625C363 1.17578 361.848 0 360.429 0C359.009 0 357.857 1.17578 357.857 2.625C357.857 2.98047 357.911 3.33594 358.045 3.63672L355.473 5.27734C355.018 4.73047 354.321 4.375 353.571 4.375C352.152 4.375 351 5.55078 351 7C351 8.44922 352.152 9.625 353.571 9.625C354.321 9.625 355.018 9.29688 355.473 8.75L358.045 10.3906C357.911 10.6914 357.857 11.0195 357.857 11.375C357.857 12.8242 359.009 14 360.429 14C361.848 14 363 12.8242 363 11.375C363 9.92578 361.848 8.75 360.429 8.75ZM360.429 0.875C361.366 0.875 362.143 1.66797 362.143 2.625C362.143 3.60938 361.366 4.375 360.429 4.375C359.464 4.375 358.714 3.60938 358.714 2.625C358.714 1.66797 359.464 0.875 360.429 0.875ZM353.571 8.75C352.607 8.75 351.857 7.98438 351.857 7C351.857 6.04297 352.607 5.25 353.571 5.25C354.509 5.25 355.286 6.04297 355.286 7C355.286 7.98438 354.509 8.75 353.571 8.75ZM360.429 13.125C359.464 13.125 358.714 12.3594 358.714 11.375C358.714 10.418 359.464 9.625 360.429 9.625C361.366 9.625 362.143 10.418 362.143 11.375C362.143 12.3594 361.366 13.125 360.429 13.125Z" fill="white"/>
<path d="M410.938 1.625H401.312C400.574 1.625 400 2.22656 400 2.9375V12.5625C400 13.3008 400.574 13.875 401.312 13.875H405.059V9.71875H403.336V7.75H405.059V6.27344C405.059 4.57812 406.07 3.62109 407.602 3.62109C408.367 3.62109 409.133 3.75781 409.133 3.75781V5.42578H408.285C407.438 5.42578 407.164 5.94531 407.164 6.49219V7.75H409.051L408.75 9.71875H407.164V13.875H410.938C411.648 13.875 412.25 13.3008 412.25 12.5625V2.9375C412.25 2.22656 411.648 1.625 410.938 1.625Z" fill="black"/>
<path d="M412.5 52H401.5C400.656 52 400 52.6875 400 53.5V64.5C400 65.3438 400.656 66 401.5 66H405.781V61.25H403.812V59H405.781V57.3125C405.781 55.375 406.938 54.2812 408.688 54.2812C409.562 54.2812 410.438 54.4375 410.438 54.4375V56.3438H409.469C408.5 56.3438 408.188 56.9375 408.188 57.5625V59H410.344L410 61.25H408.188V66H412.5C413.312 66 414 65.3438 414 64.5V53.5C414 52.6875 413.312 52 412.5 52Z" fill="white"/>
<path d="M371.429 100H352.571C351.125 100 350 101.179 350 102.571V121.429C350 122.875 351.125 124 352.571 124H359.911V115.857H356.536V112H359.911V109.107C359.911 105.786 361.893 103.911 364.893 103.911C366.393 103.911 367.893 104.179 367.893 104.179V107.446H366.232C364.571 107.446 364.036 108.464 364.036 109.536V112H367.732L367.143 115.857H364.036V124H371.429C372.821 124 374 122.875 374 121.429V102.571C374 101.179 372.821 100 371.429 100Z" fill="white"/>
<path d="M455.086 6.30078V9.25391L457.711 7.77734L455.086 6.30078ZM462.25 2.9375C462.25 2.22656 461.648 1.625 460.938 1.625H451.312C450.574 1.625 450 2.22656 450 2.9375V12.5625C450 13.3008 450.574 13.875 451.312 13.875H460.938C461.648 13.875 462.25 13.3008 462.25 12.5625V2.9375ZM461.102 7.77734C461.102 7.77734 461.102 9.39062 460.883 10.1836C460.773 10.6211 460.418 10.9492 460.008 11.0586C459.215 11.25 456.125 11.25 456.125 11.25C456.125 11.25 453.008 11.25 452.215 11.0586C451.805 10.9492 451.449 10.6211 451.34 10.1836C451.148 9.39062 451.148 7.77734 451.148 7.77734C451.148 7.77734 451.148 6.13672 451.34 5.37109C451.449 4.93359 451.805 4.57812 452.215 4.46875C453.008 4.25 456.125 4.25 456.125 4.25C456.125 4.25 459.215 4.25 460.008 4.46875C460.418 4.57812 460.773 4.93359 460.883 5.37109C461.102 6.13672 461.102 7.77734 461.102 7.77734Z" fill="black"/>
<path d="M465.25 57.9375C465.25 57.4375 465.188 57.0625 465.125 56.6562H457.75V59.3125H462.125C461.969 60.4688 460.812 62.6562 457.75 62.6562C455.094 62.6562 452.938 60.4688 452.938 57.75C452.938 53.4062 458.062 51.4062 460.812 54.0625L462.938 52.0312C461.594 50.7812 459.812 50 457.75 50C453.438 50 450 53.4688 450 57.75C450 62.0625 453.438 65.5 457.75 65.5C462.219 65.5 465.25 62.375 465.25 57.9375Z" fill="white"/>
<path d="M475.734 102.859C475.453 101.734 474.562 100.844 473.484 100.562C471.469 100 463.5 100 463.5 100C463.5 100 455.484 100 453.469 100.562C452.391 100.844 451.5 101.734 451.219 102.859C450.656 104.828 450.656 109.047 450.656 109.047C450.656 109.047 450.656 113.219 451.219 115.234C451.5 116.359 452.391 117.203 453.469 117.484C455.484 118 463.5 118 463.5 118C463.5 118 471.469 118 473.484 117.484C474.562 117.203 475.453 116.359 475.734 115.234C476.297 113.219 476.297 109.047 476.297 109.047C476.297 109.047 476.297 104.828 475.734 102.859ZM460.875 112.844V105.25L467.531 109.047L460.875 112.844Z" fill="#F44336"/>
<path d="M423.473 105.701C423.21 104.638 422.377 103.797 421.367 103.531C419.481 103 412.022 103 412.022 103C412.022 103 404.519 103 402.633 103.531C401.623 103.797 400.79 104.638 400.527 105.701C400 107.56 400 111.544 400 111.544C400 111.544 400 115.484 400.527 117.388C400.79 118.451 401.623 119.247 402.633 119.513C404.519 120 412.022 120 412.022 120C412.022 120 419.481 120 421.367 119.513C422.377 119.247 423.21 118.451 423.473 117.388C424 115.484 424 111.544 424 111.544C424 111.544 424 107.56 423.473 105.701ZM409.565 115.13V107.958L415.795 111.544L409.565 115.13Z" fill="white"/>
</svg>
