<svg xmlns="http://www.w3.org/2000/svg" width="500" height="500" fill="none" xmlns:v="https://vecta.io/nano"><path d="M23.813 22.594l-6.047-6.047c-.094-.094-.234-.14-.375-.14h-.516c1.64-1.78 2.625-4.078 2.625-6.656C19.5 4.406 15.094 0 9.75 0 4.36 0 0 4.406 0 9.75c0 5.39 4.36 9.75 9.75 9.75 2.53 0 4.875-.984 6.61-2.578v.47c0 .188.047.328.14.422l6.047 6.047c.234.234.563.234.797 0l.47-.47c.234-.234.234-.562 0-.797zM9.75 18A8.2 8.2 0 0 1 1.5 9.75c0-4.547 3.656-8.25 8.25-8.25C14.297 1.5 18 5.203 18 9.75 18 14.344 14.297 18 9.75 18z" fill="#fff"/><path d="M10 70a10 10 0 1 0 0-20 10 10 0 1 0 0 20zM1.3 60c0-4.758 3.87-8.7 8.7-8.7 4.758 0 8.7 3.91 8.7 8.7s-3.91 8.7-8.7 8.7A8.7 8.7 0 0 1 1.29 60zm13.347-.726L7.54 54.96c-.645-.323-1.41.12-1.41.847v8.387c0 .766.766 1.2 1.41.847l7.097-4.073c.685-.363.685-1.3 0-1.694zM7.42 63.226v-6.41c0-.16.202-.282.363-.202l5.403 3.307a.23.23 0 0 1 0 .403l-5.403 3.105c-.16.12-.363 0-.363-.202z" fill="#000"/><path d="M20 139.375c10.703 0 19.375-8.672 19.375-19.375S30.703 100.625 20 100.625.625 109.297.625 120 9.297 139.375 20 139.375zM3.125 120c0-9.22 7.5-16.875 16.875-16.875 9.22 0 16.875 7.578 16.875 16.875S29.297 136.875 20 136.875 3.125 129.375 3.125 120zm25.86-1.406l-13.75-8.36c-1.25-.625-2.734.235-2.734 1.64v16.25c0 1.484 1.484 2.344 2.734 1.64l13.75-7.89c1.328-.703 1.328-2.5 0-3.28zM15 126.25v-12.422c0-.312.39-.547.703-.4l10.47 6.406c.313.156.313.625 0 .78l-10.47 6.016c-.312.234-.703 0-.703-.39z" fill="#fff"/><path d="M55.578 65.328c.234.234.563.234.797 0l5.438-5.484c.234-.234.234-.61 0-.797l-.328-.328c-.234-.234-.562-.234-.797 0L56 63.5l-4.734-4.828c-.234-.187-.562-.187-.797 0l-.328.375c-.234.188-.234.563 0 .797l5.438 5.484z" fill="#000"/><path d="M62.387 109.203a.54.54 0 0 0-.797 0l-5.437 5.485c-.234.234-.234.61 0 .796l.328.328c.234.235.563.235.797 0l4.688-4.78 4.734 4.828c.234.188.563.188.797 0l.328-.375c.234-.187.234-.562 0-.796l-5.438-5.485z" fill="#fff"/><path d="M263.844 55.094l-.22-.22c-.156-.156-.375-.156-.53 0L257 60.97l-6.125-6.094c-.156-.156-.375-.156-.53 0l-.22.22a.36.36 0 0 0 0 .531l6.594 6.594c.156.156.375.156.53 0l6.594-6.594a.36.36 0 0 0 0-.531zm0 57.148l-.22.22a.36.36 0 0 1-.531 0L257 106.367l-6.125 6.094a.36.36 0 0 1-.531 0l-.22-.22a.36.36 0 0 1 0-.531l6.594-6.594a.36.36 0 0 1 .531 0l6.594 6.594a.36.36 0 0 1 0 .531z" fill="#000"/><path d="M204.355 164.882l-.23-.22c-.165-.157-.165-.376 0-.533l6.433-6.114-6.433-6.146c-.165-.157-.165-.376 0-.533l.23-.22a.39.39 0 0 1 .56 0l6.96 6.615c.165.157.165.377 0 .534l-6.96 6.615a.39.39 0 0 1-.56 0zm57.3 0l.23-.22c.165-.157.165-.376 0-.533l-6.433-6.114 6.433-6.146c.165-.157.165-.376 0-.533l-.23-.22a.39.39 0 0 0-.56 0l-6.96 6.615c-.165.157-.165.377 0 .534l6.96 6.615a.39.39 0 0 0 .56 0z" fill="#999"/><path d="M369.554 59.183c.595-.562.595-1.53 0-2.124l-6.6-6.59c-.25-.25-.72-.468-1.064-.468h-1.627l1 1h.626c.094 0 .25.094.344.156l6.633 6.622c.188.187.188.5 0 .718l-6.383 6.372c-.22.187-.53.187-.72 0l-.063-.062-.688.718.03.03c.595.593 1.565.593 2.128 0l6.382-6.372zM357.884 51c.094 0 .25.094.344.156l6.633 6.622c.188.187.188.5 0 .718l-6.382 6.372c-.22.187-.532.187-.72 0l-6.633-6.622c-.094-.094-.125-.22-.125-.344V51.5c0-.25.22-.5.5-.5h6.382zm0-1h-6.382A1.5 1.5 0 0 0 350 51.499v6.403a1.7 1.7 0 0 0 .438 1.062l6.6 6.59c.595.593 1.565.593 2.128 0l6.382-6.372c.595-.562.595-1.53 0-2.124l-6.6-6.59c-.25-.25-.72-.468-1.064-.468zm-3.38 3.873a.63.63 0 0 1 .626.625c0 .375-.282.625-.626.625-.375 0-.625-.25-.625-.625 0-.344.25-.625.625-.625zm0-.875a1.5 1.5 0 0 0-1.501 1.499 1.48 1.48 0 0 0 1.501 1.499 1.5 1.5 0 0 0 1.502-1.499c0-.812-.688-1.5-1.502-1.5z" fill="#000"/><path d="M167.85 58.704l-.282-.28c-.202-.2-.484-.2-.686 0l-7.176 7.14V50.48a.52.52 0 0 0-.483-.481h-.403a.49.49 0 0 0-.484.481v15.082l-7.216-7.14c-.202-.2-.484-.2-.686 0l-.282.28a.46.46 0 0 0 0 .682l8.506 8.463c.202.2.484.2.686 0l8.506-8.463a.46.46 0 0 0 0-.682zM334.625 70H329v-4.57c0-2.5 1.97-4.57 4.5-4.57h.562c.915 0 1.688-.714 1.688-1.714v-3.43c0-.93-.773-1.714-1.688-1.714h-.562c-6.258 0-11.25 5.143-11.25 11.43V82.57c0 1.93 1.477 3.43 3.375 3.43h9c1.828 0 3.375-1.5 3.375-3.43v-9.14c0-1.857-1.547-3.43-3.375-3.43zm-20.25 0h-5.625v-4.57c0-2.5 1.97-4.57 4.5-4.57h.562c.915 0 1.688-.714 1.688-1.714v-3.43c0-.93-.773-1.714-1.688-1.714h-.562C306.992 54 302 59.143 302 65.43v17.14c0 1.93 1.477 3.43 3.375 3.43h9c1.828 0 3.375-1.5 3.375-3.43v-9.14c0-1.857-1.547-3.43-3.375-3.43z" fill="#0044e1"/><path d="M212.25 50h-10.5c-.984 0-1.75.793-1.75 1.75v7.875c0 .984.766 1.75 1.75 1.75h2.625v2.297a.3.3 0 0 0 .328.328c.055 0 .11 0 .192-.055l3.417-2.57h3.938c.957 0 1.75-.766 1.75-1.75V51.75c0-.957-.793-1.75-1.75-1.75zm.875 9.625a.88.88 0 0 1-.875.875h-4.238l-.246.19-2.516 1.887V60.5h-3.5c-.492 0-.875-.383-.875-.875V51.75a.88.88 0 0 1 .875-.875h10.5a.9.9 0 0 1 .875.875v7.875zM207 57.22c-.383 0-.656.3-.656.656a.63.63 0 0 0 .656.656c.355 0 .656-.273.656-.656 0-.355-.3-.656-.656-.656zm-.246-.656h.465c.11 0 .22-.082.22-.19l.19-3.062c0-.137-.082-.246-.22-.246h-.848c-.136 0-.218.11-.218.246l.19 3.063c0 .11.1.19.22.19z" fill="#000"/><path d="M70.72 5.344c.14 0 .28-.094.28-.28V3.938c0-.14-.14-.28-.28-.28H50.28c-.187 0-.28.14-.28.28v1.125c0 .188.094.28.28.28h20.44zm0 7.5c.14 0 .28-.094.28-.28V11.44c0-.14-.14-.28-.28-.28H50.28a.27.27 0 0 0-.281.281v1.125c0 .188.094.28.28.28h20.44zm0 7.5c.14 0 .28-.094.28-.28V18.94c0-.14-.14-.28-.28-.28H50.28a.27.27 0 0 0-.281.281v1.125c0 .188.094.28.28.28h20.44zm43.952-6.844c-1.36 0-1.97.75-4.172.75-2.25 0-2.86-.75-4.22-.75-3.47 0-6.28 2.86-6.28 6.328v1.922a2.22 2.22 0 0 0 2.25 2.25h16.5a2.25 2.25 0 0 0 2.25-2.25v-1.922c0-3.47-2.86-6.328-6.328-6.328zm4.828 8.25c0 .422-.375.75-.75.75h-16.5a.74.74 0 0 1-.75-.75v-1.922c0-2.672 2.1-4.828 4.78-4.828.938 0 1.828.75 4.22.75 2.344 0 3.28-.75 4.172-.75a4.82 4.82 0 0 1 4.828 4.828v1.922zm-9-9.75c3.28 0 6-2.672 6-6 0-3.28-2.72-6-6-6-3.328 0-6 2.72-6 6a5.98 5.98 0 0 0 6 6zm0-10.5c2.438 0 4.5 2.063 4.5 4.5 0 2.484-2.062 4.5-4.5 4.5-2.484 0-4.5-2.016-4.5-4.5 0-2.437 2.016-4.5 4.5-4.5zm3.28 60.125h-12.906V52.22c0-.1-.1-.22-.22-.22h-.437c-.137 0-.22.1-.22.22v9.844a.43.43 0 0 0 .438.438h13.343c.1 0 .22-.082.22-.22v-.437c0-.1-.1-.22-.22-.22zm-11.1-4.156c-.082.082-.082.22 0 .3l.3.3c.082.082.22.082.3 0l1.996-1.97 2.325 2.324a.43.43 0 0 0 .601 0l2.57-2.57 1.204 1.203c.136.137.3.2.464.2.356 0 .684-.246.684-.656v-3.25a.48.48 0 0 0-.465-.465h-3.254a.67.67 0 0 0-.465 1.148l1.204 1.23-2.243 2.242-2.297-2.324c-.2-.164-.464-.164-.628 0l-2.297 2.297zm7.218-3.72h2.352V56.1l-2.352-2.352zM159.047 12l5.812-5.766c.14-.14.14-.375 0-.562l-1.03-1.03c-.187-.14-.422-.14-.562 0l-5.766 5.812-5.812-5.812c-.14-.14-.376-.14-.563 0l-1.03 1.03c-.14.188-.14.422 0 .563l5.8 5.765-5.812 5.813c-.14.14-.14.375 0 .563l1.03 1.03c.187.14.422.14.563 0l5.812-5.812 4.78 4.828.985.984c.14.14.375.14.562 0l1.03-1.03c.14-.187.14-.422 0-.562L159.047 12z" fill="#fff"/><path d="M210.938.625h-9.626c-.738 0-1.312.602-1.312 1.313v9.625c0 .738.574 1.313 1.312 1.313h9.626a1.32 1.32 0 0 0 1.312-1.312V1.938c0-.7-.602-1.312-1.312-1.312zm.437 10.938a.45.45 0 0 1-.437.438h-9.626a.43.43 0 0 1-.437-.437V1.938a.45.45 0 0 1 .437-.437h9.626c.218 0 .437.22.437.438v9.625zm-1.504-8.777l-1.613-.383h-.192c-.273 0-.6.22-.738.465L206.6 4.6c-.137.328-.028.738.246.957l.656.547c-.4.7-1.34 1.64-2.05 2.05l-.546-.656a.85.85 0 0 0-.957-.246L202.226 8a.83.83 0 0 0-.465.93l.383 1.613c.082.355.4.602.793.602 4.183 0 7.574-3.363 7.574-7.574 0-.355-.273-.684-.63-.766zm-6.918 7.465l-.328-1.477 1.613-.684.957 1.148c1.696-.793 2.57-1.668 3.4-3.4l-1.148-.957.683-1.613 1.477.328a6.69 6.69 0 0 1-6.645 6.645zm59.735-8.75h-11.376c-.738 0-1.312.602-1.312 1.313v7.875c0 .738.574 1.313 1.312 1.313h11.376A1.32 1.32 0 0 0 264 10.689V2.813c0-.7-.602-1.312-1.312-1.312zm-11.376.875h11.376c.218 0 .437.22.437.438V3.96l-4.13 3.3c-.465.383-1.367 1.258-1.996 1.23-.656.027-1.56-.848-2.023-1.23l-4.102-3.3V2.813a.45.45 0 0 1 .437-.437zm11.376 8.75h-11.376a.43.43 0 0 1-.437-.437V5.082l3.555 2.87c.574.465 1.558 1.45 2.57 1.422.984.027 1.97-.957 2.543-1.422l3.582-2.87v5.605a.45.45 0 0 1-.437.438z" fill="#000"/><path d="M307.008 1.857c3.36 0 6.118 2.116 6.118 4.714s-2.76 4.714-6.118 4.714c-.792 0-1.557-.107-2.294-.32l-.4-.134-.355.24c-.628.43-1.584.938-2.786 1.07a7.36 7.36 0 0 0 1.093-1.875l.2-.5-.355-.375c-.792-.83-1.202-1.795-1.202-2.812 0-2.598 2.73-4.714 6.118-4.714zm0-.857c-3.878 0-6.992 2.518-6.992 5.57 0 1.286.52 2.464 1.42 3.402a6.03 6.03 0 0 1-1.256 1.955c-.2.188-.218.455-.136.696.1.24.355.375.6.375 1.694 0 3.005-.67 3.824-1.232a8.72 8.72 0 0 0 2.54.375c3.85 0 6.992-2.5 6.992-5.57 0-3.054-3.14-5.57-6.992-5.57zm53.422 7.75a2.51 2.51 0 0 0-1.929.902l-2.57-1.64a2.59 2.59 0 0 0 0-1.996l2.57-1.64c.455.547 1.152.875 1.93.875 1.42 0 2.57-1.176 2.57-2.625S361.848 0 360.43 0s-2.572 1.176-2.572 2.625c0 .355.054.7.188 1.012l-2.572 1.64c-.455-.547-1.152-.902-1.902-.902-1.42 0-2.57 1.176-2.57 2.625s1.152 2.625 2.57 2.625c.75 0 1.447-.328 1.902-.875l2.572 1.64c-.134.3-.188.63-.188.984 0 1.45 1.152 2.625 2.572 2.625s2.57-1.176 2.57-2.625-1.152-2.625-2.57-2.625zm0-7.875c.937 0 1.714.793 1.714 1.75 0 .984-.777 1.75-1.714 1.75-.965 0-1.715-.766-1.715-1.75 0-.957.75-1.75 1.715-1.75zm-6.86 7.875c-.964 0-1.714-.766-1.714-1.75 0-.957.75-1.75 1.714-1.75.938 0 1.715.793 1.715 1.75 0 .984-.777 1.75-1.715 1.75zm6.858 4.375c-.965 0-1.715-.766-1.715-1.75 0-.957.75-1.75 1.715-1.75.937 0 1.714.793 1.714 1.75 0 .984-.777 1.75-1.714 1.75z" fill="#fff"/><path d="M11.43 159.75a2.51 2.51 0 0 0-1.929.902l-2.57-1.64a2.58 2.58 0 0 0 0-1.996l2.57-1.64c.455.547 1.152.875 1.93.875 1.42 0 2.57-1.176 2.57-2.625S12.848 151 11.43 151s-2.57 1.176-2.57 2.625c0 .355.054.71.188 1.012l-2.57 1.64c-.455-.547-1.152-.902-1.902-.902-1.42 0-2.57 1.176-2.57 2.625s1.152 2.625 2.57 2.625c.75 0 1.446-.328 1.902-.875l2.57 1.64c-.134.3-.187.63-.187.984 0 1.45 1.152 2.625 2.57 2.625s2.57-1.176 2.57-2.625-1.152-2.625-2.57-2.625zm0-7.875c.938 0 1.714.793 1.714 1.75 0 .984-.777 1.75-1.714 1.75-.964 0-1.714-.766-1.714-1.75 0-.957.75-1.75 1.714-1.75zM4.57 159.75c-.964 0-1.714-.766-1.714-1.75 0-.957.75-1.75 1.714-1.75.938 0 1.714.793 1.714 1.75 0 .984-.777 1.75-1.714 1.75zm6.857 4.375c-.964 0-1.714-.766-1.714-1.75 0-.957.75-1.75 1.714-1.75.938 0 1.714.793 1.714 1.75 0 .984-.777 1.75-1.714 1.75z" fill="#999"/><path d="M410.938 1.625h-9.626c-.738 0-1.312.602-1.312 1.313v9.625c0 .738.574 1.313 1.312 1.313h3.747V9.72h-1.723V7.75h1.723V6.273c0-1.695 1.01-2.652 2.543-2.652a9.99 9.99 0 0 1 1.531.137v1.668h-.848c-.847 0-1.12.52-1.12 1.066V7.75h1.887l-.3 1.97h-1.586v4.156h3.774c.7 0 1.312-.574 1.312-1.312V2.938c0-.71-.602-1.312-1.312-1.312z" fill="#000"/><path d="M412.5 52h-11a1.5 1.5 0 0 0-1.5 1.5v11a1.48 1.48 0 0 0 1.5 1.5h4.28v-4.75h-1.97V59h1.97v-1.687c0-1.937 1.157-3.03 2.907-3.03.874 0 1.75.156 1.75.156v1.906h-.97c-.97 0-1.28.594-1.28 1.22V59h2.156L410 61.25h-1.812V66h4.312a1.5 1.5 0 0 0 1.5-1.5v-11c0-.812-.688-1.5-1.5-1.5zm-41.07 48h-18.86c-1.446 0-2.57 1.18-2.57 2.57v18.858c0 1.446 1.125 2.57 2.57 2.57h7.34v-8.143h-3.375V112h3.375v-2.893c0-3.32 1.982-5.196 4.982-5.196 1.5 0 3 .268 3 .268v3.267h-1.66c-1.66 0-2.196 1.018-2.196 2.1V112h3.696l-.6 3.857h-3.107V124h7.393c1.392 0 2.57-1.125 2.57-2.57v-18.86a2.61 2.61 0 0 0-2.571-2.571z" fill="#fff"/><path d="M455.086 6.3v2.953l2.625-1.477-2.625-1.477zm7.164-3.363c0-.71-.602-1.312-1.312-1.312h-9.626c-.738 0-1.312.602-1.312 1.313v9.625c0 .738.574 1.313 1.312 1.313h9.626c.7 0 1.312-.574 1.312-1.312V2.938zm-1.148 4.84s0 1.613-.22 2.406c-.1.438-.465.766-.875.875-.793.19-3.883.19-3.883.19s-3.117 0-3.9-.19a1.23 1.23 0 0 1-.875-.875c-.192-.793-.192-2.406-.192-2.406s0-1.64.192-2.406a1.27 1.27 0 0 1 .875-.902c.793-.22 3.9-.22 3.9-.22s3.1 0 3.883.22a1.27 1.27 0 0 1 .875.902c.22.766.22 2.406.22 2.406z" fill="#000"/><path d="M465.25 57.938c0-.5-.062-.875-.125-1.28h-7.375v2.656h4.375c-.156 1.156-1.313 3.344-4.375 3.344-2.656 0-4.812-2.187-4.812-4.906 0-4.344 5.124-6.344 7.874-3.687l2.126-2.03c-1.344-1.25-3.126-2.03-5.188-2.03a7.73 7.73 0 0 0-7.75 7.75 7.71 7.71 0 0 0 7.75 7.75c4.47 0 7.5-3.125 7.5-7.562z" fill="#fff"/><path d="M475.734 102.86a3.19 3.19 0 0 0-2.25-2.297C471.47 100 463.5 100 463.5 100s-8.016 0-10.03.562a3.19 3.19 0 0 0-2.25 2.297c-.563 1.97-.563 6.188-.563 6.188s0 4.172.563 6.187c.28 1.125 1.172 1.97 2.25 2.25 2.015.516 10.03.516 10.03.516s7.97 0 9.984-.516c1.078-.28 1.97-1.125 2.25-2.25.563-2.015.563-6.187.563-6.187s0-4.22-.563-6.188zm-14.86 9.985v-7.594l6.656 3.797-6.656 3.797z" fill="#f44336"/><path d="M423.473 105.7c-.263-1.063-1.096-1.904-2.106-2.17-1.886-.53-9.345-.53-9.345-.53s-7.503 0-9.39.53c-1 .266-1.843 1.107-2.106 2.17-.527 1.86-.527 5.843-.527 5.843s0 3.94.527 5.844c.263 1.063 1.096 1.86 2.106 2.125 1.886.487 9.39.487 9.39.487s7.46 0 9.345-.487c1-.266 1.843-1.062 2.106-2.125.527-1.904.527-5.844.527-5.844s0-3.984-.527-5.843zm-13.908 9.43v-7.172l6.23 3.586-6.23 3.586z" fill="#fff"/><path d="M109.598 157a.36.36 0 0 0 .375-.375v-.25a.38.38 0 0 0-.375-.375h-6.253c-.187 0-.375.188-.375.375v.25a.38.38 0 0 0 .375.375h6.253zm6.284 8.53c.156-.125.156-.375 0-.53l-4.033-4.03c-.063-.063-.157-.094-.282-.094h-.25c1.032-1.156 1.7-2.687 1.7-4.375 0-3.562-2.877-6.437-6.44-6.5-3.658-.03-6.627 2.938-6.565 6.594.03 3.562 2.907 6.406 6.503 6.406 1.657 0 3.2-.625 4.345-1.656v.25a.38.38 0 0 0 .125.28l4.033 4.03c.125.125.376.125.532 0l.344-.375zm-3.877-9.03a5.49 5.49 0 0 1-5.502 5.5 5.47 5.47 0 0 1-5.503-5.5 5.49 5.49 0 0 1 5.503-5.5 5.51 5.51 0 0 1 5.502 5.5zm47.97-.125a.38.38 0 0 0-.375-.375h-2.626v-2.625c0-.187-.157-.375-.375-.375h-.25c-.187 0-.375.188-.375.375V156h-2.626c-.187 0-.375.188-.375.375v.25a.38.38 0 0 0 .375.375h2.626v2.625a.38.38 0 0 0 .375.375h.25a.36.36 0 0 0 .375-.375V157h2.626a.36.36 0 0 0 .375-.375v-.25zm5.9 9.156c.156-.125.156-.375 0-.53l-4.033-4.03c-.063-.063-.157-.094-.282-.094h-.25c1.032-1.156 1.7-2.687 1.7-4.375 0-3.562-2.877-6.437-6.44-6.5-3.658-.03-6.628 2.938-6.565 6.594.03 3.562 2.907 6.406 6.503 6.406 1.657 0 3.2-.625 4.345-1.656v.25a.38.38 0 0 0 .125.28l4.033 4.03c.125.125.376.125.532 0l.344-.375zm-3.877-9.03a5.49 5.49 0 0 1-5.502 5.5 5.47 5.47 0 0 1-5.503-5.5 5.49 5.49 0 0 1 5.503-5.5 5.51 5.51 0 0 1 5.502 5.5zm-97.382-.5a.38.38 0 0 0 .375-.375v-.25c0-.187-.187-.375-.375-.375H61v-3.625c0-.187-.187-.375-.375-.375h-.25a.38.38 0 0 0-.375.375v3.875a.72.72 0 0 0 .75.75h3.875zM56 155.25v-3.875c0-.187-.187-.375-.375-.375h-.25a.38.38 0 0 0-.375.375V155h-3.625a.38.38 0 0 0-.375.375v.25a.36.36 0 0 0 .375.375h3.875a.74.74 0 0 0 .75-.75zm0 9.375v-3.875a.76.76 0 0 0-.75-.75h-3.875a.38.38 0 0 0-.375.375v.25a.36.36 0 0 0 .375.375H55v3.625a.36.36 0 0 0 .375.375h.25a.38.38 0 0 0 .375-.375zm5 0V161h3.625a.38.38 0 0 0 .375-.375v-.25c0-.187-.187-.375-.375-.375H60.75a.74.74 0 0 0-.75.75v3.875a.36.36 0 0 0 .375.375h.25a.38.38 0 0 0 .375-.375z" fill="#999"/><path d="M55.078 219.05H52.8v-3.086h-8.024v3.086h-2.28v-6.285a6.65 6.65 0 0 1 .473-2.536c.298-.745.744-1.42 1.313-1.988a6.07 6.07 0 0 1 1.992-1.301 6.64 6.64 0 0 1 2.508-.464h5.125a1.16 1.16 0 0 1 .45.09 1.14 1.14 0 0 1 .613.614c.06.142.088.295.086.45l.023 11.422zm-10.3-5.38h8.016v-4.914h-4.008c-.07 0-.22 0-.44.03a4.39 4.39 0 0 0-.78.152 4.69 4.69 0 0 0-.934.39 3.31 3.31 0 0 0-.906.699 3.58 3.58 0 0 0-.68 1.12 4.44 4.44 0 0 0-.266 1.625v.895zm25.262 4.232a1.17 1.17 0 0 1-.086.457 1.07 1.07 0 0 1-.246.364 1.23 1.23 0 0 1-.367.242 1.17 1.17 0 0 1-.449.086h-5.137a7.2 7.2 0 0 1-1.477-.156c-.498-.105-.982-.27-1.44-.5-.47-.22-.9-.497-1.3-.828a5.4 5.4 0 0 1-1.074-1.207 5.86 5.86 0 0 1-.727-1.594 7.26 7.26 0 0 1-.262-2.004v-6.296h2.3v6.3a4.42 4.42 0 0 0 .266 1.629 3.71 3.71 0 0 0 .68 1.117 3.39 3.39 0 0 0 .902.7c.297.162.6.293.934.4a4.42 4.42 0 0 0 .781.152c.227 0 .4.03.445.03h4.004v-10.308h2.28l-.02 11.425zm14-9.144h-5.023v10.293h-2.28v-10.293h-5.03v-2.28H84.05v2.28zm14.696 5.207a5.47 5.47 0 0 1-.391 2.113c-.246.625-.617 1.192-1.092 1.666s-1.042.846-1.666 1.092a5.47 5.47 0 0 1-2.1.39H90.41a5.56 5.56 0 0 1-2.098-.39 4.79 4.79 0 0 1-1.664-1.1 5.05 5.05 0 0 1-1.113-1.668 5.47 5.47 0 0 1-.391-2.113v-2.403c-.01-.72.123-1.436.4-2.105a4.97 4.97 0 0 1 1.102-1.668c.477-.47 1.043-.84 1.664-1.1.667-.266 1.38-.4 2.098-.4h3.086a5.38 5.38 0 0 1 2.09.39 5.05 5.05 0 0 1 1.68 1.09 4.91 4.91 0 0 1 1.094 1.668 5.47 5.47 0 0 1 .391 2.105l-.004 2.403zm-2.262-2.403a3.39 3.39 0 0 0-.215-1.222c-.133-.352-.34-.672-.605-.938a2.65 2.65 0 0 0-.937-.605 3.36 3.36 0 0 0-1.207-.215h-3.086a3.36 3.36 0 0 0-1.215.215 2.77 2.77 0 0 0-.937.605 2.64 2.64 0 0 0-.61.938 3.37 3.37 0 0 0-.215 1.222v2.403a3.31 3.31 0 0 0 .215 1.226c.134.353.34.673.6.938s.6.47.94.605a3.36 3.36 0 0 0 1.215.215h3.07a3.34 3.34 0 0 0 1.211-.215c.352-.136.674-.342.945-.605.265-.267.473-.586.6-.938a3.38 3.38 0 0 0 .215-1.226l-.004-2.403zM57.367 233.02h-2.3v-7.5l-4.047 7.114a1.01 1.01 0 0 1-.418.41 1.22 1.22 0 0 1-.574.14 1.17 1.17 0 0 1-.559-.14 1.01 1.01 0 0 1-.391-.41l-4.074-7.114v7.5h-2.28v-11.602a1.14 1.14 0 0 1 .234-.715 1.13 1.13 0 0 1 .605-.391 1.35 1.35 0 0 1 .391-.031c.122.01.242.038.355.082s.218.104.3.184a1.13 1.13 0 0 1 .238.285l5.172 9.012 5.2-9.02a1.12 1.12 0 0 1 .555-.476c.237-.093.496-.108.742-.043a1.14 1.14 0 0 1 .605.398c.155.2.238.446.234.7v11.618zm15.848-5.086a5.56 5.56 0 0 1-.391 2.113c-.247.625-.62 1.193-1.094 1.67a4.93 4.93 0 0 1-1.667 1.097c-.666.266-1.377.398-2.094.4h-3.086c-.717.008-1.428-.124-2.094-.4a4.85 4.85 0 0 1-1.668-1.1 5.11 5.11 0 0 1-1.102-1.668 5.49 5.49 0 0 1-.391-2.114v-2.4a5.51 5.51 0 0 1 .391-2.109 4.95 4.95 0 0 1 1.101-1.664 4.96 4.96 0 0 1 1.668-1.094 5.48 5.48 0 0 1 2.094-.39h3.086c.717-.007 1.428.125 2.094.4.62.252 1.184.623 1.66 1.094a4.97 4.97 0 0 1 1.098 1.68 5.58 5.58 0 0 1 .391 2.109l.004 2.387zm-2.28-2.403a3.29 3.29 0 0 0-.215-1.222 2.66 2.66 0 0 0-.606-.938 2.69 2.69 0 0 0-.937-.605c-.385-.148-.795-.22-1.207-.215h-3.086c-.415-.006-.827.067-1.215.215a2.73 2.73 0 0 0-.941.605 2.67 2.67 0 0 0-.609.938 3.29 3.29 0 0 0-.215 1.222v2.403a3.29 3.29 0 0 0 .215 1.222 2.66 2.66 0 0 0 .612.951c.27.27.594.478.95.612.388.148.8.22 1.215.215h3.074c.415.005.827-.067 1.215-.215.357-.134.68-.342.95-.612a2.66 2.66 0 0 0 .612-.951 3.29 3.29 0 0 0 .215-1.222l-.027-2.403zm15.72-2.804H81.64v10.293h-2.28v-10.293h-5.04v-2.282h12.336v2.282zm14.696 5.207c.008.723-.125 1.44-.4 2.113a4.92 4.92 0 0 1-1.094 1.669 4.93 4.93 0 0 1-1.667 1.097c-.67.267-1.385.4-2.105.4H93c-.718.007-1.43-.125-2.098-.4a4.99 4.99 0 0 1-1.664-1.09 5.05 5.05 0 0 1-1.102-1.668 5.49 5.49 0 0 1-.391-2.114v-2.4a5.51 5.51 0 0 1 .391-2.109 4.95 4.95 0 0 1 1.1-1.663c.475-.473 1.042-.846 1.666-1.095a5.52 5.52 0 0 1 2.098-.39h3.086c.715-.007 1.425.125 2.1.4.62.25 1.185.623 1.66 1.094a4.91 4.91 0 0 1 1.113 1.68 5.57 5.57 0 0 1 .39 2.11l.004 2.387zm-2.282-2.403a3.29 3.29 0 0 0-.215-1.222c-.132-.352-.337-.672-.602-.938a2.71 2.71 0 0 0-.941-.605c-.384-.148-.792-.22-1.203-.215h-3.086c-.415-.006-.827.066-1.215.215a2.77 2.77 0 0 0-.945.605 2.67 2.67 0 0 0-.609.938 3.37 3.37 0 0 0-.215 1.222v2.403a3.36 3.36 0 0 0 .215 1.222 2.67 2.67 0 0 0 .609.938 2.71 2.71 0 0 0 .934.605c.388.148.8.22 1.215.215h3.082c.415.006.827-.067 1.215-.215.353-.138.673-.35.938-.62a2.57 2.57 0 0 0 .609-.937 3.3 3.3 0 0 0 .215-1.223v-2.387zm17.102-.86c.006.472-.06.942-.195 1.394a3.9 3.9 0 0 1-.52 1.082 3.69 3.69 0 0 1-.758.805 4.82 4.82 0 0 1-.902.547 4.31 4.31 0 0 1-.945.312c-.296.06-.597.092-.9.094l4.762 4.114H113.2l-4.762-4.114h-1.64v-2.277h5.156c.268-.02.53-.082.78-.18a1.84 1.84 0 0 0 .614-.4c.17-.168.304-.37.4-.594.096-.25.144-.514.14-.78v-1.45a.72.72 0 0 0-.047-.293c-.028-.06-.07-.1-.125-.148a.34.34 0 0 0-.156-.06 1.3 1.3 0 0 0-.153 0h-7.5V233h-2.282v-11.426c-.001-.153.028-.304.086-.446a1.19 1.19 0 0 1 .243-.39c.103-.105.226-.188.363-.242a1.43 1.43 0 0 1 .457-.1h8.656a2.77 2.77 0 0 1 1.29.277 2.62 2.62 0 0 1 .852.692 2.65 2.65 0 0 1 .476.898 3.29 3.29 0 0 1 .145.902v1.477zM19.785 238.9c10.556 0 19.113-8.557 19.113-19.113s-8.557-19.113-19.113-19.113S.672 209.24.672 219.797 9.23 238.9 19.785 238.9z" fill="#fff"/><g fill="#0015fb"><path fill-rule="evenodd" d="M19.75 201.172c-10.26 0-18.578 8.318-18.578 18.578S9.5 238.328 19.75 238.328 38.328 230 38.328 219.75 30 201.172 19.75 201.172zM0 219.75C0 208.842 8.842 200 19.75 200s19.75 8.842 19.75 19.75-8.842 19.75-19.75 19.75S0 230.658 0 219.75z"/><path d="M13.574 212.156l.25-.664h3.4l3.727 12.336h.055l3.754-12.32h3.234l.273.664 5.8 13.1a15.33 15.33 0 0 0 .953-7.083 15.34 15.34 0 0 0-2.362-6.746 15.35 15.35 0 0 0-5.163-4.942 15.33 15.33 0 0 0-6.842-2.065l3.465 7.055h-6.53l3.06-7.055c-.293 0-.586-.027-.883-.027-2.727 0-5.405.727-7.758 2.106s-4.296 3.36-5.628 5.74a15.34 15.34 0 0 0 .308 15.514l6.898-15.614zm18.848 16.098l-7.117-16.406h-.05l-5.184 17.058h-.598l-5.184-17.05h-.05l-7.12 16.407-.06.113a15.08 15.08 0 0 0 5.496 4.964c2.216 1.173 4.7 1.774 7.196 1.75a15.32 15.32 0 0 0 7.241-1.815 15.33 15.33 0 0 0 5.524-5.021h-.094z"/></g><g clip-path="url(#A)"><g fill="#fff"><path d="M308.24 216.45c-.134-.104-.245-.234-.326-.383s-.13-.312-.144-.48l.022-10.617-7 .652a.75.75 0 0 1-.301-.04.74.74 0 0 1-.26-.158.73.73 0 0 1-.173-.249.72.72 0 0 1-.057-.297l.018-.918c.005-.203.085-.397.224-.545a.83.83 0 0 1 .532-.257l4.8-.46.286-10.238c-.023-.17-.01-.344.04-.5a1.23 1.23 0 0 1 .245-.449 1.29 1.29 0 0 1 .626-.423c.246-.075.5-.075.755 0a1.29 1.29 0 0 1 .625.424 1.28 1.28 0 0 1 .278.7l-.348 10.388 13.522-1.34.348-10.378a1.22 1.22 0 0 1 .04-.51 1.23 1.23 0 0 1 .246-.448 1.28 1.28 0 0 1 .391-.313 1.29 1.29 0 0 1 .48-.14c.17-.023.343-.01.508.036s.318.127.45.235.24.243.32.394a1.23 1.23 0 0 1 .136.489l-.218 10.366 7.148-.707a.86.86 0 0 1 .669.222.88.88 0 0 1 .208.294.91.91 0 0 1 .07.353v.493a.96.96 0 0 1-.263.636c-.163.172-.385.278-.623.297l-4.643.444-.2 10.712c.02.166.006.335-.04.495a1.26 1.26 0 0 1-.229.442c-.108.135-.244.245-.398.324s-.323.125-.497.135a1.3 1.3 0 0 1-.945-.287 1.29 1.29 0 0 1-.468-.867l.307-10.675-13.897 1.404-.16 10.633a1.27 1.27 0 0 1-.273.94 1.21 1.21 0 0 1-.393.328 1.23 1.23 0 0 1-.492.141c-.17.02-.34.004-.504-.045a1.23 1.23 0 0 1-.443-.243zm39.46-17.545a7.82 7.82 0 0 1 2.932 3.152 9.83 9.83 0 0 1 1.041 4.591c.008.155-.018.3-.074.455s-.144.277-.254.387c-.117.105-.253.186-.402.238a1.19 1.19 0 0 1-.462.068h-13.384c.1 1.7.878 3.27 2.14 4.404s2.92 1.73 4.62 1.665c.82-.004 1.63-.144 2.404-.413a5.87 5.87 0 0 0 1.94-1.038 1.44 1.44 0 0 1 .894-.33c.265.008.52.1.728.264a1.18 1.18 0 0 1 .312.399c.074.153.115.32.12.5a1 1 0 0 1-.099.42.99.99 0 0 1-.267.339 8.92 8.92 0 0 1-2.766 1.531 9.8 9.8 0 0 1-4.057.6 9.61 9.61 0 0 1-3.933-1.15 8.38 8.38 0 0 1-3.264-3.266 9.51 9.51 0 0 1-1.177-4.735 10.08 10.08 0 0 1 1.109-4.768 8.17 8.17 0 0 1 3.074-3.266 8.61 8.61 0 0 1 4.49-1.172c1.524-.026 3.025.37 4.336 1.145zm-8.516 2.7a6.73 6.73 0 0 0-2.02 4.107h12.124a6.42 6.42 0 0 0-1.844-4.092c-.54-.518-1.18-.922-1.88-1.2s-1.447-.4-2.196-.362a5.87 5.87 0 0 0-4.186 1.536h0zm39.342-2.942c1.02.63 1.836 1.54 2.35 2.62.584 1.232.874 2.582.845 3.945v9.488a1.17 1.17 0 0 1-.076.49 1.19 1.19 0 0 1-.271.418c-.12.118-.262.2-.42.27s-.326.085-.494.075a1.3 1.3 0 0 1-.922-.345 1.21 1.21 0 0 1-.28-.42c-.062-.158-.1-.328-.083-.498v-9.487c0-1.56-.403-2.8-1.2-3.713a3.99 3.99 0 0 0-1.426-1.041 4.01 4.01 0 0 0-1.737-.327 4.43 4.43 0 0 0-1.841.327c-.583.238-1.108.6-1.54 1.056-.86.925-1.28 2.135-1.257 3.63v9.568a1.17 1.17 0 0 1-.076.49 1.19 1.19 0 0 1-.271.418 1.2 1.2 0 0 1-.913.345 1.3 1.3 0 0 1-.922-.345 1.21 1.21 0 0 1-.363-.919v-9.487c0-1.56-.403-2.8-1.2-3.713a3.98 3.98 0 0 0-1.425-1.04c-.547-.236-1.14-.348-1.737-.327a4.56 4.56 0 0 0-1.833.322c-.583.232-1.1.584-1.547 1.03-.443.46-.788 1.003-1.016 1.598a4.76 4.76 0 0 0-.309 1.866v9.764c.01.167-.016.335-.076.5a1.19 1.19 0 0 1-.271.418c-.12.118-.262.2-.42.27a1.06 1.06 0 0 1-.494.076 1.31 1.31 0 0 1-.922-.346 1.21 1.21 0 0 1-.362-.918v-15.49a1.22 1.22 0 0 1 .085-.5c.062-.16.157-.303.278-.424a1.25 1.25 0 0 1 .426-.279 1.26 1.26 0 0 1 .501-.086 1.22 1.22 0 0 1 .5.084 1.23 1.23 0 0 1 .422.28 1.28 1.28 0 0 1 .347.918v.725c.608-.696 1.36-1.254 2.204-1.634a6.65 6.65 0 0 1 2.766-.576 6.57 6.57 0 0 1 3.279.824 6.18 6.18 0 0 1 2.32 2.3 6.57 6.57 0 0 1 2.502-2.3 7.22 7.22 0 0 1 3.432-.808 6.47 6.47 0 0 1 3.464.918zm20.884.242c1.256.755 2.272 1.848 2.932 3.152a9.79 9.79 0 0 1 1.045 4.591c.007.156-.018.3-.076.456a1.1 1.1 0 0 1-.256.386 1.18 1.18 0 0 1-.4.238 1.19 1.19 0 0 1-.461.068h-13.38c.1 1.7.877 3.27 2.14 4.404a6.54 6.54 0 0 0 4.62 1.665 7.39 7.39 0 0 0 2.4-.413 5.82 5.82 0 0 0 1.939-1.038 1.44 1.44 0 0 1 .895-.33c.265.008.52.1.728.264a1.17 1.17 0 0 1 .433.89.97.97 0 0 1-.1.42 1 1 0 0 1-.266.339 8.92 8.92 0 0 1-2.785 1.531 9.63 9.63 0 0 1-4.056.59c-1.38-.096-2.72-.5-3.934-1.15a8.39 8.39 0 0 1-3.245-3.26c-.8-1.45-1.205-3.08-1.177-4.735a10.03 10.03 0 0 1 1.109-4.768c.698-1.353 1.763-2.484 3.073-3.266 1.36-.793 2.912-1.2 4.487-1.172a8.23 8.23 0 0 1 4.333 1.139h0zm-8.512 2.7a6.7 6.7 0 0 0-2.023 4.107h12.127c-.104-1.54-.758-3-1.844-4.092-.54-.518-1.178-.922-1.88-1.2s-1.447-.4-2.196-.362a5.85 5.85 0 0 0-4.185 1.536h0zm27.182-3.508c.54.24.8.584.8 1.022a.96.96 0 0 1-.034.306 1 1 0 0 1-.414.612c-.24.122-.5.18-.778.165a12.9 12.9 0 0 1-1.026-.064 7.31 7.31 0 0 0-.796-.034c-1.656 0-3.008.44-4.057 1.32-.508.414-.913.94-1.186 1.533a4.26 4.26 0 0 0-.387 1.897v9.865a1.25 1.25 0 0 1-.07.507 1.26 1.26 0 0 1-.267.438c-.118.126-.26.227-.42.296a1.26 1.26 0 0 1-.503.104c-.174 0-.345-.035-.504-.104s-.302-.17-.42-.296a1.26 1.26 0 0 1-.267-.438 1.23 1.23 0 0 1-.069-.507v-15.533a1.23 1.23 0 0 1 .069-.507 1.26 1.26 0 0 1 .267-.438 1.25 1.25 0 0 1 .924-.4 1.26 1.26 0 0 1 .503.104 1.25 1.25 0 0 1 .42.296 1.26 1.26 0 0 1 .267.438 1.25 1.25 0 0 1 .07.507v1.45a6.52 6.52 0 0 1 2.458-2.142c.993-.503 2.092-.76 3.205-.75a5.49 5.49 0 0 1 2.204.352h0zm16.4.873c1.386.785 2.53 1.93 3.313 3.315a9.27 9.27 0 0 1 1.208 4.685v7.753c.003.165-.028.33-.1.482a1.21 1.21 0 0 1-.273.408 1.25 1.25 0 0 1-.423.278c-.16.063-.328.092-.5.087a1.31 1.31 0 0 1-.922-.346 1.21 1.21 0 0 1-.28-.421c-.063-.158-.1-.328-.082-.498v-1.97a8.18 8.18 0 0 1-2.95 2.489 8.58 8.58 0 0 1-3.943.918 8.76 8.76 0 0 1-4.512-1.181 8.71 8.71 0 0 1-3.257-3.324c-.777-1.44-1.18-3.048-1.174-4.68a9.77 9.77 0 0 1 1.208-4.672c.777-1.385 1.918-2.532 3.3-3.32a9.71 9.71 0 0 1 9.376 0h0zm-1.275 13.97a6.41 6.41 0 0 0 2.4-2.448 7.47 7.47 0 0 0 0-7.04c-.58-1.034-1.424-1.895-2.45-2.495a6.7 6.7 0 0 0-6.761 0c-1.025.6-1.87 1.46-2.45 2.495-.58 1.083-.883 2.292-.883 3.52a7.46 7.46 0 0 0 .883 3.52 6.38 6.38 0 0 0 2.418 2.448c1.042.598 2.227.906 3.43.9 1.197.017 2.375-.3 3.4-.888v-.003z"/></g><path d="M410.306 163.834c-8.03-1.892-12.14-5.834-16.81-8.597-19.668-11.63-36.288-1.506-46.684 7.272-8.07 6.815-12.222 11.783-12.222 11.783-1.5 1.19-3.26 2-5.14 2.396a2.09 2.09 0 0 0-.776.281 2.06 2.06 0 0 0-.603.562c-.162.225-.276.48-.335.752a2.03 2.03 0 0 0-.013.822c.05.272.157.53.31.762a2.06 2.06 0 0 0 .586.58c.232.152.493.256.767.305s.554.043.825-.018c3.996-.747 6.87-3.005 8.707-4.704 11.626 4.172 44.444 12.625 71.387-12.196z" fill="#95c83d"/><g fill="#fff"><path d="M394.38 164.12l-15.938 1.583.968-6.103a1.28 1.28 0 0 0-.252-.93 1.29 1.29 0 0 0-.829-.496c-.33-.053-.67.025-.944.216a1.29 1.29 0 0 0-.529.807l-1.072 6.77-13.264 1.316.97-6.103a1.28 1.28 0 0 0-.002-.516c-.035-.17-.105-.33-.205-.474a1.3 1.3 0 0 0-.86-.536 1.31 1.31 0 0 0-.518.023 1.28 1.28 0 0 0-.466.224c-.14.105-.255.237-.342.388s-.14.318-.16.5l-1.075 6.767-12.425 1.224a1.3 1.3 0 0 0-.836.45 1.28 1.28 0 0 0 .088 1.756c.236.228.55.357.877.363h.13l14.75-1.466-.97 6.103a1.29 1.29 0 0 0 .233.957 1.3 1.3 0 0 0 .843.515 1.36 1.36 0 0 0 .202 0c.308 0 .605-.1.84-.3s.4-.475.437-.777l1.075-6.767 13.194-1.3-.968 6.103c-.027.166-.02.337.02.5a1.29 1.29 0 0 0 .21.456c.1.137.226.253.37.34a1.32 1.32 0 0 0 .473.174 1.72 1.72 0 0 0 .203 0 1.25 1.25 0 0 0 .842-.3c.237-.203.4-.463.455-.763l1.075-6.767 13.667-1.356c.33-.048.627-.22.832-.48s.3-.6.268-.92-.192-.634-.444-.85a1.3 1.3 0 0 0-.911-.31h-.01zm-41.86 56.998c.104.113.184.244.237.388a1.14 1.14 0 0 1 .07.448v7a1.03 1.03 0 0 1-.062.415c-.05.133-.126.254-.224.356a1.12 1.12 0 0 1-1.49 0 1.02 1.02 0 0 1-.226-.355c-.05-.133-.07-.274-.063-.416v-3.777l-1.472 2.697a1.67 1.67 0 0 1-.464.587 1.07 1.07 0 0 1-1.162 0 1.66 1.66 0 0 1-.464-.587l-1.46-2.62v3.7a1.02 1.02 0 0 1-.065.412 1.03 1.03 0 0 1-.224.353 1.02 1.02 0 0 1-.347.223 1.04 1.04 0 0 1-.41.068c-.136.005-.272-.018-.4-.067a.99.99 0 0 1-.34-.218 1.01 1.01 0 0 1-.227-.355 1 1 0 0 1-.065-.416v-7a1.13 1.13 0 0 1 .068-.45 1.14 1.14 0 0 1 .936-.704 1.13 1.13 0 0 1 .74.195c.205.148.37.345.48.572l2.372 4.447 2.364-4.447c.264-.514.614-.77 1.08-.77a1.06 1.06 0 0 1 .442.073c.14.055.268.14.373.248h0zm4.853 8.522a1.09 1.09 0 0 1-.226-.375 1.1 1.1 0 0 1-.06-.433v-6.877c-.016-.148.001-.297.05-.437a.98.98 0 0 1 .235-.372c.105-.105.233-.185.374-.234s.3-.066.44-.05h4.465a1.29 1.29 0 0 1 .84.233c.096.08.173.184.222.3a.81.81 0 0 1 .064.367c0 .612-.375.918-1.125.918H359.4v1.723h2.988c.75 0 1.124.306 1.124.918a.82.82 0 0 1-.063.37.83.83 0 0 1-.222.302 1.31 1.31 0 0 1-.84.217h-2.994v1.876h3.252c.75 0 1.125.306 1.125.918a.82.82 0 0 1-.064.367c-.05.116-.126.22-.222.3a1.3 1.3 0 0 1-.839.23h-4.46c-.146.013-.293-.003-.433-.048a1.11 1.11 0 0 1-.379-.212zm10.287 0a1.09 1.09 0 0 1-.226-.375 1.1 1.1 0 0 1-.06-.433v-6.877c-.016-.148.001-.297.05-.437a.98.98 0 0 1 .235-.372c.105-.105.233-.185.374-.234s.3-.066.44-.05h2.6c.897-.022 1.787.165 2.6.545.7.34 1.283.885 1.668 1.56a4.8 4.8 0 0 1 .581 2.418 4.92 4.92 0 0 1-.571 2.448 3.77 3.77 0 0 1-1.666 1.56 5.82 5.82 0 0 1-2.612.54h-2.6a1.1 1.1 0 0 1-.437-.064 1.09 1.09 0 0 1-.375-.23zm3.252-1.62c.885 0 1.536-.217 1.994-.65s.664-1.096.664-1.986-.22-1.55-.664-1.977-1.1-.646-1.994-.646h-1.15v5.258h1.15zm9.335 1.665a1.15 1.15 0 0 1-.307-.854v-6.877a1.11 1.11 0 0 1 .066-.453 1.14 1.14 0 0 1 .241-.389c.115-.106.25-.188.397-.24a1.18 1.18 0 0 1 .46-.066c.16-.01.32.012.47.064s.3.135.408.242c.1.1.195.242.25.387a1.14 1.14 0 0 1 .073.455v6.877c.008.157-.017.313-.072.46a1.15 1.15 0 0 1-.251.394 1.22 1.22 0 0 1-.408.241c-.15.052-.3.074-.47.065-.156.008-.312-.014-.46-.067s-.283-.134-.398-.24h0zm15.12-.74c.001.138-.03.274-.1.4a.91.91 0 0 1-.254.32c-.212.197-.5.306-.78.306a1 1 0 0 1-.54-.153 1.06 1.06 0 0 1-.387-.462l-.58-1.3h-4.182l-.593 1.3a1 1 0 0 1-.941.612 1.19 1.19 0 0 1-.793-.306.92.92 0 0 1-.261-.319.91.91 0 0 1-.095-.4c.003-.165.043-.327.117-.475l3.405-6.965c.107-.225.28-.412.498-.536s.473-.187.728-.184.503.062.725.184a1.19 1.19 0 0 1 .501.536l3.408 6.965a1.1 1.1 0 0 1 .117.487zm-6.014-2.672h2.58l-1.3-2.864-1.3 2.864z"/></g></g><defs><clipPath id="A"><path fill="#fff" transform="translate(300 150)" d="M0 0h139v80H0z"/></clipPath></defs></svg>