<svg width="500" height="500" viewBox="0 0 500 500" fill="none" xmlns="http://www.w3.org/2000/svg">
<path d="M23.8125 22.5938L17.7656 16.5469C17.6719 16.4531 17.5312 16.4062 17.3906 16.4062H16.875C18.5156 14.625 19.5 12.3281 19.5 9.75C19.5 4.40625 15.0938 0 9.75 0C4.35938 0 0 4.40625 0 9.75C0 15.1406 4.35938 19.5 9.75 19.5C12.2812 19.5 14.625 18.5156 16.3594 16.9219V17.3906C16.3594 17.5781 16.4062 17.7188 16.5 17.8125L22.5469 23.8594C22.7812 24.0938 23.1094 24.0938 23.3438 23.8594L23.8125 23.3906C24.0469 23.1562 24.0469 22.8281 23.8125 22.5938ZM9.75 18C5.15625 18 1.5 14.3438 1.5 9.75C1.5 5.20312 5.15625 1.5 9.75 1.5C14.2969 1.5 18 5.20312 18 9.75C18 14.3438 14.2969 18 9.75 18Z" fill="white"/>
<path d="M10 70C15.5242 70 20 65.5242 20 60C20 54.4758 15.5242 50 10 50C4.47581 50 0 54.4758 0 60C0 65.5242 4.47581 70 10 70ZM1.29032 60C1.29032 55.2419 5.16129 51.2903 10 51.2903C14.7581 51.2903 18.7097 55.2016 18.7097 60C18.7097 64.7984 14.7984 68.7097 10 68.7097C5.20161 68.7097 1.29032 64.8387 1.29032 60ZM14.6371 59.2742L7.54032 54.9597C6.89516 54.6371 6.12903 55.0806 6.12903 55.8065V64.1935C6.12903 64.9597 6.89516 65.4032 7.54032 65.0403L14.6371 60.9677C15.3226 60.6048 15.3226 59.6774 14.6371 59.2742ZM7.41935 63.2258V56.8145C7.41935 56.6532 7.62097 56.5323 7.78226 56.6129L13.1855 59.9194C13.3468 60 13.3468 60.2419 13.1855 60.3226L7.78226 63.4274C7.62097 63.5484 7.41935 63.4274 7.41935 63.2258Z" fill="black"/>
<path d="M20 139.375C30.7031 139.375 39.375 130.703 39.375 120C39.375 109.297 30.7031 100.625 20 100.625C9.29688 100.625 0.625 109.297 0.625 120C0.625 130.703 9.29688 139.375 20 139.375ZM3.125 120C3.125 110.781 10.625 103.125 20 103.125C29.2188 103.125 36.875 110.703 36.875 120C36.875 129.297 29.2969 136.875 20 136.875C10.7031 136.875 3.125 129.375 3.125 120ZM28.9844 118.594L15.2344 110.234C13.9844 109.609 12.5 110.469 12.5 111.875V128.125C12.5 129.609 13.9844 130.469 15.2344 129.766L28.9844 121.875C30.3125 121.172 30.3125 119.375 28.9844 118.594ZM15 126.25V113.828C15 113.516 15.3906 113.281 15.7031 113.438L26.1719 119.844C26.4844 120 26.4844 120.469 26.1719 120.625L15.7031 126.641C15.3906 126.875 15 126.641 15 126.25Z" fill="white"/>
<path d="M55.5781 65.3281C55.8125 65.5625 56.1406 65.5625 56.375 65.3281L61.8125 59.8438C62.0469 59.6094 62.0469 59.2344 61.8125 59.0469L61.4844 58.7188C61.25 58.4844 60.9219 58.4844 60.6875 58.7188L56 63.5L51.2656 58.6719C51.0312 58.4844 50.7031 58.4844 50.4688 58.6719L50.1406 59.0469C49.9062 59.2344 49.9062 59.6094 50.1406 59.8438L55.5781 65.3281Z" fill="black"/>
<path d="M62.3867 109.203C62.1523 108.969 61.8242 108.969 61.5898 109.203L56.1523 114.688C55.918 114.922 55.918 115.297 56.1523 115.484L56.4805 115.812C56.7148 116.047 57.043 116.047 57.2773 115.812L61.9648 111.031L66.6992 115.859C66.9336 116.047 67.2617 116.047 67.4961 115.859L67.8242 115.484C68.0586 115.297 68.0586 114.922 67.8242 114.688L62.3867 109.203Z" fill="white"/>
<path d="M263.844 55.0938L263.625 54.875C263.469 54.7188 263.25 54.7188 263.094 54.875L257 60.9688L250.875 54.875C250.719 54.7188 250.5 54.7188 250.344 54.875L250.125 55.0938C249.969 55.25 249.969 55.4688 250.125 55.625L256.719 62.2188C256.875 62.375 257.094 62.375 257.25 62.2188L263.844 55.625C264 55.4688 264 55.25 263.844 55.0938Z" fill="black"/>
<path d="M263.844 112.242L263.625 112.461C263.469 112.617 263.25 112.617 263.094 112.461L257 106.367L250.875 112.461C250.719 112.617 250.5 112.617 250.344 112.461L250.125 112.242C249.969 112.086 249.969 111.867 250.125 111.711L256.719 105.117C256.875 104.961 257.094 104.961 257.25 105.117L263.844 111.711C264 111.867 264 112.086 263.844 112.242Z" fill="black"/>
<path d="M204.355 164.882L204.124 164.663C203.959 164.506 203.959 164.287 204.124 164.13L210.557 158.016L204.124 151.87C203.959 151.713 203.959 151.494 204.124 151.337L204.355 151.118C204.52 150.961 204.751 150.961 204.915 151.118L211.876 157.733C212.041 157.89 212.041 158.11 211.876 158.267L204.915 164.882C204.751 165.039 204.52 165.039 204.355 164.882Z" fill="#999999"/>
<path d="M261.645 164.882L261.876 164.663C262.041 164.506 262.041 164.287 261.876 164.13L255.443 158.016L261.876 151.87C262.041 151.713 262.041 151.494 261.876 151.337L261.645 151.118C261.48 150.961 261.249 150.961 261.085 151.118L254.124 157.733C253.959 157.89 253.959 158.11 254.124 158.267L261.085 164.882C261.249 165.039 261.48 165.039 261.645 164.882Z" fill="#999999"/>
<path d="M369.554 59.183C370.149 58.6208 370.149 57.6525 369.554 57.0591L362.953 50.4685C362.702 50.2186 362.233 50 361.889 50H360.262L361.263 50.9995H361.889C361.983 50.9995 362.139 51.0932 362.233 51.1557L368.866 57.7775C369.054 57.9649 369.054 58.2772 368.866 58.4959L362.483 64.8677C362.264 65.0551 361.952 65.0551 361.764 64.8677L361.701 64.8053L361.013 65.5237L361.044 65.5549C361.639 66.1484 362.609 66.1484 363.172 65.5549L369.554 59.183ZM357.884 50.9995C357.978 50.9995 358.135 51.0932 358.228 51.1557L364.861 57.7775C365.049 57.9649 365.049 58.2772 364.861 58.4959L358.479 64.8677C358.26 65.0551 357.947 65.0551 357.759 64.8677L351.126 58.246C351.032 58.1523 351.001 58.0273 351.001 57.9024V51.4993C351.001 51.2494 351.22 50.9995 351.502 50.9995H357.884ZM357.884 50H351.502C350.657 50 350 50.6872 350 51.4993V57.9024C350 58.246 350.188 58.7145 350.438 58.9644L357.039 65.5549C357.634 66.1484 358.604 66.1484 359.167 65.5549L365.549 59.183C366.144 58.6208 366.144 57.6525 365.549 57.0591L358.948 50.4685C358.698 50.2186 358.228 50 357.884 50ZM354.505 53.8731C354.849 53.8731 355.131 54.1542 355.131 54.4978C355.131 54.8726 354.849 55.1225 354.505 55.1225C354.13 55.1225 353.88 54.8726 353.88 54.4978C353.88 54.1542 354.13 53.8731 354.505 53.8731ZM354.505 52.9985C353.661 52.9985 353.004 53.6857 353.004 54.4978C353.004 55.3411 353.661 55.9971 354.505 55.9971C355.319 55.9971 356.007 55.3411 356.007 54.4978C356.007 53.6857 355.319 52.9985 354.505 52.9985Z" fill="black"/>
<path d="M167.849 58.7042L167.567 58.4234C167.365 58.2228 167.083 58.2228 166.881 58.4234L159.705 65.5632V50.4813C159.705 50.2407 159.464 50 159.222 50H158.819C158.536 50 158.335 50.2407 158.335 50.4813V65.5632L151.119 58.4234C150.917 58.2228 150.635 58.2228 150.433 58.4234L150.151 58.7042C149.95 58.9047 149.95 59.1855 150.151 59.3861L158.657 67.8496C158.859 68.0501 159.141 68.0501 159.343 67.8496L167.849 59.3861C168.05 59.1855 168.05 58.9047 167.849 58.7042Z" fill="#0044E1"/>
<path d="M334.625 70H329V65.4286C329 62.9286 330.969 60.8571 333.5 60.8571H334.062C334.977 60.8571 335.75 60.1429 335.75 59.1429V55.7143C335.75 54.7857 334.977 54 334.062 54H333.5C327.242 54 322.25 59.1429 322.25 65.4286V82.5714C322.25 84.5 323.727 86 325.625 86H334.625C336.453 86 338 84.5 338 82.5714V73.4286C338 71.5714 336.453 70 334.625 70ZM314.375 70H308.75V65.4286C308.75 62.9286 310.719 60.8571 313.25 60.8571H313.812C314.727 60.8571 315.5 60.1429 315.5 59.1429V55.7143C315.5 54.7857 314.727 54 313.812 54H313.25C306.992 54 302 59.1429 302 65.4286V82.5714C302 84.5 303.477 86 305.375 86H314.375C316.203 86 317.75 84.5 317.75 82.5714V73.4286C317.75 71.5714 316.203 70 314.375 70Z" fill="#0044E1"/>
<path d="M212.25 50H201.75C200.766 50 200 50.793 200 51.75V59.625C200 60.6094 200.766 61.375 201.75 61.375H204.375V63.6719C204.375 63.8906 204.512 64 204.703 64C204.758 64 204.812 64 204.895 63.9453L208.312 61.375H212.25C213.207 61.375 214 60.6094 214 59.625V51.75C214 50.793 213.207 50 212.25 50ZM213.125 59.625C213.125 60.1172 212.715 60.5 212.25 60.5H208.012L207.766 60.6914L205.25 62.5781V60.5H201.75C201.258 60.5 200.875 60.1172 200.875 59.625V51.75C200.875 51.2852 201.258 50.875 201.75 50.875H212.25C212.715 50.875 213.125 51.2852 213.125 51.75V59.625ZM207 57.2188C206.617 57.2188 206.344 57.5195 206.344 57.875C206.344 58.2578 206.617 58.5312 207 58.5312C207.355 58.5312 207.656 58.2578 207.656 57.875C207.656 57.5195 207.355 57.2188 207 57.2188ZM206.754 56.5625H207.219C207.328 56.5625 207.438 56.4805 207.438 56.3711L207.629 53.3086C207.629 53.1719 207.547 53.0625 207.41 53.0625H206.562C206.426 53.0625 206.344 53.1719 206.344 53.3086L206.535 56.3711C206.535 56.4805 206.645 56.5625 206.754 56.5625Z" fill="black"/>
<path d="M70.7188 5.34375C70.8594 5.34375 71 5.25 71 5.0625V3.9375C71 3.79688 70.8594 3.65625 70.7188 3.65625H50.2812C50.0938 3.65625 50 3.79688 50 3.9375V5.0625C50 5.25 50.0938 5.34375 50.2812 5.34375H70.7188ZM70.7188 12.8438C70.8594 12.8438 71 12.75 71 12.5625V11.4375C71 11.2969 70.8594 11.1562 70.7188 11.1562H50.2812C50.0938 11.1562 50 11.2969 50 11.4375V12.5625C50 12.75 50.0938 12.8438 50.2812 12.8438H70.7188ZM70.7188 20.3438C70.8594 20.3438 71 20.25 71 20.0625V18.9375C71 18.7969 70.8594 18.6562 70.7188 18.6562H50.2812C50.0938 18.6562 50 18.7969 50 18.9375V20.0625C50 20.25 50.0938 20.3438 50.2812 20.3438H70.7188Z" fill="white"/>
<path d="M114.672 13.5C113.312 13.5 112.703 14.25 110.5 14.25C108.25 14.25 107.641 13.5 106.281 13.5C102.812 13.5 100 16.3594 100 19.8281V21.75C100 23.0156 100.984 24 102.25 24H118.75C119.969 24 121 23.0156 121 21.75V19.8281C121 16.3594 118.141 13.5 114.672 13.5ZM119.5 21.75C119.5 22.1719 119.125 22.5 118.75 22.5H102.25C101.828 22.5 101.5 22.1719 101.5 21.75V19.8281C101.5 17.1562 103.609 15 106.281 15C107.219 15 108.109 15.75 110.5 15.75C112.844 15.75 113.781 15 114.672 15C117.344 15 119.5 17.1562 119.5 19.8281V21.75ZM110.5 12C113.781 12 116.5 9.32812 116.5 6C116.5 2.71875 113.781 0 110.5 0C107.172 0 104.5 2.71875 104.5 6C104.5 9.32812 107.172 12 110.5 12ZM110.5 1.5C112.938 1.5 115 3.5625 115 6C115 8.48438 112.938 10.5 110.5 10.5C108.016 10.5 106 8.48438 106 6C106 3.5625 108.016 1.5 110.5 1.5Z" fill="white"/>
<path d="M113.781 61.625H100.875V52.2188C100.875 52.1094 100.766 52 100.656 52H100.219C100.082 52 100 52.1094 100 52.2188V62.0625C100 62.3086 100.191 62.5 100.438 62.5H113.781C113.891 62.5 114 62.418 114 62.2812V61.8438C114 61.7344 113.891 61.625 113.781 61.625ZM102.68 57.4688C102.598 57.5508 102.598 57.6875 102.68 57.7695L102.98 58.0703C103.062 58.1523 103.199 58.1523 103.281 58.0703L105.277 56.1016L107.602 58.4258C107.766 58.5898 108.039 58.5898 108.203 58.4258L110.773 55.8555L111.977 57.0586C112.113 57.1953 112.277 57.25 112.441 57.25C112.797 57.25 113.125 57.0039 113.125 56.5938V53.3398C113.125 53.0938 112.906 52.875 112.66 52.875H109.406C108.805 52.875 108.504 53.6133 108.941 54.0234L110.145 55.2539L107.902 57.4961L105.605 55.1719C105.414 55.0078 105.141 55.0078 104.977 55.1719L102.68 57.4688ZM109.898 53.75H112.25V56.1016L109.898 53.75Z" fill="white"/>
<path d="M159.047 12L163.875 7.21875L164.859 6.23438C165 6.09375 165 5.85938 164.859 5.67188L163.828 4.64062C163.641 4.5 163.406 4.5 163.266 4.64062L157.5 10.4531L151.688 4.64062C151.547 4.5 151.312 4.5 151.125 4.64062L150.094 5.67188C149.953 5.85938 149.953 6.09375 150.094 6.23438L155.906 12L150.094 17.8125C149.953 17.9531 149.953 18.1875 150.094 18.375L151.125 19.4062C151.312 19.5469 151.547 19.5469 151.688 19.4062L157.5 13.5938L162.281 18.4219L163.266 19.4062C163.406 19.5469 163.641 19.5469 163.828 19.4062L164.859 18.375C165 18.1875 165 17.9531 164.859 17.8125L159.047 12Z" fill="white"/>
<path d="M210.938 0.625H201.312C200.574 0.625 200 1.22656 200 1.9375V11.5625C200 12.3008 200.574 12.875 201.312 12.875H210.938C211.648 12.875 212.25 12.3008 212.25 11.5625V1.9375C212.25 1.22656 211.648 0.625 210.938 0.625ZM211.375 11.5625C211.375 11.8086 211.156 12 210.938 12H201.312C201.066 12 200.875 11.8086 200.875 11.5625V1.9375C200.875 1.71875 201.066 1.5 201.312 1.5H210.938C211.156 1.5 211.375 1.71875 211.375 1.9375V11.5625ZM209.871 2.78516L208.258 2.40234C208.203 2.40234 208.121 2.40234 208.066 2.40234C207.793 2.40234 207.465 2.62109 207.328 2.86719L206.59 4.58984C206.453 4.91797 206.562 5.32812 206.836 5.54688L207.492 6.09375C207.082 6.80469 206.152 7.73438 205.441 8.14453L204.895 7.48828C204.676 7.21484 204.266 7.10547 203.938 7.24219L202.215 7.98047C201.859 8.14453 201.668 8.52734 201.75 8.91016L202.133 10.5234C202.215 10.8789 202.543 11.125 202.926 11.125C207.109 11.125 210.5 7.76172 210.5 3.55078C210.5 3.19531 210.227 2.86719 209.871 2.78516ZM202.953 10.25L202.625 8.77344L204.238 8.08984L205.195 9.23828C206.891 8.44531 207.766 7.57031 208.586 5.84766L207.438 4.89062L208.121 3.27734L209.598 3.60547C209.57 7.26953 206.617 10.2227 202.953 10.25Z" fill="black"/>
<path d="M262.688 1.5H251.312C250.574 1.5 250 2.10156 250 2.8125V10.6875C250 11.4258 250.574 12 251.312 12H262.688C263.398 12 264 11.4258 264 10.6875V2.8125C264 2.10156 263.398 1.5 262.688 1.5ZM251.312 2.375H262.688C262.906 2.375 263.125 2.59375 263.125 2.8125V3.96094C262.523 4.45312 261.648 5.16406 258.996 7.26953C258.531 7.65234 257.629 8.52734 257 8.5C256.344 8.52734 255.441 7.65234 254.977 7.26953C252.324 5.16406 251.449 4.45312 250.875 3.96094V2.8125C250.875 2.59375 251.066 2.375 251.312 2.375ZM262.688 11.125H251.312C251.066 11.125 250.875 10.9336 250.875 10.6875V5.08203C251.477 5.60156 252.461 6.39453 254.43 7.95312C255.004 8.41797 255.988 9.40234 257 9.375C257.984 9.40234 258.969 8.41797 259.543 7.95312C261.512 6.39453 262.496 5.60156 263.125 5.08203V10.6875C263.125 10.9336 262.906 11.125 262.688 11.125Z" fill="black"/>
<path d="M307.008 1.85714C310.367 1.85714 313.126 3.97321 313.126 6.57143C313.126 9.16964 310.367 11.2857 307.008 11.2857C306.216 11.2857 305.451 11.1786 304.714 10.9643L304.304 10.8304L303.949 11.0714C303.321 11.5 302.365 12.0089 301.163 12.1429C301.491 11.7411 301.955 11.0446 302.256 10.2679L302.447 9.75893L302.092 9.38393C301.3 8.55357 300.89 7.58929 300.89 6.57143C300.89 3.97321 303.621 1.85714 307.008 1.85714ZM307.008 1C303.13 1 300.016 3.51786 300.016 6.57143C300.016 7.85714 300.535 9.03571 301.436 9.97321C301.054 11.0179 300.207 11.9286 300.18 11.9286C299.989 12.1161 299.962 12.3839 300.044 12.625C300.153 12.8661 300.399 13 300.644 13C302.338 13 303.649 12.3304 304.468 11.7679C305.26 12.0089 306.107 12.1429 307.008 12.1429C310.859 12.1429 314 9.65179 314 6.57143C314 3.51786 310.859 1 307.008 1Z" fill="white"/>
<path d="M360.429 8.75C359.652 8.75 358.955 9.10547 358.5 9.65234L355.929 8.01172C356.196 7.38281 356.196 6.64453 355.929 6.01562L358.5 4.375C358.955 4.92188 359.652 5.25 360.429 5.25C361.848 5.25 363 4.07422 363 2.625C363 1.17578 361.848 0 360.429 0C359.009 0 357.857 1.17578 357.857 2.625C357.857 2.98047 357.911 3.33594 358.045 3.63672L355.473 5.27734C355.018 4.73047 354.321 4.375 353.571 4.375C352.152 4.375 351 5.55078 351 7C351 8.44922 352.152 9.625 353.571 9.625C354.321 9.625 355.018 9.29688 355.473 8.75L358.045 10.3906C357.911 10.6914 357.857 11.0195 357.857 11.375C357.857 12.8242 359.009 14 360.429 14C361.848 14 363 12.8242 363 11.375C363 9.92578 361.848 8.75 360.429 8.75ZM360.429 0.875C361.366 0.875 362.143 1.66797 362.143 2.625C362.143 3.60938 361.366 4.375 360.429 4.375C359.464 4.375 358.714 3.60938 358.714 2.625C358.714 1.66797 359.464 0.875 360.429 0.875ZM353.571 8.75C352.607 8.75 351.857 7.98438 351.857 7C351.857 6.04297 352.607 5.25 353.571 5.25C354.509 5.25 355.286 6.04297 355.286 7C355.286 7.98438 354.509 8.75 353.571 8.75ZM360.429 13.125C359.464 13.125 358.714 12.3594 358.714 11.375C358.714 10.418 359.464 9.625 360.429 9.625C361.366 9.625 362.143 10.418 362.143 11.375C362.143 12.3594 361.366 13.125 360.429 13.125Z" fill="white"/>
<path d="M11.4286 159.75C10.6518 159.75 9.95536 160.105 9.5 160.652L6.92857 159.012C7.19643 158.383 7.19643 157.645 6.92857 157.016L9.5 155.375C9.95536 155.922 10.6518 156.25 11.4286 156.25C12.8482 156.25 14 155.074 14 153.625C14 152.176 12.8482 151 11.4286 151C10.0089 151 8.85714 152.176 8.85714 153.625C8.85714 153.98 8.91071 154.336 9.04464 154.637L6.47321 156.277C6.01786 155.73 5.32143 155.375 4.57143 155.375C3.15179 155.375 2 156.551 2 158C2 159.449 3.15179 160.625 4.57143 160.625C5.32143 160.625 6.01786 160.297 6.47321 159.75L9.04464 161.391C8.91071 161.691 8.85714 162.02 8.85714 162.375C8.85714 163.824 10.0089 165 11.4286 165C12.8482 165 14 163.824 14 162.375C14 160.926 12.8482 159.75 11.4286 159.75ZM11.4286 151.875C12.3661 151.875 13.1429 152.668 13.1429 153.625C13.1429 154.609 12.3661 155.375 11.4286 155.375C10.4643 155.375 9.71429 154.609 9.71429 153.625C9.71429 152.668 10.4643 151.875 11.4286 151.875ZM4.57143 159.75C3.60714 159.75 2.85714 158.984 2.85714 158C2.85714 157.043 3.60714 156.25 4.57143 156.25C5.50893 156.25 6.28571 157.043 6.28571 158C6.28571 158.984 5.50893 159.75 4.57143 159.75ZM11.4286 164.125C10.4643 164.125 9.71429 163.359 9.71429 162.375C9.71429 161.418 10.4643 160.625 11.4286 160.625C12.3661 160.625 13.1429 161.418 13.1429 162.375C13.1429 163.359 12.3661 164.125 11.4286 164.125Z" fill="#999999"/>
<path d="M410.938 1.625H401.312C400.574 1.625 400 2.22656 400 2.9375V12.5625C400 13.3008 400.574 13.875 401.312 13.875H405.059V9.71875H403.336V7.75H405.059V6.27344C405.059 4.57812 406.07 3.62109 407.602 3.62109C408.367 3.62109 409.133 3.75781 409.133 3.75781V5.42578H408.285C407.438 5.42578 407.164 5.94531 407.164 6.49219V7.75H409.051L408.75 9.71875H407.164V13.875H410.938C411.648 13.875 412.25 13.3008 412.25 12.5625V2.9375C412.25 2.22656 411.648 1.625 410.938 1.625Z" fill="black"/>
<path d="M412.5 52H401.5C400.656 52 400 52.6875 400 53.5V64.5C400 65.3438 400.656 66 401.5 66H405.781V61.25H403.812V59H405.781V57.3125C405.781 55.375 406.938 54.2812 408.688 54.2812C409.562 54.2812 410.438 54.4375 410.438 54.4375V56.3438H409.469C408.5 56.3438 408.188 56.9375 408.188 57.5625V59H410.344L410 61.25H408.188V66H412.5C413.312 66 414 65.3438 414 64.5V53.5C414 52.6875 413.312 52 412.5 52Z" fill="white"/>
<path d="M455.086 6.30078V9.25391L457.711 7.77734L455.086 6.30078ZM462.25 2.9375C462.25 2.22656 461.648 1.625 460.938 1.625H451.312C450.574 1.625 450 2.22656 450 2.9375V12.5625C450 13.3008 450.574 13.875 451.312 13.875H460.938C461.648 13.875 462.25 13.3008 462.25 12.5625V2.9375ZM461.102 7.77734C461.102 7.77734 461.102 9.39062 460.883 10.1836C460.773 10.6211 460.418 10.9492 460.008 11.0586C459.215 11.25 456.125 11.25 456.125 11.25C456.125 11.25 453.008 11.25 452.215 11.0586C451.805 10.9492 451.449 10.6211 451.34 10.1836C451.148 9.39062 451.148 7.77734 451.148 7.77734C451.148 7.77734 451.148 6.13672 451.34 5.37109C451.449 4.93359 451.805 4.57812 452.215 4.46875C453.008 4.25 456.125 4.25 456.125 4.25C456.125 4.25 459.215 4.25 460.008 4.46875C460.418 4.57812 460.773 4.93359 460.883 5.37109C461.102 6.13672 461.102 7.77734 461.102 7.77734Z" fill="black"/>
<path d="M465.25 57.9375C465.25 57.4375 465.188 57.0625 465.125 56.6562H457.75V59.3125H462.125C461.969 60.4688 460.812 62.6562 457.75 62.6562C455.094 62.6562 452.938 60.4688 452.938 57.75C452.938 53.4062 458.062 51.4062 460.812 54.0625L462.938 52.0312C461.594 50.7812 459.812 50 457.75 50C453.438 50 450 53.4688 450 57.75C450 62.0625 453.438 65.5 457.75 65.5C462.219 65.5 465.25 62.375 465.25 57.9375Z" fill="white"/>
<path d="M475.734 102.859C475.453 101.734 474.562 100.844 473.484 100.562C471.469 100 463.5 100 463.5 100C463.5 100 455.484 100 453.469 100.562C452.391 100.844 451.5 101.734 451.219 102.859C450.656 104.828 450.656 109.047 450.656 109.047C450.656 109.047 450.656 113.219 451.219 115.234C451.5 116.359 452.391 117.203 453.469 117.484C455.484 118 463.5 118 463.5 118C463.5 118 471.469 118 473.484 117.484C474.562 117.203 475.453 116.359 475.734 115.234C476.297 113.219 476.297 109.047 476.297 109.047C476.297 109.047 476.297 104.828 475.734 102.859ZM460.875 112.844V105.25L467.531 109.047L460.875 112.844Z" fill="#F44336"/>
<path d="M109.598 157C109.817 157 109.973 156.844 109.973 156.625V156.375C109.973 156.188 109.817 156 109.598 156H103.345C103.158 156 102.97 156.188 102.97 156.375V156.625C102.97 156.844 103.158 157 103.345 157H109.598ZM115.882 165.531C116.038 165.406 116.038 165.156 115.882 165L111.849 160.969C111.786 160.906 111.692 160.875 111.567 160.875H111.317C112.349 159.719 113.006 158.188 113.006 156.5C113.006 152.938 110.129 150.063 106.565 150C102.907 149.969 99.9375 152.938 100 156.594C100.031 160.156 102.907 163 106.503 163C108.16 163 109.692 162.375 110.848 161.344V161.594C110.848 161.688 110.88 161.781 110.973 161.875L115.006 165.906C115.131 166.031 115.382 166.031 115.538 165.906L115.882 165.531ZM112.005 156.5C112.005 159.562 109.535 162 106.503 162C103.439 162 101 159.562 101 156.5C101 153.469 103.439 151 106.503 151C109.535 151 112.005 153.469 112.005 156.5Z" fill="#999999"/>
<path d="M159.974 156.375C159.974 156.188 159.818 156 159.599 156H156.973V153.375C156.973 153.188 156.816 153 156.598 153H156.347C156.16 153 155.972 153.188 155.972 153.375V156H153.346C153.159 156 152.971 156.188 152.971 156.375V156.625C152.971 156.844 153.159 157 153.346 157H155.972V159.625C155.972 159.844 156.16 160 156.347 160H156.598C156.816 160 156.973 159.844 156.973 159.625V157H159.599C159.818 157 159.974 156.844 159.974 156.625V156.375ZM165.883 165.531C166.039 165.406 166.039 165.156 165.883 165L161.85 160.969C161.787 160.906 161.693 160.875 161.568 160.875H161.318C162.35 159.719 163.007 158.188 163.007 156.5C163.007 152.938 160.13 150.063 156.566 150C152.908 149.969 149.938 152.938 150.001 156.594C150.032 160.156 152.908 163 156.504 163C158.161 163 159.693 162.375 160.849 161.344V161.594C160.849 161.688 160.881 161.781 160.974 161.875L165.007 165.906C165.132 166.031 165.383 166.031 165.539 165.906L165.883 165.531ZM162.006 156.5C162.006 159.563 159.536 162 156.504 162C153.44 162 151.001 159.563 151.001 156.5C151.001 153.469 153.44 151 156.504 151C159.536 151 162.006 153.469 162.006 156.5Z" fill="#999999"/>
<path d="M64.625 156C64.8125 156 65 155.844 65 155.625V155.375C65 155.188 64.8125 155 64.625 155H61V151.375C61 151.188 60.8125 151 60.625 151H60.375C60.1562 151 60 151.188 60 151.375V155.25C60 155.688 60.3125 156 60.75 156H64.625ZM56 155.25V151.375C56 151.188 55.8125 151 55.625 151H55.375C55.1562 151 55 151.188 55 151.375V155H51.375C51.1562 155 51 155.188 51 155.375V155.625C51 155.844 51.1562 156 51.375 156H55.25C55.6562 156 56 155.688 56 155.25ZM56 164.625V160.75C56 160.344 55.6562 160 55.25 160H51.375C51.1562 160 51 160.188 51 160.375V160.625C51 160.844 51.1562 161 51.375 161H55V164.625C55 164.844 55.1562 165 55.375 165H55.625C55.8125 165 56 164.844 56 164.625ZM61 164.625V161H64.625C64.8125 161 65 160.844 65 160.625V160.375C65 160.188 64.8125 160 64.625 160H60.75C60.3125 160 60 160.344 60 160.75V164.625C60 164.844 60.1562 165 60.375 165H60.625C60.8125 165 61 164.844 61 164.625Z" fill="#999999"/>
<path d="M55.0781 219.051H52.8008V215.965H44.7773V219.051H42.4961V212.766C42.4865 211.898 42.647 211.037 42.9687 210.23C43.2665 209.485 43.7131 208.809 44.2812 208.242C44.853 207.681 45.5301 207.239 46.2734 206.941C47.0715 206.626 47.9231 206.468 48.7812 206.477H53.9062C54.0604 206.477 54.2131 206.507 54.3554 206.566C54.6327 206.682 54.853 206.902 54.9687 207.18C55.0272 207.322 55.0564 207.475 55.0547 207.629L55.0781 219.051ZM44.7773 213.672H52.7929V208.758H48.7851C48.7148 208.758 48.5664 208.758 48.3437 208.789C48.0792 208.816 47.8177 208.867 47.5625 208.941C47.238 209.037 46.9249 209.168 46.6289 209.332C46.2884 209.511 45.9817 209.747 45.7226 210.031C45.4306 210.361 45.2003 210.741 45.0429 211.152C44.8538 211.673 44.7637 212.224 44.7773 212.777V213.672Z" fill="white"/>
<path d="M70.039 217.902C70.0412 218.059 70.012 218.214 69.9531 218.359C69.8971 218.496 69.8133 218.62 69.707 218.723C69.6002 218.825 69.4758 218.907 69.3398 218.965C69.1972 219.023 69.0445 219.052 68.8906 219.051H63.7539C63.2576 219.05 62.7627 218.998 62.2773 218.895C61.7792 218.79 61.2953 218.626 60.8359 218.406C60.366 218.187 59.9262 217.909 59.5273 217.578C59.1108 217.232 58.7487 216.825 58.4531 216.371C58.1324 215.879 57.8875 215.342 57.7265 214.777C57.5463 214.125 57.4582 213.45 57.4648 212.773V206.477H59.7656V212.766C59.751 213.32 59.8411 213.873 60.0312 214.395C60.1896 214.804 60.4197 215.183 60.7109 215.512C60.9695 215.795 61.2747 216.031 61.6133 216.211C61.9099 216.373 62.2228 216.504 62.5469 216.602C62.8022 216.676 63.0637 216.727 63.3281 216.754C63.5547 216.754 63.7187 216.785 63.7734 216.785H67.7773V206.477H70.0586L70.039 217.902Z" fill="white"/>
<path d="M84.0508 208.758H79.0273V219.051H76.7461V208.758H71.7148V206.477H84.0508V208.758Z" fill="white"/>
<path d="M98.7461 213.965C98.7569 214.688 98.6242 215.406 98.3555 216.078C98.1098 216.703 97.7381 217.27 97.2636 217.744C96.7892 218.219 96.222 218.59 95.5977 218.836C94.9333 219.102 94.2233 219.234 93.5078 219.227H90.4219C89.7039 219.234 88.9914 219.101 88.3242 218.836C87.7012 218.59 87.135 218.219 86.6602 217.746C86.1813 217.27 85.8028 216.703 85.5469 216.078C85.2782 215.406 85.1454 214.688 85.1563 213.965V211.562C85.1464 210.842 85.2792 210.126 85.5469 209.457C85.7973 208.832 86.1721 208.265 86.6484 207.789C87.1253 207.319 87.691 206.948 88.3125 206.699C88.9793 206.433 89.6921 206.3 90.4102 206.309H93.4961C94.2118 206.299 94.9222 206.431 95.5859 206.699C96.2131 206.947 96.7842 207.317 97.2656 207.789C97.7408 208.264 98.1131 208.832 98.3594 209.457C98.6271 210.126 98.7598 210.842 98.75 211.562L98.7461 213.965ZM96.4844 211.562C96.4886 211.145 96.4158 210.731 96.2695 210.34C96.1365 209.988 95.9301 209.668 95.6641 209.402C95.398 209.136 95.0785 208.93 94.7266 208.797C94.3409 208.652 93.9317 208.579 93.5195 208.582H90.4336C90.0189 208.578 89.607 208.651 89.2188 208.797C88.8684 208.933 88.5494 209.139 88.2813 209.402C88.0133 209.668 87.8055 209.987 87.6719 210.34C87.5238 210.73 87.4509 211.145 87.457 211.562V213.965C87.4505 214.384 87.5234 214.8 87.6719 215.191C87.8055 215.544 88.0133 215.864 88.2813 216.129C88.5506 216.393 88.8709 216.599 89.2227 216.734C89.6109 216.88 90.0228 216.953 90.4375 216.949H93.5078C93.9213 216.953 94.3319 216.88 94.7188 216.734C95.0712 216.598 95.3926 216.392 95.6641 216.129C95.9296 215.862 96.1371 215.543 96.2734 215.191C96.4201 214.799 96.4929 214.383 96.4883 213.965L96.4844 211.562Z" fill="white"/>
<path d="M57.3672 233.02H55.0782V225.531L51.0313 232.645C50.9356 232.82 50.7902 232.962 50.6133 233.055C50.4363 233.148 50.2391 233.196 50.0391 233.195C49.8441 233.196 49.6521 233.147 49.4805 233.055C49.3136 232.958 49.178 232.816 49.0899 232.645L45.0157 225.531V233.02H42.7344V221.418C42.7294 221.16 42.8121 220.908 42.9688 220.703C43.1221 220.51 43.3349 220.373 43.5742 220.312C43.7022 220.283 43.8338 220.272 43.9649 220.281C44.0868 220.291 44.2065 220.319 44.3203 220.363C44.4335 220.405 44.538 220.467 44.6289 220.547C44.7244 220.627 44.8051 220.724 44.8672 220.832L50.0391 229.844L55.2305 220.824C55.3567 220.608 55.5521 220.44 55.7852 220.348C56.0218 220.255 56.2816 220.24 56.5274 220.305C56.7671 220.368 56.9797 220.508 57.1328 220.703C57.2879 220.903 57.3705 221.149 57.3672 221.402V233.02Z" fill="white"/>
<path d="M73.2149 227.934C73.2233 228.657 73.0906 229.375 72.8242 230.047C72.5774 230.672 72.2049 231.24 71.7299 231.716C71.2549 232.191 70.6874 232.565 70.0625 232.813C69.3969 233.079 68.6855 233.211 67.9688 233.203H64.8828C64.1661 233.211 63.4546 233.079 62.7891 232.813C62.1658 232.564 61.5987 232.194 61.1211 231.723C60.6477 231.245 60.2733 230.678 60.0195 230.055C59.7513 229.383 59.6186 228.665 59.6289 227.941V225.531C59.6197 224.809 59.7524 224.093 60.0195 223.422C60.27 222.798 60.6447 222.232 61.1208 221.758C61.5969 221.284 62.1645 220.912 62.7891 220.664C63.4548 220.398 64.1661 220.266 64.8828 220.273H67.9688C68.6855 220.266 69.3968 220.398 70.0625 220.664C70.6826 220.916 71.2468 221.287 71.7227 221.758C72.1986 222.238 72.5721 222.809 72.8203 223.438C73.0856 224.109 73.2182 224.825 73.2109 225.547L73.2149 227.934ZM70.9336 225.531C70.9402 225.114 70.8672 224.699 70.7188 224.309C70.5855 223.957 70.3791 223.637 70.1133 223.371C69.8465 223.106 69.5271 222.9 69.1758 222.766C68.7907 222.618 68.3811 222.545 67.9688 222.551H64.8828C64.4679 222.545 64.0557 222.618 63.668 222.766C63.3158 222.9 62.9953 223.107 62.7266 223.371C62.4595 223.637 62.2518 223.957 62.1172 224.309C61.9687 224.699 61.8958 225.114 61.9024 225.531V227.934C61.8958 228.351 61.9687 228.766 62.1172 229.156C62.2507 229.513 62.4593 229.838 62.7288 230.107C62.9984 230.377 63.3226 230.585 63.6797 230.719C64.0674 230.867 64.4797 230.939 64.8945 230.934H67.9688C68.3837 230.939 68.7959 230.867 69.1836 230.719C69.5407 230.585 69.8649 230.377 70.1345 230.107C70.4041 229.838 70.6126 229.513 70.7461 229.156C70.8946 228.766 70.9675 228.351 70.961 227.934L70.9336 225.531Z" fill="white"/>
<path d="M86.6562 222.727H81.6406V233.02H79.3594V222.727H74.3203V220.445H86.6562V222.727Z" fill="white"/>
<path d="M101.352 227.934C101.36 228.657 101.227 229.375 100.961 230.047C100.714 230.672 100.342 231.24 99.8666 231.716C99.3916 232.191 98.8241 232.565 98.1992 232.813C97.53 233.08 96.8145 233.213 96.0938 233.203H93.0078C92.2899 233.21 91.5774 233.078 90.9102 232.813C90.2876 232.565 89.7216 232.194 89.2461 231.723C88.7715 231.246 88.3969 230.679 88.1445 230.055C87.8763 229.383 87.7436 228.665 87.7539 227.941V225.531C87.7447 224.809 87.8774 224.093 88.1445 223.422C88.3949 222.799 88.7692 222.233 89.2445 221.759C89.7199 221.285 90.2866 220.913 90.9102 220.664C91.5774 220.399 92.2899 220.266 93.0078 220.273H96.0938C96.8092 220.266 97.5193 220.398 98.1836 220.664C98.8039 220.915 99.3682 221.287 99.8438 221.758C100.327 222.235 100.706 222.807 100.957 223.438C101.222 224.109 101.355 224.825 101.348 225.547L101.352 227.934ZM99.0703 225.531C99.0769 225.114 99.004 224.699 98.8555 224.309C98.7236 223.957 98.5185 223.637 98.2539 223.371C97.9857 223.106 97.665 222.9 97.3125 222.766C96.9288 222.618 96.5204 222.545 96.1094 222.551H93.0234C92.6085 222.545 92.1962 222.617 91.8086 222.766C91.4554 222.901 91.1337 223.107 90.8633 223.371C90.5962 223.637 90.3885 223.957 90.2539 224.309C90.1073 224.699 90.0345 225.114 90.0391 225.531V227.934C90.0345 228.351 90.1073 228.765 90.2539 229.156C90.3885 229.508 90.5962 229.828 90.8633 230.094C91.1292 230.358 91.4471 230.564 91.7969 230.699C92.1845 230.847 92.5968 230.92 93.0117 230.914H96.0938C96.5087 230.92 96.921 230.847 97.3086 230.699C97.6619 230.561 97.9815 230.35 98.2461 230.078C98.5157 229.814 98.7237 229.494 98.8555 229.141C99.004 228.75 99.0769 228.335 99.0703 227.918V225.531Z" fill="white"/>
<path d="M116.172 224.672C116.178 225.144 116.112 225.614 115.977 226.066C115.86 226.452 115.685 226.817 115.457 227.148C115.246 227.453 114.99 227.724 114.699 227.953C114.419 228.168 114.117 228.351 113.797 228.5C113.495 228.64 113.178 228.745 112.852 228.812C112.556 228.873 112.255 228.904 111.953 228.906L116.715 233.02H113.199L108.437 228.906H106.797V226.629H111.953C112.221 226.608 112.484 226.547 112.734 226.449C112.961 226.358 113.169 226.225 113.348 226.059C113.518 225.891 113.652 225.688 113.738 225.465C113.834 225.216 113.882 224.951 113.879 224.684V223.234C113.884 223.135 113.868 223.035 113.832 222.941C113.804 222.882 113.761 222.83 113.707 222.793C113.661 222.76 113.607 222.74 113.551 222.734C113.5 222.731 113.449 222.731 113.398 222.734H105.887V233.02H103.605V221.594C103.604 221.441 103.633 221.29 103.691 221.148C103.746 221.004 103.828 220.871 103.934 220.758C104.037 220.653 104.16 220.57 104.297 220.516C104.442 220.455 104.597 220.425 104.754 220.426H113.41C113.856 220.413 114.298 220.508 114.699 220.703C115.029 220.871 115.319 221.107 115.551 221.395C115.766 221.661 115.928 221.966 116.027 222.293C116.117 222.586 116.166 222.889 116.172 223.195V224.672Z" fill="white"/>
<path d="M19.7852 238.91C30.3411 238.91 38.8984 230.353 38.8984 219.797C38.8984 209.241 30.3411 200.684 19.7852 200.684C9.22918 200.684 0.671875 209.241 0.671875 219.797C0.671875 230.353 9.22918 238.91 19.7852 238.91Z" fill="white"/>
<path fill-rule="evenodd" clip-rule="evenodd" d="M19.75 201.172C9.48959 201.172 1.17188 209.49 1.17188 219.75C1.17188 230.01 9.48959 238.328 19.75 238.328C30.0104 238.328 38.3281 230.01 38.3281 219.75C38.3281 209.49 30.0104 201.172 19.75 201.172ZM0 219.75C0 208.842 8.84238 200 19.75 200C30.6576 200 39.5 208.842 39.5 219.75C39.5 230.658 30.6576 239.5 19.75 239.5C8.84238 239.5 0 230.658 0 219.75Z" fill="#0015FB"/>
<path d="M13.5742 212.156L13.8242 211.492H17.2148L20.9414 223.828H20.9961L24.75 211.508H27.9844L28.2578 212.172L34.0586 225.273C34.9298 223.02 35.2563 220.593 35.0115 218.19C34.7667 215.787 33.9575 213.476 32.6499 211.444C31.3422 209.413 29.5732 207.72 27.4869 206.502C25.4006 205.285 23.0561 204.577 20.6445 204.437L24.1094 211.492H17.5781L20.6367 204.437C20.3437 204.437 20.0508 204.41 19.7539 204.41C17.0266 204.41 14.3485 205.137 11.9955 206.516C9.64257 207.895 7.69985 209.877 6.36751 212.256C5.03517 214.636 4.36138 217.328 4.41556 220.055C4.46975 222.782 5.24994 225.445 6.67576 227.77L13.5742 212.156Z" fill="#0015FB"/>
<path d="M32.4219 228.254L25.3047 211.848H25.2539L20.0703 228.906H19.4727L14.2891 211.855H14.2383L7.11719 228.262L7.05859 228.375C8.44955 230.461 10.3383 232.167 12.5542 233.339C14.7701 234.512 17.2432 235.113 19.75 235.09C22.2764 235.091 24.764 234.468 26.9912 233.275C29.2184 232.082 31.1162 230.357 32.5156 228.254H32.4219Z" fill="#0015FB"/>
<g clip-path="url(#clip0)">
<path d="M304.149 183.225C304.082 183.174 304.026 183.108 303.985 183.034C303.944 182.96 303.92 182.878 303.912 182.794L303.923 177.485L300.398 177.811C300.346 177.815 300.295 177.808 300.246 177.791C300.198 177.774 300.153 177.747 300.116 177.712C300.078 177.677 300.049 177.635 300.029 177.588C300.009 177.541 299.999 177.49 300 177.439L300.009 176.98C300.012 176.879 300.052 176.782 300.122 176.708C300.192 176.634 300.288 176.588 300.39 176.579L302.807 176.35L302.951 171.231C302.94 171.146 302.947 171.059 302.972 170.976C302.996 170.894 303.039 170.817 303.095 170.752C303.176 170.652 303.286 170.578 303.41 170.541C303.534 170.503 303.667 170.503 303.791 170.541C303.915 170.579 304.024 170.652 304.105 170.753C304.186 170.853 304.235 170.975 304.245 171.103L304.07 176.296L310.88 175.626L311.055 170.437C311.043 170.352 311.05 170.265 311.075 170.182C311.1 170.1 311.142 170.023 311.199 169.958C311.253 169.893 311.32 169.84 311.396 169.801C311.471 169.763 311.554 169.739 311.638 169.731C311.724 169.72 311.811 169.726 311.894 169.75C311.977 169.773 312.054 169.813 312.121 169.867C312.188 169.921 312.242 169.988 312.282 170.064C312.321 170.14 312.345 170.223 312.35 170.308L312.24 175.491L315.84 175.138C315.901 175.132 315.963 175.139 316.021 175.158C316.079 175.177 316.132 175.208 316.177 175.249C316.222 175.29 316.258 175.34 316.282 175.396C316.306 175.452 316.318 175.512 316.317 175.573V175.819C316.314 175.937 316.267 176.051 316.185 176.137C316.102 176.223 315.991 176.276 315.871 176.286L313.533 176.508L313.432 181.864C313.442 181.947 313.435 182.031 313.412 182.111C313.388 182.192 313.349 182.267 313.296 182.332C313.241 182.399 313.173 182.455 313.095 182.494C313.018 182.534 312.933 182.557 312.845 182.561C312.674 182.578 312.503 182.526 312.369 182.418C312.236 182.31 312.151 182.154 312.134 181.984L312.288 176.647L305.29 177.349L305.209 182.665C305.228 182.834 305.179 183.003 305.072 183.135C305.018 183.203 304.951 183.259 304.874 183.299C304.797 183.34 304.713 183.363 304.626 183.369C304.541 183.379 304.454 183.372 304.372 183.347C304.29 183.322 304.214 183.281 304.149 183.225Z" fill="white"/>
<path d="M324.021 174.452C324.653 174.831 325.164 175.377 325.497 176.029C325.857 176.741 326.037 177.528 326.022 178.324C326.026 178.402 326.013 178.479 325.984 178.552C325.956 178.624 325.912 178.69 325.856 178.745C325.798 178.797 325.729 178.838 325.654 178.864C325.58 178.89 325.501 178.902 325.422 178.898H318.682C318.737 179.743 319.124 180.533 319.76 181.1C320.396 181.667 321.231 181.966 322.086 181.932C322.499 181.93 322.908 181.861 323.297 181.726C323.653 181.616 323.984 181.44 324.273 181.207C324.4 181.103 324.559 181.045 324.724 181.042C324.857 181.045 324.986 181.092 325.09 181.173C325.157 181.228 325.21 181.296 325.247 181.373C325.285 181.45 325.305 181.533 325.307 181.619C325.306 181.691 325.289 181.763 325.257 181.829C325.226 181.894 325.18 181.952 325.123 181.998C324.708 182.333 324.237 182.592 323.73 182.763C323.079 183.006 322.382 183.107 321.687 183.059C320.993 183.01 320.317 182.814 319.706 182.483C319.014 182.102 318.445 181.536 318.063 180.85C317.661 180.126 317.457 179.31 317.47 178.483C317.456 177.655 317.647 176.836 318.028 176.099C318.38 175.422 318.916 174.857 319.576 174.466C320.261 174.069 321.043 173.866 321.837 173.88C322.605 173.867 323.361 174.065 324.021 174.452ZM319.732 175.797C319.162 176.344 318.802 177.07 318.716 177.851H324.821C324.77 177.081 324.44 176.355 323.893 175.805C323.621 175.546 323.299 175.344 322.946 175.211C322.594 175.077 322.218 175.016 321.84 175.029C321.063 175 320.305 175.277 319.732 175.797V175.797Z" fill="white"/>
<path d="M339.545 174.331C340.059 174.647 340.47 175.102 340.729 175.641C341.024 176.257 341.169 176.933 341.155 177.614V182.358C341.16 182.441 341.147 182.525 341.117 182.604C341.087 182.682 341.04 182.753 340.98 182.812C340.92 182.872 340.848 182.918 340.769 182.947C340.69 182.977 340.605 182.99 340.52 182.985C340.349 182.99 340.182 182.928 340.056 182.812C339.995 182.753 339.946 182.681 339.915 182.602C339.883 182.523 339.869 182.438 339.874 182.353V177.609C339.874 176.829 339.67 176.21 339.264 175.753C339.067 175.529 338.822 175.351 338.546 175.232C338.27 175.114 337.971 175.058 337.671 175.069C337.354 175.057 337.038 175.113 336.744 175.232C336.45 175.352 336.186 175.532 335.969 175.761C335.535 176.223 335.324 176.828 335.336 177.576V182.359C335.341 182.443 335.328 182.527 335.298 182.605C335.267 182.683 335.221 182.755 335.161 182.814C335.101 182.873 335.029 182.919 334.95 182.949C334.871 182.979 334.786 182.992 334.701 182.987C334.53 182.992 334.363 182.93 334.237 182.814C334.175 182.754 334.127 182.683 334.096 182.604C334.064 182.525 334.05 182.44 334.054 182.355V177.611C334.054 176.83 333.851 176.212 333.445 175.755C333.248 175.53 333.002 175.352 332.727 175.234C332.451 175.116 332.152 175.06 331.852 175.071C331.536 175.06 331.222 175.115 330.929 175.231C330.636 175.348 330.37 175.523 330.15 175.747C329.927 175.977 329.753 176.249 329.638 176.546C329.524 176.844 329.471 177.161 329.483 177.479V182.361C329.488 182.445 329.475 182.528 329.444 182.607C329.414 182.685 329.368 182.756 329.308 182.815C329.248 182.875 329.176 182.921 329.097 182.95C329.017 182.98 328.933 182.993 328.848 182.988C328.676 182.993 328.51 182.931 328.384 182.815C328.322 182.756 328.274 182.684 328.243 182.605C328.211 182.526 328.197 182.441 328.201 182.356V174.61C328.198 174.525 328.213 174.44 328.244 174.36C328.276 174.281 328.323 174.208 328.384 174.148C328.445 174.087 328.518 174.04 328.599 174.009C328.679 173.977 328.765 173.963 328.851 173.966C328.937 173.962 329.023 173.976 329.103 174.008C329.183 174.039 329.255 174.087 329.315 174.148C329.433 174.272 329.495 174.437 329.49 174.607V174.97C329.796 174.621 330.175 174.343 330.6 174.152C331.038 173.959 331.513 173.861 331.993 173.865C332.57 173.856 333.14 173.998 333.644 174.276C334.132 174.55 334.536 174.949 334.813 175.432C335.125 174.945 335.559 174.547 336.072 174.276C336.606 174.002 337.2 173.863 337.801 173.872C338.415 173.86 339.02 174.019 339.545 174.331Z" fill="white"/>
<path d="M350.063 174.452C350.696 174.83 351.207 175.376 351.54 176.029C351.901 176.74 352.081 177.528 352.066 178.324C352.07 178.402 352.057 178.48 352.028 178.552C351.999 178.625 351.955 178.69 351.899 178.745C351.84 178.797 351.772 178.838 351.698 178.864C351.623 178.89 351.544 178.902 351.465 178.898H344.727C344.782 179.743 345.169 180.533 345.805 181.1C346.441 181.667 347.276 181.966 348.132 181.932C348.544 181.93 348.952 181.861 349.341 181.726C349.697 181.616 350.028 181.44 350.317 181.207C350.444 181.103 350.603 181.045 350.767 181.042C350.901 181.045 351.03 181.092 351.134 181.173C351.201 181.228 351.255 181.296 351.292 181.372C351.33 181.449 351.351 181.533 351.352 181.619C351.351 181.691 351.334 181.763 351.303 181.828C351.271 181.894 351.225 181.952 351.168 181.998C350.751 182.335 350.276 182.594 349.766 182.763C349.115 183.006 348.418 183.107 347.723 183.059C347.029 183.01 346.353 182.814 345.742 182.483C345.055 182.101 344.488 181.537 344.108 180.854C343.705 180.129 343.501 179.313 343.515 178.486C343.5 177.658 343.692 176.839 344.074 176.102C344.425 175.425 344.962 174.86 345.622 174.469C346.306 174.072 347.088 173.87 347.881 173.883C348.648 173.869 349.403 174.066 350.063 174.452V174.452ZM345.776 175.797C345.204 176.343 344.844 177.07 344.758 177.851H350.865C350.813 177.081 350.483 176.356 349.936 175.805C349.665 175.546 349.343 175.344 348.99 175.211C348.638 175.077 348.261 175.016 347.884 175.029C347.106 174.999 346.348 175.276 345.776 175.797V175.797Z" fill="white"/>
<path d="M359.465 174.048C359.738 174.169 359.874 174.341 359.874 174.559C359.876 174.611 359.87 174.663 359.857 174.713C359.829 174.837 359.754 174.946 359.648 175.019C359.527 175.08 359.392 175.108 359.256 175.101C359.156 175.101 358.984 175.09 358.739 175.069C358.606 175.056 358.472 175.05 358.338 175.052C357.505 175.052 356.824 175.272 356.296 175.712C356.04 175.919 355.836 176.181 355.698 176.479C355.561 176.776 355.494 177.1 355.503 177.427V182.359C355.509 182.445 355.497 182.532 355.468 182.613C355.439 182.694 355.393 182.769 355.334 182.832C355.274 182.895 355.202 182.946 355.122 182.98C355.042 183.014 354.956 183.032 354.869 183.032C354.781 183.032 354.695 183.014 354.615 182.98C354.535 182.946 354.463 182.895 354.403 182.832C354.344 182.769 354.298 182.694 354.269 182.613C354.24 182.532 354.228 182.445 354.234 182.359V174.593C354.228 174.507 354.24 174.421 354.269 174.339C354.298 174.258 354.344 174.183 354.403 174.12C354.463 174.057 354.535 174.007 354.615 173.973C354.695 173.938 354.781 173.92 354.869 173.92C354.956 173.92 355.042 173.938 355.122 173.973C355.202 174.007 355.274 174.057 355.334 174.12C355.393 174.183 355.439 174.258 355.468 174.339C355.497 174.421 355.509 174.507 355.503 174.593V175.318C355.818 174.864 356.244 174.495 356.741 174.247C357.241 173.996 357.795 173.867 358.356 173.872C358.734 173.855 359.111 173.915 359.465 174.048V174.048Z" fill="white"/>
<path d="M367.723 174.484C368.421 174.877 368.998 175.45 369.392 176.142C369.8 176.856 370.01 177.664 370 178.485V182.361C370.002 182.443 369.986 182.525 369.955 182.602C369.923 182.678 369.877 182.748 369.817 182.806C369.757 182.866 369.684 182.913 369.604 182.945C369.524 182.976 369.439 182.991 369.353 182.988C369.181 182.993 369.015 182.931 368.889 182.815C368.827 182.756 368.779 182.684 368.748 182.605C368.716 182.526 368.702 182.441 368.706 182.356V181.371C368.318 181.897 367.809 182.323 367.22 182.615C366.605 182.923 365.924 183.08 365.235 183.074C364.437 183.084 363.652 182.88 362.963 182.484C362.274 182.087 361.707 181.512 361.322 180.821C360.931 180.102 360.728 179.298 360.731 178.481C360.734 177.664 360.943 176.861 361.339 176.145C361.731 175.453 362.306 174.879 363.002 174.484C363.724 174.089 364.537 173.882 365.362 173.882C366.188 173.882 367.001 174.089 367.723 174.484V174.484ZM367.081 181.47C367.589 181.178 368.007 180.755 368.29 180.246C368.582 179.704 368.734 179.1 368.734 178.486C368.734 177.872 368.582 177.268 368.29 176.726C367.998 176.209 367.573 175.779 367.056 175.479C366.54 175.179 365.953 175.021 365.354 175.021C364.755 175.021 364.168 175.179 363.652 175.479C363.135 175.779 362.71 176.209 362.418 176.726C362.126 177.268 361.974 177.872 361.974 178.486C361.974 179.1 362.126 179.704 362.418 180.246C362.703 180.757 363.124 181.18 363.636 181.47C364.161 181.769 364.758 181.923 365.363 181.916C365.966 181.924 366.56 181.771 367.081 181.472V181.47Z" fill="white"/>
<path d="M355.55 156.917C351.506 155.971 349.436 154 347.084 152.618C337.179 146.803 328.809 151.865 323.574 156.254C319.51 159.662 317.419 162.146 317.419 162.146C316.663 162.74 315.777 163.151 314.831 163.344C314.693 163.364 314.56 163.412 314.44 163.485C314.321 163.557 314.217 163.653 314.136 163.765C314.055 163.878 313.998 164.006 313.968 164.141C313.937 164.277 313.935 164.416 313.961 164.553C313.987 164.689 314.04 164.818 314.118 164.933C314.195 165.049 314.296 165.147 314.413 165.223C314.53 165.299 314.661 165.351 314.799 165.376C314.937 165.401 315.078 165.398 315.215 165.367C317.227 164.994 318.674 163.864 319.599 163.015C325.454 165.101 341.981 169.327 355.55 156.917Z" fill="#95C83D"/>
<path d="M347.53 157.061L339.504 157.852L339.991 154.8C340.011 154.635 339.966 154.468 339.864 154.335C339.763 154.202 339.613 154.113 339.447 154.087C339.28 154.061 339.11 154.099 338.971 154.195C338.833 154.29 338.738 154.435 338.705 154.598L338.165 157.983L331.485 158.641L331.974 155.59C331.992 155.505 331.991 155.417 331.973 155.332C331.956 155.247 331.92 155.166 331.87 155.095C331.82 155.024 331.756 154.963 331.681 154.917C331.607 154.871 331.524 154.84 331.437 154.827C331.35 154.813 331.262 154.817 331.176 154.839C331.091 154.86 331.011 154.898 330.941 154.95C330.871 155.003 330.813 155.069 330.769 155.144C330.726 155.22 330.698 155.303 330.688 155.39L330.147 158.773L323.889 159.385C323.725 159.404 323.575 159.485 323.468 159.609C323.362 159.734 323.307 159.894 323.315 160.057C323.324 160.22 323.394 160.374 323.513 160.488C323.632 160.601 323.789 160.666 323.954 160.669H324.019L331.448 159.936L330.959 162.987C330.933 163.156 330.975 163.328 331.076 163.466C331.178 163.604 331.33 163.696 331.501 163.724C331.535 163.726 331.569 163.726 331.603 163.724C331.758 163.723 331.908 163.668 332.025 163.569C332.143 163.469 332.221 163.332 332.245 163.18L332.787 159.797L339.431 159.142L338.943 162.193C338.93 162.277 338.933 162.362 338.953 162.444C338.973 162.526 339.009 162.604 339.059 162.672C339.109 162.74 339.173 162.798 339.245 162.842C339.318 162.887 339.399 162.916 339.484 162.929C339.518 162.932 339.552 162.932 339.586 162.929C339.74 162.932 339.89 162.881 340.01 162.785C340.129 162.688 340.211 162.553 340.239 162.403L340.78 159.019L347.663 158.342C347.829 158.318 347.979 158.231 348.082 158.101C348.185 157.97 348.234 157.805 348.217 157.64C348.201 157.476 348.12 157.323 347.993 157.215C347.866 157.107 347.702 157.052 347.534 157.061H347.53Z" fill="white"/>
<path d="M326.449 185.559C326.502 185.615 326.542 185.681 326.569 185.753C326.595 185.824 326.607 185.901 326.604 185.977V189.472C326.608 189.543 326.597 189.613 326.573 189.68C326.548 189.746 326.51 189.807 326.46 189.858C326.357 189.949 326.223 190 326.085 190C325.946 190 325.813 189.949 325.709 189.858C325.66 189.807 325.621 189.746 325.596 189.68C325.571 189.614 325.56 189.543 325.564 189.472V187.584L324.823 188.932C324.769 189.046 324.689 189.147 324.589 189.226C324.502 189.282 324.4 189.311 324.296 189.311C324.193 189.311 324.091 189.282 324.004 189.226C323.904 189.147 323.824 189.046 323.77 188.932L323.035 187.622V189.472C323.039 189.542 323.027 189.612 323.002 189.678C322.977 189.744 322.939 189.804 322.89 189.855C322.84 189.903 322.78 189.941 322.714 189.966C322.649 189.991 322.579 190.003 322.509 190C322.44 190.002 322.372 189.991 322.308 189.967C322.244 189.942 322.185 189.905 322.136 189.858C322.086 189.807 322.047 189.746 322.022 189.68C321.996 189.614 321.985 189.543 321.989 189.472V185.977C321.985 185.901 321.997 185.824 322.023 185.752C322.05 185.681 322.091 185.615 322.144 185.559C322.239 185.468 322.363 185.411 322.495 185.4C322.627 185.389 322.759 185.424 322.868 185.498C322.971 185.572 323.054 185.67 323.109 185.784L324.304 188.008L325.494 185.784C325.627 185.527 325.804 185.398 326.039 185.398C326.115 185.395 326.191 185.407 326.262 185.435C326.332 185.463 326.396 185.505 326.449 185.559V185.559Z" fill="white"/>
<path d="M328.893 189.819C328.843 189.765 328.804 189.701 328.779 189.632C328.754 189.563 328.744 189.489 328.749 189.415V185.977C328.741 185.903 328.749 185.828 328.774 185.758C328.799 185.688 328.839 185.625 328.892 185.572C328.945 185.52 329.01 185.48 329.081 185.455C329.151 185.431 329.227 185.422 329.302 185.431H331.55C331.701 185.419 331.85 185.461 331.973 185.547C332.021 185.588 332.06 185.639 332.085 185.697C332.11 185.755 332.121 185.818 332.117 185.88C332.117 186.187 331.928 186.34 331.55 186.34H329.913V187.201H331.417C331.795 187.201 331.984 187.354 331.984 187.66C331.988 187.723 331.977 187.786 331.952 187.845C331.927 187.903 331.888 187.954 331.84 187.995C331.716 188.078 331.566 188.117 331.417 188.104H329.91V189.042H331.547C331.925 189.042 332.114 189.195 332.114 189.501C332.118 189.564 332.107 189.627 332.082 189.685C332.057 189.743 332.018 189.794 331.97 189.835C331.846 189.92 331.697 189.96 331.547 189.95H329.302C329.228 189.956 329.154 189.948 329.084 189.926C329.014 189.903 328.949 189.867 328.893 189.819Z" fill="white"/>
<path d="M334.073 189.819C334.023 189.765 333.984 189.701 333.959 189.632C333.934 189.563 333.924 189.489 333.929 189.415V185.977C333.921 185.903 333.929 185.828 333.954 185.758C333.979 185.688 334.019 185.625 334.072 185.572C334.125 185.52 334.19 185.48 334.261 185.455C334.331 185.431 334.407 185.422 334.482 185.431H335.795C336.247 185.42 336.696 185.513 337.105 185.703C337.458 185.873 337.751 186.145 337.945 186.483C338.148 186.854 338.249 187.271 338.238 187.692C338.25 188.118 338.151 188.54 337.95 188.917C337.758 189.256 337.465 189.528 337.111 189.697C336.7 189.887 336.249 189.979 335.795 189.966H334.482C334.407 189.971 334.332 189.96 334.262 189.935C334.192 189.909 334.127 189.87 334.073 189.819ZM335.71 189.01C336.156 189.01 336.484 188.901 336.715 188.686C336.945 188.47 337.049 188.138 337.049 187.692C337.049 187.247 336.938 186.918 336.715 186.704C336.492 186.49 336.156 186.381 335.71 186.381H335.132V189.01H335.71Z" fill="white"/>
<path d="M340.412 189.842C340.358 189.785 340.317 189.718 340.291 189.645C340.264 189.571 340.253 189.493 340.257 189.415V185.977C340.253 185.9 340.264 185.823 340.291 185.751C340.317 185.678 340.359 185.612 340.412 185.556C340.47 185.503 340.538 185.462 340.612 185.436C340.686 185.41 340.765 185.398 340.844 185.403C340.924 185.398 341.005 185.409 341.081 185.435C341.157 185.461 341.227 185.503 341.287 185.556C341.342 185.611 341.384 185.677 341.412 185.75C341.44 185.822 341.453 185.899 341.449 185.977V189.415C341.453 189.494 341.441 189.572 341.413 189.646C341.385 189.719 341.342 189.786 341.287 189.842C341.227 189.896 341.157 189.937 341.081 189.963C341.005 189.989 340.924 190 340.844 189.995C340.765 190 340.686 189.988 340.612 189.962C340.538 189.936 340.47 189.895 340.412 189.842V189.842Z" fill="white"/>
<path d="M348.027 189.472C348.027 189.541 348.011 189.609 347.981 189.671C347.951 189.734 347.908 189.788 347.853 189.832C347.746 189.93 347.606 189.984 347.46 189.985C347.364 189.985 347.269 189.959 347.188 189.908C347.101 189.851 347.034 189.771 346.993 189.677L346.7 189.022H344.594L344.295 189.673C344.256 189.764 344.19 189.843 344.106 189.897C344.021 189.952 343.922 189.98 343.822 189.979C343.674 189.978 343.532 189.923 343.422 189.826C343.367 189.783 343.322 189.728 343.291 189.666C343.26 189.604 343.243 189.535 343.243 189.466C343.244 189.384 343.264 189.303 343.302 189.229L345.016 185.746C345.07 185.633 345.158 185.54 345.267 185.478C345.379 185.416 345.506 185.385 345.634 185.386C345.762 185.386 345.887 185.417 345.999 185.478C346.11 185.539 346.198 185.633 346.251 185.746L347.968 189.229C348.006 189.304 348.026 189.388 348.027 189.472ZM344.998 188.136H346.298L345.648 186.704L344.998 188.136Z" fill="white"/>
</g>
<path d="M213.5 201H202.5C201.656 201 201 201.688 201 202.5V213.5C201 214.344 201.656 215 202.5 215H213.5C214.313 215 215 214.344 215 213.5V202.5C215 201.688 214.313 201 213.5 201ZM214 213.5C214 213.781 213.75 214 213.5 214H202.5C202.219 214 202 213.781 202 213.5V202.5C202 202.25 202.219 202 202.5 202H213.5C213.75 202 214 202.25 214 202.5V213.5ZM205.5 210C205.75 210 206 210.25 206 210.5C206 210.781 205.75 211 205.5 211C205.219 211 205 210.781 205 210.5C205 210.25 205.219 210 205.5 210ZM205.5 209C204.656 209 204 209.688 204 210.5C204 211.344 204.656 212 205.5 212C206.313 212 207 211.344 207 210.5C207 209.688 206.313 209 205.5 209ZM211.594 212C211.813 212 212 211.844 211.969 211.625C211.781 207.5 208.5 204.219 204.375 204.031C204.156 204 204 204.188 204 204.406V204.656C204 204.844 204.125 205 204.344 205.031C207.938 205.188 210.813 208.063 210.969 211.656C211 211.875 211.156 212 211.344 212H211.594ZM209.344 212C209.563 212 209.75 211.844 209.719 211.625C209.531 208.75 207.25 206.469 204.375 206.281C204.156 206.25 204 206.438 204 206.656V206.906C204 207.094 204.125 207.25 204.344 207.281C206.688 207.438 208.563 209.313 208.719 211.656C208.75 211.875 208.906 212 209.094 212H209.344Z" fill="white"/>
<path d="M163.5 201H152.5C151.656 201 151 201.688 151 202.5V213.5C151 214.344 151.656 215 152.5 215H163.5C164.312 215 165 214.344 165 213.5V202.5C165 201.688 164.312 201 163.5 201ZM164 213.5C164 213.781 163.75 214 163.5 214H152.5C152.219 214 152 213.781 152 213.5V202.5C152 202.25 152.219 202 152.5 202H163.5C163.75 202 164 202.25 164 202.5V213.5ZM155.5 210C155.75 210 156 210.25 156 210.5C156 210.781 155.75 211 155.5 211C155.219 211 155 210.781 155 210.5C155 210.25 155.219 210 155.5 210ZM155.5 209C154.656 209 154 209.688 154 210.5C154 211.344 154.656 212 155.5 212C156.312 212 157 211.344 157 210.5C157 209.688 156.312 209 155.5 209ZM161.594 212C161.812 212 162 211.844 161.969 211.625C161.781 207.5 158.5 204.219 154.375 204.031C154.156 204 154 204.188 154 204.406V204.656C154 204.844 154.125 205 154.344 205.031C157.938 205.188 160.812 208.062 160.969 211.656C161 211.875 161.156 212 161.344 212H161.594ZM159.344 212C159.562 212 159.75 211.844 159.719 211.625C159.531 208.75 157.25 206.469 154.375 206.281C154.156 206.25 154 206.438 154 206.656V206.906C154 207.094 154.125 207.25 154.344 207.281C156.688 207.438 158.562 209.312 158.719 211.656C158.75 211.875 158.906 212 159.094 212H159.344Z" fill="#FBB500"/>
<path d="M255.579 216.274C256.742 216.274 257.726 217.258 257.726 218.421C257.726 219.629 256.742 220.569 255.579 220.569C254.371 220.569 253.431 219.629 253.431 218.421C253.431 217.258 254.371 216.274 255.579 216.274ZM255.579 214.843C253.566 214.843 252 216.453 252 218.421C252 220.434 253.566 222 255.579 222C257.547 222 259.157 220.434 259.157 218.421C259.157 216.453 257.547 214.843 255.579 214.843ZM271.995 221.463C271.727 210.817 263.138 202.273 252.537 202.005C252.224 201.96 252 202.229 252 202.542V202.9C252 203.168 252.224 203.392 252.492 203.436C262.378 203.705 270.295 211.622 270.564 221.508C270.608 221.776 270.832 222 271.1 222H271.458C271.771 222 272.04 221.776 271.995 221.463ZM265.554 221.463C265.285 214.396 259.604 208.715 252.537 208.446C252.224 208.402 252 208.67 252 208.983V209.341C252 209.609 252.224 209.833 252.492 209.878C258.799 210.146 263.854 215.201 264.122 221.508C264.167 221.776 264.391 222 264.659 222H265.017C265.33 222 265.598 221.776 265.554 221.463Z" fill="white"/>
<path fill-rule="evenodd" clip-rule="evenodd" d="M360.259 102.678C361.202 101.604 362.484 101 363.821 101H366.607C366.824 101 367 101.197 367 101.44V105.664C367 105.907 366.824 106.104 366.607 106.104H363.821C363.681 106.104 363.546 106.167 363.445 106.282C363.344 106.397 363.286 106.554 363.286 106.72V109.448H366.607C366.728 109.448 366.842 109.51 366.916 109.617C366.991 109.723 367.017 109.862 366.989 109.993L366.06 114.217C366.017 114.414 365.859 114.552 365.679 114.552H363.286V122.56C363.286 122.803 363.11 123 362.893 123H359.179C358.962 123 358.786 122.803 358.786 122.56V114.552H356.393C356.176 114.552 356 114.355 356 114.112V109.888C356 109.645 356.176 109.448 356.393 109.448H358.786V106.72C358.786 105.205 359.315 103.751 360.259 102.678ZM363.821 101.88C362.696 101.88 361.616 102.388 360.818 103.295C360.021 104.202 359.571 105.434 359.571 106.72V109.888C359.571 110.131 359.396 110.328 359.179 110.328H356.786V113.672H359.179C359.396 113.672 359.571 113.869 359.571 114.112V122.12H362.5V114.112C362.5 113.869 362.676 113.672 362.893 113.672H365.371L366.106 110.328H362.893C362.676 110.328 362.5 110.131 362.5 109.888V106.72C362.5 106.325 362.638 105.946 362.885 105.665C363.132 105.383 363.469 105.224 363.821 105.224H366.214V101.88H363.821Z" fill="white"/>
<path fill-rule="evenodd" clip-rule="evenodd" d="M412 103C412 103 412 103 412 103.472C412 103.944 412 103.944 412 103.944L411.92 103.945C411.867 103.945 411.789 103.945 411.689 103.945C411.489 103.946 411.202 103.948 410.851 103.952C410.149 103.959 409.195 103.974 408.185 104.004C407.175 104.034 406.113 104.078 405.193 104.145C404.263 104.212 403.519 104.299 403.117 104.405C402.706 104.521 402.333 104.742 402.035 105.047C401.74 105.348 401.53 105.72 401.425 106.127C401.102 107.906 400.944 109.711 400.953 111.518L400.953 111.524C400.942 113.342 401.099 115.158 401.423 116.948C401.539 117.339 401.754 117.695 402.046 117.982C402.344 118.274 402.712 118.485 403.115 118.594C403.517 118.7 404.262 118.788 405.193 118.855C406.113 118.922 407.175 118.966 408.185 118.996C409.195 119.026 410.149 119.041 410.851 119.048C411.202 119.052 411.489 119.054 411.689 119.055C411.789 119.055 411.867 119.055 411.92 119.055L412 119.056C412 119.056 412 119.056 412 119.528C412 120 412 120 412 120L411.918 120C411.864 120 411.785 120 411.685 119.999C411.483 119.998 411.194 119.996 410.841 119.993C410.135 119.985 409.174 119.97 408.157 119.94C407.14 119.91 406.063 119.865 405.124 119.797C404.199 119.73 403.368 119.639 402.868 119.506L402.865 119.506C402.303 119.353 401.79 119.059 401.376 118.653C400.962 118.247 400.66 117.741 400.501 117.185C400.496 117.17 400.493 117.155 400.49 117.14C400.153 115.286 399.989 113.405 400.001 111.52C399.991 109.65 400.155 107.784 400.49 105.943C400.492 105.933 400.494 105.923 400.497 105.912C400.642 105.339 400.936 104.813 401.352 104.389C401.767 103.965 402.288 103.656 402.861 103.496L402.868 103.494C403.368 103.361 404.199 103.27 405.124 103.203C406.063 103.135 407.14 103.09 408.157 103.06C409.174 103.03 410.135 103.015 410.841 103.007C411.194 103.004 411.483 103.002 411.685 103.001C411.785 103 411.864 103 411.918 103L412 103ZM420.883 118.595C420.481 118.701 419.737 118.788 418.807 118.855C417.887 118.922 416.825 118.966 415.815 118.996C414.805 119.026 413.851 119.041 413.149 119.048C412.798 119.052 412.511 119.054 412.311 119.055C412.211 119.055 412.133 119.055 412.08 119.055L412 119.056C412 119.056 412 119.056 412 119.528C412 120 412 120 412 120L412.082 120C412.136 120 412.215 120 412.315 119.999C412.517 119.998 412.806 119.996 413.159 119.993C413.865 119.985 414.826 119.97 415.843 119.94C416.86 119.91 417.937 119.865 418.876 119.797C419.801 119.73 420.632 119.639 421.132 119.506L421.139 119.504C421.712 119.344 422.233 119.035 422.648 118.611C423.064 118.187 423.358 117.661 423.503 117.088C423.506 117.077 423.508 117.067 423.51 117.057C423.842 115.23 424.006 113.377 423.999 111.521C424.011 109.637 423.847 107.756 423.51 105.902L423.041 105.985L423.503 105.871C423.358 105.297 423.064 104.772 422.648 104.348C422.233 103.923 421.712 103.615 421.139 103.454C421.133 103.452 421.128 103.451 421.122 103.45C420.626 103.33 419.798 103.246 418.873 103.185C417.935 103.123 416.858 103.082 415.842 103.055C414.825 103.027 413.865 103.014 413.159 103.007C412.806 103.003 412.517 103.002 412.315 103.001C412.215 103 412.136 103 412.082 103L412 103C412 103 412 103 412 103.472C412 103.944 412 103.944 412 103.944L412.08 103.945C412.133 103.945 412.211 103.945 412.311 103.945C412.511 103.946 412.799 103.948 413.15 103.951C413.852 103.958 414.806 103.972 415.816 103.999C416.827 104.026 417.889 104.067 418.81 104.127C419.736 104.189 420.481 104.268 420.888 104.365C421.297 104.481 421.668 104.702 421.965 105.005C422.26 105.307 422.47 105.679 422.575 106.085C422.9 107.878 423.058 109.696 423.047 111.518L423.047 111.522C423.053 113.316 422.895 115.107 422.575 116.873C422.47 117.28 422.26 117.652 421.965 117.953C421.667 118.258 421.294 118.479 420.883 118.595Z" fill="white"/>
<path fill-rule="evenodd" clip-rule="evenodd" d="M409.255 107.566C409.412 107.479 409.607 107.478 409.765 107.564L416.241 111.076C416.401 111.162 416.5 111.324 416.5 111.5C416.5 111.676 416.401 111.838 416.241 111.924L409.765 115.436C409.607 115.522 409.412 115.521 409.255 115.434C409.097 115.346 409 115.186 409 115.012V107.988C409 107.814 409.097 107.654 409.255 107.566ZM410.024 108.828V114.172L414.952 111.5L410.024 108.828Z" fill="white"/>
<defs>
<clipPath id="clip0">
<rect width="70" height="40" fill="white" transform="translate(300 150)"/>
</clipPath>
</defs>
</svg>
